<svg xmlns="http://www.w3.org/2000/svg" width="34.035" height="33.456" viewBox="0 0 34.035 33.456">
  <defs>
    <style>.a{fill:#e7f1fd;}.b{fill:#abbed5;}</style>
  </defs>
  <g transform="translate(-4.346 -4.271)">
    <ellipse class="a" cx="17.018" cy="16.728" rx="17.018" ry="16.728" transform="translate(4.346 4.272)"/>
    <g transform="translate(13.616 13.432)">
      <path class="b" d="M7.427,0A7.4,7.4,0,0,0,0,7.363a7.427,7.427,0,0,0,14.854,0A7.4,7.4,0,0,0,7.427,0Zm0,13.159a5.8,5.8,0,1,1,5.847-5.8A5.828,5.828,0,0,1,7.427,13.159Z"/>
      <path class="b" d="M48.627,21.415H45.289V17.436a.612.612,0,0,0-1.223,0v4.585a.609.609,0,0,0,.612.606h3.949a.606.606,0,1,0,0-1.212Z" transform="translate(-37.329 -14.279)"/>
    </g>
  </g>
</svg>