<svg xmlns="http://www.w3.org/2000/svg" width="13.141" height="13.213" viewBox="0 0 13.141 13.213"><g transform="translate(13.3 13.213) rotate(180)"><g transform="translate(0.16)"><g transform="translate(0 2.307)"><path d="M10.546,21.235H.682a.522.522,0,0,1-.522-.522V10.85a.522.522,0,0,1,.522-.522h9.864a.522.522,0,0,1,.522.522v9.863A.522.522,0,0,1,10.546,21.235ZM1.2,20.191h8.82V11.372H1.2Z" transform="translate(-0.16 -10.328)" fill="#434b5d"/></g><g transform="translate(2.235)"><path d="M20.553,10.908h-1.06a.522.522,0,1,1,0-1.044h.538V1.044h-8.82v.581a.522.522,0,1,1-1.044,0V.522A.522.522,0,0,1,10.689,0h9.864a.522.522,0,0,1,.522.522v9.864A.522.522,0,0,1,20.553,10.908Z" transform="translate(-10.167)" fill="#434b5d"/></g></g></g></svg>