<svg xmlns="http://www.w3.org/2000/svg" width="12.283" height="16.318" viewBox="0 0 12.283 16.318"><g transform="translate(0 0)"><path d="M11.757,16.319H.526A.55.55,0,0,1,0,15.787V2.306a.547.547,0,0,1,.526-.532H2.807V1.6a.55.55,0,0,1,.526-.532H4.447a1.881,1.881,0,0,1,3.389,0H8.949a.55.55,0,0,1,.526.532v.177h2.281a.55.55,0,0,1,.526.532V15.787A.55.55,0,0,1,11.757,16.319ZM.921,2.758V15.282H11.362V2.758h-1.8v.536a.56.56,0,0,1-.54.537H3.261a.56.56,0,0,1-.54-.537V2.758Zm2.939-.63v.71H8.423v-.71H7.5a.541.541,0,0,1-.51-.4.877.877,0,0,0-1.7,0,.54.54,0,0,1-.51.4Z" transform="translate(0 0)" fill="#005b84"/><rect width="0.97" height="5.094" rx="0.485" transform="translate(5.818 6.368)" fill="#005b84"/><rect width="0.97" height="5.094" rx="0.485" transform="translate(3.756 9.399) rotate(-90)" fill="#005b84"/></g></svg>