<svg xmlns="http://www.w3.org/2000/svg" width="16.297" height="8.148" viewBox="0 0 16.297 8.148"><g transform="translate(0 -5)"><g transform="translate(0 5)"><path d="M6.519,29.074a.815.815,0,0,1-.815.815H.815a.815.815,0,1,1,0-1.63H5.7A.815.815,0,0,1,6.519,29.074ZM5.7,31.519H.815a.815.815,0,1,0,0,1.63H5.7a.815.815,0,1,0,0-1.63ZM5.7,25H.815a.815.815,0,0,0,0,1.63H5.7A.815.815,0,1,0,5.7,25Z" transform="translate(0 -25)" fill="#434b5d"/><g transform="translate(8.588 0.91)"><path d="M3.49,11.3a.9.9,0,0,1-1.266,0L.262,9.338A.9.9,0,0,1,1.528,8.072L2.7,9.24a.227.227,0,0,0,.32,0L6.181,6.076A.9.9,0,1,1,7.447,7.342Z" transform="translate(0 -5.814)" fill="#434b5d"/></g></g></g></svg>