<svg xmlns="http://www.w3.org/2000/svg" viewBox="0 0 15 14" width="15" height="14">
	<style>
		tspan { white-space:pre }
		.shp0 { fill: #2abbfd } 
	</style>
	<g id="Layer">
		<path id="Layer" class="shp0" d="M13.74,5.95c0.08,0.07 0.15,0.16 0.21,0.25c0.06,0.09 0.11,0.18 0.15,0.28c0.04,0.1 0.07,0.2 0.09,0.31c0.02,0.11 0.03,0.21 0.03,0.32v3.56c0,0.04 -0.01,0.07 -0.02,0.1c-0.01,0.03 -0.03,0.06 -0.06,0.09c-0.03,0.03 -0.06,0.05 -0.09,0.06c-0.03,0.01 -0.07,0.02 -0.1,0.02h-1.91l0,1.37c0,0.11 -0.02,0.21 -0.06,0.31c-0.04,0.1 -0.1,0.19 -0.18,0.27c-0.08,0.08 -0.17,0.14 -0.27,0.18c-0.1,0.04 -0.21,0.06 -0.31,0.06l-8.2,0c-0.11,0 -0.21,-0.02 -0.31,-0.06c-0.1,-0.04 -0.19,-0.1 -0.27,-0.18c-0.08,-0.08 -0.14,-0.17 -0.18,-0.27c-0.04,-0.1 -0.06,-0.21 -0.06,-0.31v-1.37h-1.91c-0.02,0 -0.04,0 -0.05,-0.01c-0.02,0 -0.03,-0.01 -0.05,-0.02c-0.02,-0.01 -0.03,-0.02 -0.05,-0.03c-0.01,-0.01 -0.03,-0.02 -0.04,-0.03c-0.01,-0.01 -0.02,-0.03 -0.03,-0.04c-0.01,-0.01 -0.02,-0.03 -0.03,-0.05c-0.01,-0.02 -0.01,-0.03 -0.02,-0.05c0,-0.02 -0.01,-0.04 -0.01,-0.05v-3.56c0,-0.11 0.01,-0.21 0.03,-0.32c0.02,-0.11 0.05,-0.21 0.09,-0.31c0.04,-0.1 0.09,-0.19 0.15,-0.28c0.06,-0.09 0.13,-0.17 0.21,-0.25c0.07,-0.08 0.16,-0.15 0.25,-0.21c0.09,-0.06 0.18,-0.11 0.28,-0.15c0.1,-0.04 0.2,-0.07 0.31,-0.09c0.11,-0.02 0.21,-0.03 0.32,-0.03h0.55l0,-4.65c0,-0.11 0.02,-0.21 0.06,-0.31c0.04,-0.1 0.1,-0.19 0.18,-0.27c0.08,-0.08 0.17,-0.14 0.27,-0.18c0.1,-0.04 0.21,-0.06 0.31,-0.06l5.74,0c0.13,0.01 0.26,0.02 0.38,0.05c0.13,0.03 0.25,0.07 0.37,0.12c0.12,0.05 0.23,0.11 0.34,0.18c0.11,0.07 0.21,0.15 0.31,0.23l1.3,1.3c0.09,0.1 0.16,0.2 0.23,0.31c0.07,0.11 0.13,0.22 0.18,0.34c0.05,0.12 0.09,0.24 0.12,0.37c0.03,0.13 0.05,0.25 0.05,0.38v2.19h0.55c0.11,0 0.22,0.01 0.32,0.03c0.11,0.02 0.21,0.05 0.31,0.09c0.1,0.04 0.19,0.09 0.28,0.15c0.09,0.06 0.17,0.13 0.25,0.21zM10.94,9.85h-7.66v2.19h7.66zM10.94,6.56v-3.28h-1.37c-0.11,0 -0.21,-0.02 -0.31,-0.06c-0.1,-0.04 -0.19,-0.1 -0.27,-0.18c-0.08,-0.08 -0.14,-0.17 -0.18,-0.27c-0.04,-0.1 -0.06,-0.21 -0.06,-0.31v-1.37h-5.47v5.47h7.66zM12.97,7.5c0.03,-0.02 0.05,-0.05 0.07,-0.08c0.02,-0.03 0.04,-0.06 0.05,-0.09c0.01,-0.03 0.02,-0.07 0.03,-0.1c0.01,-0.04 0.01,-0.07 0.01,-0.11c0,-0.25 -0.18,-0.47 -0.43,-0.52c-0.25,-0.05 -0.5,0.08 -0.6,0.32c-0.1,0.23 -0.02,0.51 0.19,0.65c0.21,0.14 0.49,0.12 0.68,-0.06z" />
	</g>
</svg>