<svg xmlns="http://www.w3.org/2000/svg" width="15.143" height="9.65" viewBox="0 0 15.143 9.65"><g transform="translate(0 -92.837)"><g transform="translate(0 92.835)"><g transform="translate(0 0)"><path d="M15.046,97.366c-.135-.185-3.358-4.531-7.475-4.531S.231,97.181.1,97.366a.5.5,0,0,0,0,.589c.135.185,3.358,4.531,7.475,4.531s7.34-4.346,7.475-4.531A.5.5,0,0,0,15.046,97.366Zm-7.475,4.122c-3.032,0-5.658-2.884-6.436-3.827.776-.944,3.4-3.827,6.436-3.827s5.658,2.884,6.436,3.827C13.23,98.6,10.61,101.488,7.571,101.488Z" transform="translate(0 -92.835)" fill="#434b5d"/></g></g><g transform="translate(4.576 94.665)"><g transform="translate(0 0)"><path d="M157.717,154.725a3,3,0,1,0,3,3A3,3,0,0,0,157.717,154.725Z" transform="translate(-154.722 -154.725)" fill="#434b5d"/></g></g></g></svg>