<svg xmlns="http://www.w3.org/2000/svg" xmlns:xlink="http://www.w3.org/1999/xlink" width="380" height="206" viewBox="0 0 380 206"><defs><clipPath id="a"><rect width="380" height="206" transform="translate(289 164)" fill="none"/></clipPath><filter id="b" x="-15" y="-63" width="410" height="287" filterUnits="userSpaceOnUse"><feOffset dy="3" input="SourceAlpha"/><feGaussianBlur stdDeviation="5" result="c"/><feFlood flood-opacity="0.102"/><feComposite operator="in" in2="c"/><feComposite in="SourceGraphic"/></filter></defs><g transform="translate(-289 -164)" clip-path="url(#a)"><g transform="matrix(1, 0, 0, 1, 289, 164)" filter="url(#b)"><rect width="380" height="257" transform="translate(0 -51)" fill="transparent"/></g><g transform="translate(290.699 166.012)"><rect width="337.797" height="168.742" transform="translate(19.083 13)" fill="#fff"/><g transform="translate(18.301 13)"><g transform="translate(0 55.931)"><g fill="#00b0ff" stroke="#707070" stroke-width="1.5" opacity="0.19"><rect width="57.65" height="57.65" stroke="none"/><rect x="0.75" y="0.75" width="56.15" height="56.15" fill="none"/></g><g fill="none" stroke="#00b0ff" stroke-width="1.5"><rect width="57.65" height="57.65" stroke="none"/><rect x="0.75" y="0.75" width="56.15" height="56.15" fill="none"/></g><g transform="translate(112.737)" fill="#00b0ff" stroke="#707070" stroke-width="1.5" opacity="0.8"><rect width="57.65" height="57.65" stroke="none"/><rect x="0.75" y="0.75" width="56.15" height="56.15" fill="none"/></g><g transform="translate(112.737)" fill="none" stroke="#00b0ff" stroke-width="1.5"><rect width="57.65" height="57.65" stroke="none"/><rect x="0.75" y="0.75" width="56.15" height="56.15" fill="none"/></g><g transform="translate(225.475)" fill="#00b0ff" stroke="#707070" stroke-width="1.5" opacity="0.8"><rect width="57.65" height="57.65" stroke="none"/><rect x="0.75" y="0.75" width="56.15" height="56.15" fill="none"/></g><g transform="translate(225.475)" fill="none" stroke="#00b0ff" stroke-width="1.5"><rect width="57.65" height="57.65" stroke="none"/><rect x="0.75" y="0.75" width="56.15" height="56.15" fill="none"/></g><g transform="translate(56.369)" fill="#00b0ff" stroke="#707070" stroke-width="1.5" opacity="0.8"><rect width="57.65" height="57.65" stroke="none"/><rect x="0.75" y="0.75" width="56.15" height="56.15" fill="none"/></g><g transform="translate(56.369)" fill="none" stroke="#00b0ff" stroke-width="1.5"><rect width="57.65" height="57.65" stroke="none"/><rect x="0.75" y="0.75" width="56.15" height="56.15" fill="none"/></g><g transform="translate(169.106)" fill="#00b0ff" stroke="#707070" stroke-width="1.5" opacity="0.19"><rect width="57.65" height="57.65" stroke="none"/><rect x="0.75" y="0.75" width="56.15" height="56.15" fill="none"/></g><g transform="translate(169.106)" fill="none" stroke="#00b0ff" stroke-width="1.5"><rect width="57.65" height="57.65" stroke="none"/><rect x="0.75" y="0.75" width="56.15" height="56.15" fill="none"/></g><g transform="translate(281.844)" fill="#00b0ff" stroke="#707070" stroke-width="1.5" opacity="0.19"><rect width="57.65" height="57.65" stroke="none"/><rect x="0.75" y="0.75" width="56.15" height="56.15" fill="none"/></g><g transform="translate(281.844)" fill="none" stroke="#00b0ff" stroke-width="1.5"><rect width="57.65" height="57.65" stroke="none"/><rect x="0.75" y="0.75" width="56.15" height="56.15" fill="none"/></g></g><g transform="translate(0 111.862)"><g fill="#00b0ff" stroke="#707070" stroke-width="1.5" opacity="0.19"><rect width="57.65" height="57.65" stroke="none"/><rect x="0.75" y="0.75" width="56.15" height="56.15" fill="none"/></g><g fill="none" stroke="#00b0ff" stroke-width="1.5"><rect width="57.65" height="57.65" stroke="none"/><rect x="0.75" y="0.75" width="56.15" height="56.15" fill="none"/></g><g transform="translate(112.737)" fill="#00b0ff" stroke="#707070" stroke-width="1.5" opacity="0.19"><rect width="57.65" height="57.65" stroke="none"/><rect x="0.75" y="0.75" width="56.15" height="56.15" fill="none"/></g><g transform="translate(112.737)" fill="none" stroke="#00b0ff" stroke-width="1.5"><rect width="57.65" height="57.65" stroke="none"/><rect x="0.75" y="0.75" width="56.15" height="56.15" fill="none"/></g><g transform="translate(225.475)" fill="#00b0ff" stroke="#707070" stroke-width="1.5" opacity="0.19"><rect width="57.65" height="57.65" stroke="none"/><rect x="0.75" y="0.75" width="56.15" height="56.15" fill="none"/></g><g transform="translate(225.475)" fill="none" stroke="#00b0ff" stroke-width="1.5"><rect width="57.65" height="57.65" stroke="none"/><rect x="0.75" y="0.75" width="56.15" height="56.15" fill="none"/></g><g transform="translate(56.369)" fill="#00b0ff" stroke="#707070" stroke-width="1.5" opacity="0.19"><rect width="57.65" height="57.65" stroke="none"/><rect x="0.75" y="0.75" width="56.15" height="56.15" fill="none"/></g><g transform="translate(56.369)" fill="none" stroke="#00b0ff" stroke-width="1.5"><rect width="57.65" height="57.65" stroke="none"/><rect x="0.75" y="0.75" width="56.15" height="56.15" fill="none"/></g><g transform="translate(169.106)" fill="#00b0ff" stroke="#707070" stroke-width="1.5" opacity="0.19"><rect width="57.65" height="57.65" stroke="none"/><rect x="0.75" y="0.75" width="56.15" height="56.15" fill="none"/></g><g transform="translate(169.106)" fill="none" stroke="#00b0ff" stroke-width="1.5"><rect width="57.65" height="57.65" stroke="none"/><rect x="0.75" y="0.75" width="56.15" height="56.15" fill="none"/></g><g transform="translate(281.844)" fill="#00b0ff" stroke="#707070" stroke-width="1.5" opacity="0.19"><rect width="57.65" height="57.65" stroke="none"/><rect x="0.75" y="0.75" width="56.15" height="56.15" fill="none"/></g><g transform="translate(281.844)" fill="none" stroke="#00b0ff" stroke-width="1.5"><rect width="57.65" height="57.65" stroke="none"/><rect x="0.75" y="0.75" width="56.15" height="56.15" fill="none"/></g></g><g fill="#00b0ff" stroke="#707070" stroke-width="1.5" opacity="0.19"><rect width="57.65" height="57.65" stroke="none"/><rect x="0.75" y="0.75" width="56.15" height="56.15" fill="none"/></g><g fill="none" stroke="#00b0ff" stroke-width="1.5"><rect width="57.65" height="57.65" stroke="none"/><rect x="0.75" y="0.75" width="56.15" height="56.15" fill="none"/></g><g transform="translate(112.737)" fill="#00b0ff" stroke="#707070" stroke-width="1.5" opacity="0.8"><rect width="57.65" height="57.65" stroke="none"/><rect x="0.75" y="0.75" width="56.15" height="56.15" fill="none"/></g><g transform="translate(112.737)" fill="none" stroke="#00b0ff" stroke-width="1.5"><rect width="57.65" height="57.65" stroke="none"/><rect x="0.75" y="0.75" width="56.15" height="56.15" fill="none"/></g><g transform="translate(225.475)" fill="#00b0ff" stroke="#707070" stroke-width="1.5" opacity="0.19"><rect width="57.65" height="57.65" stroke="none"/><rect x="0.75" y="0.75" width="56.15" height="56.15" fill="none"/></g><g transform="translate(225.475)" fill="none" stroke="#00b0ff" stroke-width="1.5"><rect width="57.65" height="57.65" stroke="none"/><rect x="0.75" y="0.75" width="56.15" height="56.15" fill="none"/></g><g transform="translate(56.369)" fill="#00b0ff" stroke="#707070" stroke-width="1.5" opacity="0.8"><rect width="57.65" height="57.65" stroke="none"/><rect x="0.75" y="0.75" width="56.15" height="56.15" fill="none"/></g><g transform="translate(56.369)" fill="none" stroke="#00b0ff" stroke-width="1.5"><rect width="57.65" height="57.65" stroke="none"/><rect x="0.75" y="0.75" width="56.15" height="56.15" fill="none"/></g><g transform="translate(169.106)" fill="#00b0ff" stroke="#707070" stroke-width="1.5" opacity="0.19"><rect width="57.65" height="57.65" stroke="none"/><rect x="0.75" y="0.75" width="56.15" height="56.15" fill="none"/></g><g transform="translate(169.106)" fill="none" stroke="#00b0ff" stroke-width="1.5"><rect width="57.65" height="57.65" stroke="none"/><rect x="0.75" y="0.75" width="56.15" height="56.15" fill="none"/></g><g transform="translate(281.844)" fill="#00b0ff" stroke="#707070" stroke-width="1.5" opacity="0.8"><rect width="57.65" height="57.65" stroke="none"/><rect x="0.75" y="0.75" width="56.15" height="56.15" fill="none"/></g><g transform="translate(281.844)" fill="none" stroke="#00b0ff" stroke-width="1.5"><rect width="57.65" height="57.65" stroke="none"/><rect x="0.75" y="0.75" width="56.15" height="56.15" fill="none"/></g></g></g></g></svg>
