<svg xmlns="http://www.w3.org/2000/svg" xmlns:xlink="http://www.w3.org/1999/xlink" width="380" height="206" viewBox="0 0 380 206"><defs><clipPath id="a"><rect width="380" height="206" transform="translate(289 164)" fill="none"/></clipPath><filter id="b" x="-15" y="-63" width="410" height="287" filterUnits="userSpaceOnUse"><feOffset dy="3" input="SourceAlpha"/><feGaussianBlur stdDeviation="5" result="c"/><feFlood flood-opacity="0.102"/><feComposite operator="in" in2="c"/><feComposite in="SourceGraphic"/></filter><filter id="d" x="5" y="2" width="370.676" height="200.921" filterUnits="userSpaceOnUse"><feOffset dy="3" input="SourceAlpha"/><feGaussianBlur stdDeviation="5" result="e"/><feFlood flood-opacity="0.161"/><feComposite operator="in" in2="e"/><feComposite in="SourceGraphic"/></filter></defs><g transform="translate(-289 -164)" clip-path="url(#a)"><g transform="matrix(1, 0, 0, 1, 289, 164)" filter="url(#b)"><rect width="380" height="257" transform="translate(0 -51)" fill="transparent"/></g><g transform="translate(16357 112)"><g transform="matrix(1, 0, 0, 1, -16068, 52)" filter="url(#d)"><rect width="340.676" height="170.921" rx="5" transform="translate(20 14)" fill="#fff"/></g><g transform="translate(-16040.617 75.434)" opacity="0.86"><text transform="translate(320.116 33.252)" fill="#fff" font-size="7" font-family="OpenSans-Light, Open Sans" font-weight="300"><tspan x="-2.174" y="0">C</tspan></text><text transform="translate(319.526 84.755)" fill="#fff" font-size="6" font-family="OpenSans-Light, Open Sans" font-weight="300"><tspan x="-1.494" y="0">x</tspan></text><text transform="translate(320.116 138.259)" fill="#fff" font-size="7" font-family="OpenSans-Light, Open Sans" font-weight="300"><tspan x="-1.998" y="0">+</tspan></text><text transform="translate(320.116 59.503)" fill="#fff" font-size="7" font-family="OpenSans-Light, Open Sans" font-weight="300"><tspan x="-1.998" y="0">÷</tspan></text><text transform="translate(319.936 112.007)" fill="#fff" font-size="7" font-family="OpenSans-Light, Open Sans" font-weight="300"><tspan x="-1.126" y="0">-</tspan></text><text transform="translate(240.488 29.252)" fill="#fff" font-size="3" font-family="OpenSans-Light, Open Sans" font-weight="300"><tspan x="-0.408" y="0">)</tspan></text><text transform="translate(242.11 85.755)" fill="#fff" font-size="7" font-family="OpenSans, Open Sans"><tspan x="-2.001" y="0">5</tspan></text><text transform="translate(240.488 135.259)" fill="#fff" font-size="4" font-family="OpenSans-Light, Open Sans" font-weight="300"><tspan x="-0.476" y="0">.</tspan></text><text transform="translate(242.11 59.503)" fill="#fff" font-size="7" font-family="OpenSans, Open Sans"><tspan x="-2.001" y="0">8</tspan></text><text transform="translate(242.11 112.007)" fill="#fff" font-size="7" font-family="OpenSans, Open Sans"><tspan x="-2.001" y="0">2</tspan></text><text transform="translate(293.223 31.252)" fill="#fff" font-size="5" font-family="OpenSans-Light, Open Sans" font-weight="300"><tspan x="-2.932" y="0">CE</tspan></text><text transform="translate(293.864 85.755)" fill="#fff" font-size="7" font-family="OpenSans, Open Sans"><tspan x="-2.001" y="0">6</tspan></text><text transform="translate(293.864 138.259)" fill="#fff" font-size="7" font-family="OpenSans-Light, Open Sans" font-weight="300"><tspan x="-1.998" y="0">=</tspan></text><text transform="translate(293.864 59.503)" fill="#fff" font-size="7" font-family="OpenSans, Open Sans"><tspan x="-2.001" y="0">9</tspan></text><text transform="translate(293.864 112.007)" fill="#fff" font-size="7" font-family="OpenSans, Open Sans"><tspan x="-2.001" y="0">3</tspan></text><text transform="translate(201.719 29.252)" fill="#fff" font-size="3" font-family="OpenSans-Light, Open Sans" font-weight="300"><tspan x="-0.408" y="0">(</tspan></text><text transform="translate(164.105 33.252)" fill="#fff" font-size="7" font-family="OpenSans-Light, Open Sans" font-weight="300"><tspan x="-1.998" y="0">±</tspan></text><text transform="translate(125.102 33.252)" fill="#fff" font-size="7" font-family="OpenSans-Light, Open Sans" font-weight="300"><tspan x="-2.141" y="0">π</tspan></text><text transform="translate(124.036 5)" fill="#fff" font-size="5" font-family="OpenSans-Light, Open Sans" font-weight="300"><tspan x="-2.961" y="0">M-</tspan></text><text transform="translate(31.662 32.252)" fill="#fff" font-size="6" font-family="OpenSans-Light, Open Sans" font-weight="300"><tspan x="-5.333" y="0">Deg</tspan></text><text transform="translate(31.482 6)" fill="#fff" font-size="6" font-family="OpenSans-Light, Open Sans" font-weight="300"><tspan x="-4.371" y="0">MR</tspan></text><text transform="translate(5.231 6)" fill="#fff" font-size="6" font-family="OpenSans-Light, Open Sans" font-weight="300"><tspan x="-4.452" y="0">MC</tspan></text><text transform="translate(85.49 32.252)" fill="#fff" font-size="6" font-family="OpenSans-Light, Open Sans" font-weight="300"><tspan x="-2.421" y="0">%</tspan></text><text transform="translate(84.944 6)" fill="#fff" font-size="6" font-family="OpenSans-Light, Open Sans" font-weight="300"><tspan x="-4.301" y="0">M+</tspan></text><text transform="translate(203.108 85.755)" fill="#fff" font-size="7" font-family="OpenSans, Open Sans"><tspan x="-2.001" y="0">4</tspan></text><text transform="translate(163.435 84.755)" fill="#fff" font-size="6" font-family="OpenSans-Light, Open Sans" font-weight="300"><tspan x="-4.005" y="0">log</tspan></text><text transform="translate(124.337 83.755)" fill="#fff" font-size="5" font-family="OpenSans-Light, Open Sans" font-weight="300"><tspan x="-1.372" y="0">e</tspan></text><text transform="translate(31.892 84.755)" fill="#fff" font-size="6" font-family="OpenSans-Light, Open Sans" font-weight="300"><tspan x="-4.148" y="0">³√x</tspan></text><text transform="translate(5.871 84.755)" fill="#fff" font-size="6" font-family="OpenSans-Light, Open Sans" font-weight="300"><tspan x="-3.141" y="0">√x</tspan></text><text transform="translate(85.525 84.755)" fill="#fff" font-size="6" font-family="OpenSans-Light, Open Sans" font-weight="300" opacity="0.3"><tspan x="-3.141" y="0">√x</tspan></text><text transform="translate(203.108 138.259)" fill="#fff" font-size="7" font-family="OpenSans, Open Sans"><tspan x="-2.001" y="0">0</tspan></text><text transform="translate(163.652 137.259)" fill="#fff" font-size="6" font-family="OpenSans-Light, Open Sans" font-weight="300"><tspan x="-6.927" y="0">Rand</tspan></text><text transform="translate(124.493 137.259)" fill="#fff" font-size="6" font-family="OpenSans-Light, Open Sans" font-weight="300" opacity="0.3"><tspan x="-2.215" y="0">x!</tspan></text><text transform="translate(31.431 137.259)" fill="#fff" font-size="6" font-family="OpenSans-Light, Open Sans" font-weight="300"><tspan x="-6.35" y="0">cosh</tspan></text><text transform="translate(6 137.259)" fill="#fff" font-size="6" font-family="OpenSans-Light, Open Sans" font-weight="300"><tspan x="-5.615" y="0">sinh</tspan></text><text transform="translate(84.378 137.259)" fill="#fff" font-size="6" font-family="OpenSans-Light, Open Sans" font-weight="300"><tspan x="-6.133" y="0">tanh</tspan></text><text transform="translate(203.108 59.503)" fill="#fff" font-size="7" font-family="OpenSans, Open Sans"><tspan x="-2.001" y="0">7</tspan></text><text transform="translate(162.886 58.503)" fill="#fff" font-size="6" font-family="OpenSans-Light, Open Sans" font-weight="300"><tspan x="-2.448" y="0">ln</tspan></text><text transform="translate(123.883 57.503)" fill="#fff" font-size="5" font-family="OpenSans-Light, Open Sans" font-weight="300" opacity="0.3"><tspan x="-2.085" y="0">x²</tspan></text><text transform="translate(31.892 58.503)" fill="#fff" font-size="6" font-family="OpenSans-Light, Open Sans" font-weight="300"><tspan x="-4.229" y="0">1/x</tspan></text><text transform="translate(2 59.503)" fill="#fff" font-size="7" font-family="OpenSans-Light, Open Sans" font-weight="300"><tspan x="-1.998" y="0">2</tspan></text><text transform="translate(6.102 55.273)" fill="#fff" font-size="4" font-family="OpenSans-Light, Open Sans" font-weight="300"><tspan x="-2.37" y="0">nd</tspan></text><text transform="translate(85.525 58.503)" fill="#fff" font-size="6" font-family="OpenSans-Light, Open Sans" font-weight="300" opacity="0.3"><tspan x="-3.053" y="0" xml:space="preserve">x  </tspan></text><text transform="translate(88.491 56.273)" fill="#fff" font-size="5" font-family="OpenSans-Light, Open Sans" font-weight="300" opacity="0.3"><tspan x="-1.147" y="0">y</tspan></text><text transform="translate(203.108 112.007)" fill="#fff" font-size="7" font-family="OpenSans, Open Sans"><tspan x="-2.001" y="0">1</tspan></text><text transform="translate(163.711 111.007)" fill="#fff" font-size="6" font-family="OpenSans-Light, Open Sans" font-weight="300" opacity="0.3"><tspan x="-4.8" y="0">nCr</tspan></text><text transform="translate(124.341 112.007)" fill="#fff" font-size="7" font-family="OpenSans-Light, Open Sans" font-weight="300" opacity="0.3"><tspan x="-5.474" y="0">nPr</tspan></text><text transform="translate(31.482 110.007)" fill="#fff" font-size="5" font-family="OpenSans-Light, Open Sans" font-weight="300"><tspan x="-3.817" y="0">cos</tspan></text><text transform="translate(6.051 112.007)" fill="#fff" font-size="7" font-family="OpenSans-Light, Open Sans" font-weight="300"><tspan x="-4.486" y="0">sin</tspan></text><text transform="translate(84.33 111.007)" fill="#fff" font-size="6" font-family="OpenSans-Light, Open Sans" font-weight="300"><tspan x="-4.364" y="0">tan</tspan></text></g><g transform="translate(-16059 8)"><text transform="translate(36 91)" fill="#434b5d" font-size="14" font-family="OpenSans-SemiBold, Open Sans" font-weight="600"><tspan x="3.88" y="15" xml:space="preserve">There are loads of  reasons  to eat organic </tspan><tspan x="1.252" y="43">food. The term &quot;organic&quot; indicates that the </tspan><tspan x="1.518" y="71" xml:space="preserve">food  has  been  grown  without  pesticides </tspan><tspan x="80.497" y="99">or other chemicals.</tspan></text></g><g transform="translate(0 -1)"><g transform="translate(-15894 100.086)" fill="none" stroke="#fdcc3b" stroke-width="1"><rect width="61.731" height="21.914" stroke="none"/><rect x="0.5" y="0.5" width="60.731" height="20.914" fill="none"/></g><rect width="61.731" height="21.914" transform="translate(-15894 100.086)" fill="#fdcc3b" opacity="0.19"/></g><g transform="translate(-93 54)"><g transform="translate(-15894 100.086)" fill="none" stroke="#fdcc3b" stroke-width="1"><rect width="31.088" height="21.914" stroke="none"/><rect x="0.5" y="0.5" width="30.088" height="20.914" fill="none"/></g><rect width="31.088" height="21.914" transform="translate(-15894 100.086)" fill="#fdcc3b" opacity="0.19"/></g><g transform="translate(-60 54)"><g transform="translate(-15894 100.086)" fill="none" stroke="#fdcc3b" stroke-width="1"><rect width="38.602" height="21.914" stroke="none"/><rect x="0.5" y="0.5" width="37.602" height="20.914" fill="none"/></g><rect width="38.602" height="21.914" transform="translate(-15894 100.086)" fill="#fdcc3b" opacity="0.19"/></g><g transform="translate(-19 54)"><g transform="translate(-15894 100.086)" fill="none" stroke="#fdcc3b" stroke-width="1"><rect width="47.043" height="21.914" stroke="none"/><rect x="0.5" y="0.5" width="46.043" height="20.914" fill="none"/></g><rect width="47.043" height="21.914" transform="translate(-15894 100.086)" fill="#fdcc3b" opacity="0.19"/></g><g transform="translate(90 54)"><g transform="translate(-15894 100.086)" fill="none" stroke="#fdcc3b" stroke-width="1"><rect width="72.426" height="21.914" stroke="none"/><rect x="0.5" y="0.5" width="71.426" height="20.914" fill="none"/></g><rect width="72.426" height="21.914" transform="translate(-15894 100.086)" fill="#fdcc3b" opacity="0.19"/></g></g></g></svg>
