<svg xmlns="http://www.w3.org/2000/svg" xmlns:xlink="http://www.w3.org/1999/xlink" width="380" height="206" viewBox="0 0 380 206"><defs><clipPath id="a"><rect width="380" height="206" transform="translate(289 164)" fill="none"/></clipPath><filter id="b" x="-15" y="-63" width="410" height="287" filterUnits="userSpaceOnUse"><feOffset dy="3" input="SourceAlpha"/><feGaussianBlur stdDeviation="5" result="c"/><feFlood flood-opacity="0.102"/><feComposite operator="in" in2="c"/><feComposite in="SourceGraphic"/></filter><filter id="d" x="5" y="2" width="370.676" height="200.921" filterUnits="userSpaceOnUse"><feOffset dy="3" input="SourceAlpha"/><feGaussianBlur stdDeviation="5" result="e"/><feFlood flood-opacity="0.161"/><feComposite operator="in" in2="e"/><feComposite in="SourceGraphic"/></filter></defs><g transform="translate(-289 -164)" clip-path="url(#a)"><g transform="matrix(1, 0, 0, 1, 289, 164)" filter="url(#b)"><rect width="380" height="257" transform="translate(0 -51)" fill="transparent"/></g><g transform="translate(16357 112)"><g transform="matrix(1, 0, 0, 1, -16068, 52)" filter="url(#d)"><rect width="340.676" height="170.921" rx="5" transform="translate(20 14)" fill="#fff"/></g><g transform="translate(-16357 -128.999)"><g transform="translate(323 286)"><g transform="translate(0 0)" fill="none" stroke="#e6e6e6" stroke-width="1"><rect width="312.959" height="24.09" rx="4" stroke="none"/><rect x="0.5" y="0.5" width="311.959" height="23.09" rx="3.5" fill="none"/></g><g transform="translate(5.269 9.598)"><rect width="6.141" height="1.12" transform="translate(0 4.479)" fill="#1fe3a1"/><rect width="6.141" height="1.12" transform="translate(0 2.273)" fill="#1fe3a1"/><rect width="6.141" height="1.12" fill="#1fe3a1"/></g><line y2="24.09" transform="translate(16.63 0.165)" fill="none" stroke="#e6e6e6" stroke-width="1"/></g><g transform="translate(323 251)"><g transform="translate(0 0)" fill="none" stroke="#e6e6e6" stroke-width="1"><rect width="312.959" height="24.09" rx="4" stroke="none"/><rect x="0.5" y="0.5" width="311.959" height="23.09" rx="3.5" fill="none"/></g><g transform="translate(5.269 9.598)"><rect width="6.141" height="1.12" transform="translate(0 4.479)" fill="#1fe3a1"/><rect width="6.141" height="1.12" transform="translate(0 2.273)" fill="#1fe3a1"/><rect width="6.141" height="1.12" fill="#1fe3a1"/></g><line y2="24.09" transform="translate(16.63 0.165)" fill="none" stroke="#e6e6e6" stroke-width="1"/></g><g transform="translate(323 321)"><g transform="translate(0 0)" fill="none" stroke="#e6e6e6" stroke-width="1"><rect width="312.959" height="24.09" rx="4" stroke="none"/><rect x="0.5" y="0.5" width="311.959" height="23.09" rx="3.5" fill="none"/></g><g transform="translate(5.269 9.598)"><rect width="6.141" height="1.12" transform="translate(0 4.479)" fill="#1fe3a1"/><rect width="6.141" height="1.12" transform="translate(0 2.273)" fill="#1fe3a1"/><rect width="6.141" height="1.12" fill="#1fe3a1"/></g><line y2="24.09" transform="translate(16.63 0.165)" fill="none" stroke="#e6e6e6" stroke-width="1"/></g><g transform="translate(323 216)"><g transform="translate(0 0)" fill="none" stroke="#e6e6e6" stroke-width="1"><rect width="312.959" height="24.09" rx="4" stroke="none"/><rect x="0.5" y="0.5" width="311.959" height="23.09" rx="3.5" fill="none"/></g><g transform="translate(5.269 9.598)"><rect width="6.141" height="1.12" transform="translate(0 4.479)" fill="#1fe3a1"/><rect width="6.141" height="1.12" transform="translate(0 2.273)" fill="#1fe3a1"/><rect width="6.141" height="1.12" fill="#1fe3a1"/></g><line y2="24.09" transform="translate(16.63 0.165)" fill="none" stroke="#e6e6e6" stroke-width="1"/><text transform="translate(59 16)" fill="#444" font-size="9" font-family="OpenSans-Bold, Open Sans" font-weight="700" letter-spacing="0.019em"><tspan x="-22.602" y="0">OPTION A</tspan></text></g><text transform="translate(382 267)" fill="#444" font-size="9" font-family="OpenSans-Bold, Open Sans" font-weight="700" letter-spacing="0.019em"><tspan x="-22.52" y="0">OPTION B</tspan></text><text transform="translate(382 302)" fill="#444" font-size="9" font-family="OpenSans-Bold, Open Sans" font-weight="700" letter-spacing="0.019em"><tspan x="-22.364" y="0">OPTION C</tspan></text><text transform="translate(382 337)" fill="#444" font-size="9" font-family="OpenSans-Bold, Open Sans" font-weight="700" letter-spacing="0.019em"><tspan x="-22.828" y="0">OPTION D</tspan></text></g></g></g></svg>
