<svg xmlns="http://www.w3.org/2000/svg" xmlns:xlink="http://www.w3.org/1999/xlink" width="380" height="206" viewBox="0 0 380 206"><defs><clipPath id="a"><rect width="380" height="206" transform="translate(289 164)" fill="none"/></clipPath><filter id="b" x="-15" y="-63" width="410" height="287" filterUnits="userSpaceOnUse"><feOffset dy="3" input="SourceAlpha"/><feGaussianBlur stdDeviation="5" result="c"/><feFlood flood-opacity="0.102"/><feComposite operator="in" in2="c"/><feComposite in="SourceGraphic"/></filter><filter id="d" x="5" y="2" width="370.676" height="200.921" filterUnits="userSpaceOnUse"><feOffset dy="3" input="SourceAlpha"/><feGaussianBlur stdDeviation="5" result="e"/><feFlood flood-opacity="0.161"/><feComposite operator="in" in2="e"/><feComposite in="SourceGraphic"/></filter></defs><g transform="translate(-289 -164)" clip-path="url(#a)"><g transform="matrix(1, 0, 0, 1, 289, 164)" filter="url(#b)"><rect width="380" height="257" transform="translate(0 -51)" fill="transparent"/></g><g transform="translate(16357 112)"><g transform="matrix(1, 0, 0, 1, -16068, 52)" filter="url(#d)"><rect width="340.676" height="170.921" rx="5" transform="translate(20 14)" fill="#fff"/></g><g transform="translate(-15140.272 -736.999)"><g transform="translate(-891.728 852.337)"><g transform="translate(0 -28.338)"><g transform="translate(0 0)" fill="none" stroke="#e6e6e6" stroke-width="1"><rect width="131.465" height="24.09" rx="4" stroke="none"/><rect x="0.5" y="0.5" width="130.465" height="23.09" rx="3.5" fill="none"/></g><g transform="translate(5.269 9.598)"><rect width="6.141" height="1.12" transform="translate(0 4.479)" fill="#1fe3a1"/><rect width="6.141" height="1.12" transform="translate(0 2.273)" fill="#1fe3a1"/><rect width="6.141" height="1.12" fill="#1fe3a1"/></g><line y2="24.09" transform="translate(16.63 0.165)" fill="none" stroke="#e6e6e6" stroke-width="1"/></g><g transform="translate(0 41.662)"><g transform="translate(0 0)" fill="none" stroke="#e6e6e6" stroke-width="1"><rect width="131.46" height="24.09" rx="4" stroke="none"/><rect x="0.5" y="0.5" width="130.46" height="23.09" rx="3.5" fill="none"/></g><g transform="translate(5.269 9.598)"><rect width="6.141" height="1.12" transform="translate(0 4.479)" fill="#1fe3a1"/><rect width="6.141" height="1.12" transform="translate(0 2.273)" fill="#1fe3a1"/><rect width="6.141" height="1.12" fill="#1fe3a1"/></g><line y2="24.09" transform="translate(16.63 0.165)" fill="none" stroke="#e6e6e6" stroke-width="1"/></g><g transform="translate(0 6.662)"><g transform="translate(0 0)" fill="none" stroke="#e6e6e6" stroke-width="1"><rect width="131.46" height="24.09" rx="4" stroke="none"/><rect x="0.5" y="0.5" width="130.46" height="23.09" rx="3.5" fill="none"/></g><g transform="translate(5.269 9.598)"><rect width="6.141" height="1.12" transform="translate(0 4.479)" fill="#1fe3a1"/><rect width="6.141" height="1.12" transform="translate(0 2.273)" fill="#1fe3a1"/><rect width="6.141" height="1.12" fill="#1fe3a1"/></g><line y2="24.09" transform="translate(16.63 0.165)" fill="none" stroke="#e6e6e6" stroke-width="1"/></g><g transform="translate(0 76.662)"><g transform="translate(0 0)" fill="none" stroke="#e6e6e6" stroke-width="1"><rect width="131.46" height="24.09" rx="4" stroke="none"/><rect x="0.5" y="0.5" width="130.46" height="23.09" rx="3.5" fill="none"/></g><g transform="translate(5.269 9.598)"><rect width="6.141" height="1.12" transform="translate(0 4.479)" fill="#1fe3a1"/><rect width="6.141" height="1.12" transform="translate(0 2.273)" fill="#1fe3a1"/><rect width="6.141" height="1.12" fill="#1fe3a1"/></g><line y2="24.09" transform="translate(16.63 0.165)" fill="none" stroke="#e6e6e6" stroke-width="1"/></g><g transform="translate(160.452 -28.338)" fill="none" stroke="#e6e6e6" stroke-width="1" stroke-dasharray="5 5"><rect width="131.46" height="24.094" rx="4" stroke="none"/><rect x="0.5" y="0.5" width="130.46" height="23.094" rx="3.5" fill="none"/></g><g transform="translate(160.452 41.662)" fill="none" stroke="#e6e6e6" stroke-width="1" stroke-dasharray="5 5"><rect width="131.46" height="24.094" rx="4" stroke="none"/><rect x="0.5" y="0.5" width="130.46" height="23.094" rx="3.5" fill="none"/></g><g transform="translate(160.452 6.662)" fill="none" stroke="#e6e6e6" stroke-width="1" stroke-dasharray="5 5"><rect width="131.46" height="24.094" rx="4" stroke="none"/><rect x="0.5" y="0.5" width="130.46" height="23.094" rx="3.5" fill="none"/></g><g transform="translate(160.452 76.662)" fill="none" stroke="#e6e6e6" stroke-width="1" stroke-dasharray="5 5"><rect width="131.46" height="24.094" rx="4" stroke="none"/><rect x="0.5" y="0.5" width="130.46" height="23.094" rx="3.5" fill="none"/></g><g transform="translate(149.676 33.129) rotate(90)"><g transform="translate(0 0)"><path d="M.322,2.9h4.5a.32.32,0,0,0,.226-.548L2.8.1a.316.316,0,0,0-.453,0L.1,2.348A.316.316,0,0,0,.1,2.8.309.309,0,0,0,.322,2.9Z" fill="#1fe3a1"/><path d="M4.827,0H.322A.309.309,0,0,0,.1.1.309.309,0,0,0,0,.322.309.309,0,0,0,.1.548L2.348,2.8a.316.316,0,0,0,.453,0L5.053.548a.309.309,0,0,0,.1-.226A.309.309,0,0,0,5.053.1.309.309,0,0,0,4.827,0Z" transform="translate(0 7.476)" fill="#1fe3a1"/></g></g><g transform="translate(307.821 40.919) rotate(180)"><g transform="translate(0 0)"><path d="M.322,2.9h4.5a.32.32,0,0,0,.226-.548L2.8.1a.316.316,0,0,0-.453,0L.1,2.348A.316.316,0,0,0,.1,2.8.309.309,0,0,0,.322,2.9Z" fill="#1fe3a1"/><path d="M4.827,0H.322A.309.309,0,0,0,.1.1.309.309,0,0,0,0,.322.309.309,0,0,0,.1.548L2.348,2.8a.316.316,0,0,0,.453,0L5.053.548a.309.309,0,0,0,.1-.226A.309.309,0,0,0,5.053.1.309.309,0,0,0,4.827,0Z" transform="translate(0 7.476)" fill="#1fe3a1"/></g></g></g></g></g></g></svg>
