<svg xmlns="http://www.w3.org/2000/svg" width="38" height="38" viewBox="0 0 38 38"><defs><style>.a{fill:#fdefef;}.b{fill:#f35f5f;}</style></defs><circle class="a" cx="19" cy="19" r="19"/><path class="b" d="M61.846,0a.842.842,0,0,1,.6.248l6.167,6.167L71.4,3.63a.846.846,0,0,1,1.2,0l8.7,8.751V11.049a.846.846,0,1,1,1.691,0v3.383h0a.845.845,0,0,1-.822.843H78.759a.846.846,0,1,1,0-1.691h1.349L71.992,5.425,69.209,8.208a.845.845,0,0,1-1.2,0L61.248,1.443A.846.846,0,0,1,61.846,0Zm0,0" transform="translate(-53 11.723)"/></svg>