<svg xmlns="http://www.w3.org/2000/svg" width="16.846" height="22" viewBox="0 0 16.846 22"><defs><style>.a{fill:#5eb500;}</style></defs><g transform="translate(-52.032 0)"><g transform="translate(52.032 0)"><path class="a" d="M67.178,255.152a1.625,1.625,0,0,0-.927-.791L63.728,253.2l-1.212-1.023-1.948,1.938h0l.841,5.62a.074.074,0,0,1-.013.055l-.879,1.2a.074.074,0,0,1-.12,0l-.879-1.2a.074.074,0,0,1-.014-.055l.841-5.621h0l-1.948-1.938L57.18,253.2l-2.524,1.162a1.64,1.64,0,0,0-.927.791s-2.743,6.531-1.255,6.531h15.96C69.922,261.684,67.178,255.152,67.178,255.152Z" transform="translate(-52.032 -239.683)"/><path class="a" d="M91.957,6.515a.141.141,0,0,0,.126-.156Q92.04,6,92,5.635l-.059-.5a.141.141,0,0,0-.152-.123h-.109l0-1.694.057-.021.19-.069a.407.407,0,0,0,0-.765L85.195.025a.407.407,0,0,0-.277,0L78.186,2.458a.407.407,0,0,0,0,.765l2.489.9a6.088,6.088,0,0,0-.248,1.9c.044,4.033,2.385,6.438,4.551,6.438,2.141,0,4.507-2.4,4.551-6.438A6.147,6.147,0,0,0,89.3,4.174l1.81-.654,0,1.487H91a.14.14,0,0,0-.152.124L90.706,6.36a.141.141,0,0,0,.03.1.138.138,0,0,0,.1.051m-5.855,4.963c-1.89,0-3.194-2.214-3.457-4.427C81.277,5,84.237,4.908,84.409,6.177c.053.39-.395.808-.344.969.25.8,4.4-2.6,4.37-.1C88.415,8.814,86.778,11.478,84.977,11.478Z" transform="translate(-76.635 0)"/></g></g></svg>