<svg xmlns="http://www.w3.org/2000/svg" width="28.566" height="16.568" viewBox="0 0 28.566 16.568"><g transform="translate(0 -37.824)"><g transform="translate(0 37.825)"><path d="M26.842,44.23l1.724-.689-14.3-5.716L0,43.541l6.752,2.706v3.972c0,1.225.859,2.328,2.417,3.108a11.654,11.654,0,0,0,5.1,1.066,11.654,11.654,0,0,0,5.1-1.066c1.559-.779,2.417-1.883,2.417-3.108V46.254L25.173,44.9Zm-6.734,5.989c0,1.182-2.5,2.5-5.843,2.5s-5.843-1.322-5.843-2.5v-3.3l5.843,2.342,5.844-2.336v3.3Zm-5.843-2.76L4.488,43.541l9.777-3.918,9.8,3.918Z" transform="translate(0 -37.825)" fill="#4aac8b"/></g></g></svg>