<svg xmlns="http://www.w3.org/2000/svg" width="38" height="38" viewBox="0 0 38 38"><defs><style>.a{fill:#fdefef;}.b{fill:#f35f5f;}</style></defs><g transform="translate(-513 -159)"><circle class="a" cx="19" cy="19" r="19" transform="translate(513 159)"/><g transform="translate(392.396 170)"><g transform="translate(137.603)"><path class="b" d="M148.627,301.5h-1.96a.413.413,0,0,0-.345.224.952.952,0,0,0-.145.53v2.64a.954.954,0,0,0,.145.531.414.414,0,0,0,.345.224h1.96a.414.414,0,0,0,.345-.224.955.955,0,0,0,.145-.531v-2.64a.953.953,0,0,0-.146-.53A.413.413,0,0,0,148.627,301.5Z" transform="translate(-145.823 -289.051)"/><path class="b" d="M141.107.224A.438.438,0,0,0,140.742,0h-2.629a.438.438,0,0,0-.366.224.879.879,0,0,0-.144.531l.23,9.053a.932.932,0,0,0,.168.53.457.457,0,0,0,.374.224h2.1a.458.458,0,0,0,.374-.224.934.934,0,0,0,.168-.53l.23-9.053A.877.877,0,0,0,141.107.224Z" transform="translate(-137.603 0)"/></g></g></g></svg>