<svg xmlns="http://www.w3.org/2000/svg" width="21.096" height="18.459" viewBox="0 0 21.096 18.459"><g transform="translate(0 -32)"><g transform="translate(0 32)"><path d="M20.436,32H.659A.659.659,0,0,0,0,32.659V35.3a.659.659,0,0,0,.659.659h.659v9.229A1.321,1.321,0,0,0,2.637,46.5H9.889v1.624L8.2,49.251a.659.659,0,1,0,.73,1.1l1.613-1.075,1.613,1.075a.659.659,0,1,0,.732-1.1l-1.685-1.123V46.5h7.252a1.321,1.321,0,0,0,1.318-1.318V35.955h.659A.659.659,0,0,0,21.1,35.3V32.659A.659.659,0,0,0,20.436,32ZM18.459,45.185H2.637V35.955H18.459Zm1.318-10.548H1.318V33.318H19.777Z" transform="translate(0 -32)" fill="#12a6e8"/></g></g></svg>