<svg xmlns="http://www.w3.org/2000/svg" width="25.079" height="34.484" viewBox="0 0 25.079 34.484"><g transform="translate(-15556 416.721) rotate(180)"><path d="M0,0H22" transform="translate(-15578 401.5)" fill="none" stroke="#707070" stroke-width="2"/><path d="M7.8,64.164a.423.423,0,0,0-.349-.211H.5a.423.423,0,0,0-.35.211.919.919,0,0,0,0,1l3.479,4.97a.395.395,0,0,0,.7,0L7.8,65.162a.918.918,0,0,0,0-1Z" transform="translate(-15510.735 397.564) rotate(90)" fill="#7c8184"/><path d="M-1.172-4.414l-2.9-4.227h2.094L-.008-5.617,1.977-8.641H4.055L1.148-4.414,4.2,0H2.125L-.008-3.234-2.133,0H-4.211ZM-4.289,13.359h2l1.758,4.9A9.294,9.294,0,0,1,0,20.227H.063A8.212,8.212,0,0,1,.32,19.184Q.508,18.57,2.3,13.359H4.289l-3.7,9.789q-1.008,2.7-3.359,2.7a5.287,5.287,0,0,1-1.187-.133V24.258a4.3,4.3,0,0,0,.945.094,1.936,1.936,0,0,0,1.867-1.539L-.82,22Z" transform="translate(-15568.078 408.08) rotate(-180)" fill="#707070"/></g></svg>