<svg xmlns="http://www.w3.org/2000/svg" width="14" height="48" viewBox="0 0 14 48"><g transform="translate(15579 -205)"><path d="M-4.547,0l.3-1.484,4.2-4.391-2.3-4.094.3-1.453H4.844l-.336,1.6H-.3L1.969-5.742-1.969-1.586h5.18L2.875,0Z" transform="translate(-15572 234)" fill="#707070"/><g transform="translate(-15579 238)" fill="none" stroke-dasharray="2 1"><path d="M0,0H14V15H0Z" stroke="none"/><path d="M 3 0 L 5 0 L 5 1 L 3 1 L 3 0 Z M 6 0 L 8 0 L 8 1 L 6 1 L 6 0 Z M 9 0 L 11 0 L 11 1 L 9 1 L 9 0 Z M 12 0 L 14 0 L 14 1 L 14 1 C 14 1 14 3 14 3 L 13 3 L 13 1 L 12 1 L 12 0 Z M 13 4 L 14 4 C 14 4 14 6 14 6 L 13 6 L 13 4 Z M 13 7 L 14 7 C 14 7 14 9 14 9 L 13 9 L 13 7 Z M 13 10 L 14 10 C 14 10 14 12 14 12 L 13 12 L 13 10 Z M 13 13 L 14 13 C 14 13 14 15 14 15 L 13 15 L 13 13 Z M 11 14 L 13 14 L 13 15 C 13 15 11 15 11 15 L 11 14 Z M 8 14 L 10 14 L 10 15 C 10 15 8 15 8 15 L 8 14 Z M 5 14 L 7 14 L 7 15 C 7 15 5 15 5 15 L 5 14 Z M 2 14 L 4 14 L 4 15 C 4 15 2 15 2 15 L 2 14 Z M 0 14 L 1 14 L 1 14 L 1 14 L 1 15 C 1 15 0 15 0 15 L 0 14 Z M 0 11 L 1 11 L 1 13 L 0 13 L 0 11 Z M 0 8 L 1 8 L 1 10 L 0 10 L 0 8 Z M 0 5 L 1 5 L 1 7 L 0 7 L 0 5 Z M 0 2 L 1 2 L 1 4 L 0 4 L 0 2 Z M 0 0 L 2 0 L 2 1 L 0 1 L 0 0 Z" stroke="none" fill="#707070"/></g><g transform="translate(-15579 205)" fill="none" stroke-dasharray="2 1"><path d="M0,0H14V15H0Z" stroke="none"/><path d="M 3 0 L 5 0 L 5 1 L 3 1 L 3 0 Z M 6 0 L 8 0 L 8 1 L 6 1 L 6 0 Z M 9 0 L 11 0 L 11 1 L 9 1 L 9 0 Z M 12 0 L 14 0 L 14 1 L 14 1 C 14 1 14 3 14 3 L 13 3 L 13 1 L 12 1 L 12 0 Z M 13 4 L 14 4 C 14 4 14 6 14 6 L 13 6 L 13 4 Z M 13 7 L 14 7 C 14 7 14 9 14 9 L 13 9 L 13 7 Z M 13 10 L 14 10 C 14 10 14 12 14 12 L 13 12 L 13 10 Z M 13 13 L 14 13 C 14 13 14 15 14 15 L 13 15 L 13 13 Z M 11 14 L 13 14 L 13 15 C 13 15 11 15 11 15 L 11 14 Z M 8 14 L 10 14 L 10 15 C 10 15 8 15 8 15 L 8 14 Z M 5 14 L 7 14 L 7 15 C 7 15 5 15 5 15 L 5 14 Z M 2 14 L 4 14 L 4 15 C 4 15 2 15 2 15 L 2 14 Z M 0 14 L 1 14 L 1 14 L 1 14 L 1 15 C 1 15 0 15 0 15 L 0 14 Z M 0 11 L 1 11 L 1 13 L 0 13 L 0 11 Z M 0 8 L 1 8 L 1 10 L 0 10 L 0 8 Z M 0 5 L 1 5 L 1 7 L 0 7 L 0 5 Z M 0 2 L 1 2 L 1 4 L 0 4 L 0 2 Z M 0 0 L 2 0 L 2 1 L 0 1 L 0 0 Z" stroke="none" fill="#707070"/></g></g></svg>