<svg xmlns="http://www.w3.org/2000/svg" width="30.559" height="17.125" viewBox="0 0 30.559 17.125"><g transform="translate(15589.059 -221.875)"><path d="M1.895-4.383A11.773,11.773,0,0,1,1.289-.555,9.157,9.157,0,0,1-.457,2.531H-2.043A11.212,11.212,0,0,0-.391-.711,11.944,11.944,0,0,0,.184-4.4a12.227,12.227,0,0,0-.578-3.73,11.3,11.3,0,0,0-1.664-3.293h1.6a9.584,9.584,0,0,1,1.75,3.176A12.164,12.164,0,0,1,1.895-4.383Z" transform="translate(-15587 234)" fill="#707070"/><g transform="translate(-15584 224)" fill="none" stroke-dasharray="2 1"><path d="M0,0H24V15H0Z" stroke="none"/><path d="M 0 0 L 2 0 L 2 1 L 1 1 L 1 3 L 0 3 L 0 0 Z M 3 0 L 5 0 L 5 1 L 3 1 L 3 0 Z M 6 0 L 8 0 L 8 1 L 6 1 L 6 0 Z M 9 0 L 11 0 L 11 1 L 9 1 L 9 0 Z M 12 0 L 14 0 L 14 1 L 12 1 L 12 0 Z M 15 0 L 17 0 L 17 1 L 15 1 L 15 0 Z M 18 0 L 20 0 L 20 1 L 18 1 L 18 0 Z M 21 0 L 24 0 C 24 0 24 2 24 2 L 23 2 L 23 1 L 21 1 L 21 0 Z M 23 3 L 24 3 C 24 3 24 5 24 5 L 23 5 L 23 3 Z M 23 6 L 24 6 C 24 6 24 8 24 8 L 23 8 L 23 6 Z M 23 9 L 24 9 C 24 9 24 11 24 11 L 23 11 L 23 9 Z M 23 12 L 24 12 C 24 12 24 14 24 14 L 24 14 L 24 15 C 24 15 22 15 22 15 L 22 14 L 23 14 L 23 12 Z M 19 14 L 21 14 L 21 15 C 21 15 19 15 19 15 L 19 14 Z M 16 14 L 18 14 L 18 15 C 18 15 16 15 16 15 L 16 14 Z M 13 14 L 15 14 L 15 15 C 15 15 13 15 13 15 L 13 14 Z M 10 14 L 12 14 L 12 15 C 12 15 10 15 10 15 L 10 14 Z M 7 14 L 9 14 L 9 15 C 9 15 7 15 7 15 L 7 14 Z M 4 14 L 6 14 L 6 15 C 6 15 4 15 4 15 L 4 14 Z M 1 14 L 3 14 L 3 15 C 3 15 1 15 1 15 L 1 14 Z M 0 13 L 1 13 L 1 15 L 0 15 L 0 13 Z M 0 10 L 1 10 L 1 12 L 0 12 L 0 10 Z M 0 7 L 1 7 L 1 9 L 0 9 L 0 7 Z M 0 4 L 1 4 L 1 6 L 0 6 L 0 4 Z" stroke="none" fill="#707070"/></g><path d="M0,0H30" transform="translate(-15588.5 222.5)" fill="none" stroke="#707070" stroke-width="1.25"/></g></svg>