<svg xmlns="http://www.w3.org/2000/svg" width="28.551" height="16.68" viewBox="0 0 28.551 16.68"><g transform="translate(15518.551 -153.43)"><path d="M.477.109H-.516L-2.7-6H-4.1V-7.055h2.258L-.008-1.711,4.008-13.187h1.07Z" transform="translate(-15511 170)" fill="#707070"/><g transform="translate(-15504 157)" fill="none" stroke-dasharray="2 1"><path d="M0,0H14V13H0Z" stroke="none"/><path d="M 0 0 L 2 0 L 2 1 L 1 1 L 1 3 L 0 3 L 0 0 Z M 3 0 L 5 0 L 5 1 L 3 1 L 3 0 Z M 6 0 L 8 0 L 8 1 L 6 1 L 6 0 Z M 9 0 L 11 0 L 11 1 L 9 1 L 9 0 Z M 12 0 L 14 0 L 14 1 L 14 1 C 14 1 14 3 14 3 L 13 3 L 13 1 L 12 1 L 12 0 Z M 13 4 L 14 4 C 14 4 14 6 14 6 L 13 6 L 13 4 Z M 13 7 L 14 7 C 14 7 14 9 14 9 L 13 9 L 13 7 Z M 13 10 L 14 10 C 14 10 14 12 14 12 L 14 12 L 14 13 C 14 13 12 13 12 13 L 12 12 L 13 12 L 13 10 Z M 9 12 L 11 12 L 11 13 C 11 13 9 13 9 13 L 9 12 Z M 6 12 L 8 12 L 8 13 C 8 13 6 13 6 13 L 6 12 Z M 3 12 L 5 12 L 5 13 C 5 13 3 13 3 13 L 3 12 Z M 0 12 L 2 12 L 2 13 C 2 13 0 13 0 13 L 0 12 Z M 0 10 L 1 10 L 1 12 L 0 12 L 0 10 Z M 0 7 L 1 7 L 1 9 L 0 9 L 0 7 Z M 0 4 L 1 4 L 1 6 L 0 6 L 0 4 Z" stroke="none" fill="#707070"/></g><path d="M2.137-9.773a1.424,1.424,0,0,1-.316.957,2.892,2.892,0,0,1-.934.676,1.979,1.979,0,0,1,1.105.594,1.525,1.525,0,0,1,.371,1.031,1.794,1.794,0,0,1-.727,1.531,3.442,3.442,0,0,1-2.078.539A4.588,4.588,0,0,1-2.551-4.93V-6.156a4.449,4.449,0,0,0,2.109.617q1.4,0,1.4-1.055Q.957-7.57-.6-7.57h-.9V-8.609h.82q1.438,0,1.438-1.008a.759.759,0,0,0-.27-.625,1.087,1.087,0,0,0-.707-.219,2.141,2.141,0,0,0-.824.156,5.135,5.135,0,0,0-.824.445l-.656-.891a4.579,4.579,0,0,1,1.047-.59,3.551,3.551,0,0,1,1.336-.23,2.622,2.622,0,0,1,1.66.48A1.581,1.581,0,0,1,2.137-9.773Z" transform="translate(-15516 165)" fill="#707070"/></g></svg>