<svg xmlns="http://www.w3.org/2000/svg" width="36.797" height="11.578" viewBox="0 0 36.797 11.578"><g transform="translate(15515.23 -220.578)"><path d="M-10.012.156a3.247,3.247,0,0,1-2.375-.828,3.168,3.168,0,0,1-.844-2.367,7.318,7.318,0,0,1,.574-2.941,4.856,4.856,0,0,1,1.613-2.07A3.945,3.945,0,0,1-8.684-8.8a5.5,5.5,0,0,1,2.32.477L-6.91-6.883A4.39,4.39,0,0,0-8.637-7.3,2.287,2.287,0,0,0-10.59-6.1a5.32,5.32,0,0,0-.781,2.965A1.885,1.885,0,0,0-10.934-1.8a1.575,1.575,0,0,0,1.211.469A3.33,3.33,0,0,0-8.641-1.5a8.516,8.516,0,0,0,1.012-.422V-.4A5.192,5.192,0,0,1-10.012.156ZM-.4-2.656A2.5,2.5,0,0,1-1.324-.574a4.027,4.027,0,0,1-2.562.73A5.511,5.511,0,0,1-6.4-.367V-1.953a4.755,4.755,0,0,0,2.438.7,2.174,2.174,0,0,0,1.227-.312.974.974,0,0,0,.469-.852.96.96,0,0,0-.27-.684,5.273,5.273,0,0,0-1.105-.762A4.123,4.123,0,0,1-5.023-4.926a2.1,2.1,0,0,1-.4-1.285,2.324,2.324,0,0,1,.836-1.9A3.447,3.447,0,0,1-2.332-8.8a5.439,5.439,0,0,1,2.7.656L-.223-6.766A4.37,4.37,0,0,0-2.3-7.359a1.54,1.54,0,0,0-.926.258.838.838,0,0,0-.355.719.886.886,0,0,0,.258.625,4.565,4.565,0,0,0,1.055.7,6.126,6.126,0,0,1,1.164.789,2.37,2.37,0,0,1,.523.715A2.1,2.1,0,0,1-.4-2.656ZM4.645.156A3.247,3.247,0,0,1,2.27-.672a3.168,3.168,0,0,1-.844-2.367A7.318,7.318,0,0,1,2-5.98a4.856,4.856,0,0,1,1.613-2.07A3.945,3.945,0,0,1,5.973-8.8a5.5,5.5,0,0,1,2.32.477L7.746-6.883A4.39,4.39,0,0,0,6.02-7.3,2.287,2.287,0,0,0,4.066-6.1a5.32,5.32,0,0,0-.781,2.965A1.885,1.885,0,0,0,3.723-1.8a1.575,1.575,0,0,0,1.211.469A3.33,3.33,0,0,0,6.016-1.5a8.516,8.516,0,0,0,1.012-.422V-.4A5.192,5.192,0,0,1,4.645.156ZM22.3-11.422h1.266L22.113-4.578H20.621l.773-3.6q.133-.617.445-1.7-.164.156-.387.336t-1.2.8l-.6-1.008Z" transform="translate(-15502 232)" fill="#707070"/><path d="M0,0H7" transform="translate(-15491.5 223.5)" fill="none" stroke="#707070" stroke-width="1"/></g></svg>