<svg xmlns="http://www.w3.org/2000/svg" width="38.367" height="11.578" viewBox="0 0 38.367 11.578"><g transform="translate(15516.328 -158.578)"><path d="M-8.328-2.656A2.5,2.5,0,0,1-9.25-.574a4.027,4.027,0,0,1-2.562.73,5.511,5.511,0,0,1-2.516-.523V-1.953a4.755,4.755,0,0,0,2.438.7,2.174,2.174,0,0,0,1.227-.312.974.974,0,0,0,.469-.852.96.96,0,0,0-.27-.684,5.273,5.273,0,0,0-1.105-.762,4.123,4.123,0,0,1-1.379-1.066,2.1,2.1,0,0,1-.4-1.285,2.324,2.324,0,0,1,.836-1.9A3.447,3.447,0,0,1-10.258-8.8a5.439,5.439,0,0,1,2.7.656l-.594,1.375a4.37,4.37,0,0,0-2.078-.594,1.54,1.54,0,0,0-.926.258.838.838,0,0,0-.355.719.886.886,0,0,0,.258.625,4.565,4.565,0,0,0,1.055.7,6.126,6.126,0,0,1,1.164.789,2.37,2.37,0,0,1,.523.715A2.1,2.1,0,0,1-8.328-2.656Zm6.281-4.734a1.964,1.964,0,0,0-1.41.672,3.874,3.874,0,0,0-.949,1.773h.227a5.176,5.176,0,0,0,2.3-.418,1.294,1.294,0,0,0,.828-1.184.789.789,0,0,0-.25-.621A1.085,1.085,0,0,0-2.047-7.391ZM-3.234.156a3.239,3.239,0,0,1-2.4-.867A3.282,3.282,0,0,1-6.5-3.133a6.874,6.874,0,0,1,.605-2.879A4.939,4.939,0,0,1-4.254-8.07,3.938,3.938,0,0,1-1.937-8.8,3.031,3.031,0,0,1,.02-8.23a1.948,1.948,0,0,1,.7,1.605A2.487,2.487,0,0,1-.582-4.4a7.106,7.106,0,0,1-3.707.8h-.336l-.016.242v.227A1.963,1.963,0,0,0-4.2-1.773a1.678,1.678,0,0,0,1.316.492A4.3,4.3,0,0,0-1.766-1.43,7.967,7.967,0,0,0-.453-1.937V-.477A7.251,7.251,0,0,1-1.832.012,6.273,6.273,0,0,1-3.234.156Zm8.352,0A3.247,3.247,0,0,1,2.742-.672,3.168,3.168,0,0,1,1.9-3.039,7.318,7.318,0,0,1,2.473-5.98a4.856,4.856,0,0,1,1.613-2.07A3.945,3.945,0,0,1,6.445-8.8a5.5,5.5,0,0,1,2.32.477L8.219-6.883A4.39,4.39,0,0,0,6.492-7.3,2.287,2.287,0,0,0,4.539-6.1a5.32,5.32,0,0,0-.781,2.965A1.885,1.885,0,0,0,4.2-1.8a1.575,1.575,0,0,0,1.211.469A3.33,3.33,0,0,0,6.488-1.5,8.516,8.516,0,0,0,7.5-1.922V-.4A5.192,5.192,0,0,1,5.117.156ZM22.773-11.422h1.266L22.586-4.578H21.094l.773-3.6q.133-.617.445-1.7-.164.156-.387.336t-1.2.8l-.6-1.008Z" transform="translate(-15502 170)" fill="#707070"/><path d="M0,0H7" transform="translate(-15491.5 161.5)" fill="none" stroke="#707070" stroke-width="1"/></g></svg>