<svg xmlns="http://www.w3.org/2000/svg" width="7.859" height="7.633" viewBox="0 0 7.859 7.633"><path d="M3.77-.828H-.059a5.163,5.163,0,0,1-1.633-.246,3.466,3.466,0,0,1-1.273-.734,3.349,3.349,0,0,1-.828-1.207,4.311,4.311,0,0,1-.3-1.656A3.9,3.9,0,0,1-3.762-6.32a3.466,3.466,0,0,1,.879-1.187A3.677,3.677,0,0,1-1.6-8.223,4.944,4.944,0,0,1-.059-8.461H3.77V-7.43H.066a3.514,3.514,0,0,0-2.105.551,2.309,2.309,0,0,0-.887,1.691h6.7v1.031h-6.7A2.343,2.343,0,0,0-2-2.434a3.891,3.891,0,0,0,2.3.574H3.77Z" transform="translate(4.09 8.461)" fill="#707070"/></svg>