<svg xmlns="http://www.w3.org/2000/svg" width="7.859" height="9.797" viewBox="0 0 7.859 9.797"><path d="M-4.09-1.031H3.254V0H-4.09Zm6.727-5A2.6,2.6,0,0,0,1.871-8.1,3.358,3.358,0,0,0-.387-8.766h-3.7V-9.8H-.262a5.031,5.031,0,0,1,1.539.234,3.655,3.655,0,0,1,1.285.707,3.435,3.435,0,0,1,.879,1.18A3.87,3.87,0,0,1,3.77-6.031a4.311,4.311,0,0,1-.3,1.656,3.349,3.349,0,0,1-.828,1.207,3.466,3.466,0,0,1-1.273.734,5.163,5.163,0,0,1-1.633.246H-4.09V-3.219H-.621a3.632,3.632,0,0,0,2.457-.707A2.661,2.661,0,0,0,2.637-6.031Z" transform="translate(4.09 9.797)" fill="#707070"/></svg>