<svg xmlns="http://www.w3.org/2000/svg" width="7.859" height="10.344" viewBox="0 0 7.859 10.344"><path d="M-.059-.828H-.18A.976.976,0,0,1-.3-.836L-.777.547H-1.9l.539-1.523a3.884,3.884,0,0,1-1.125-.469,3.264,3.264,0,0,1-.859-.777A3.4,3.4,0,0,1-3.9-3.3,4.591,4.591,0,0,1-4.09-4.672,3.9,3.9,0,0,1-3.762-6.32a3.466,3.466,0,0,1,.879-1.187A3.677,3.677,0,0,1-1.6-8.223,4.944,4.944,0,0,1-.059-8.461H1.277L1.754-9.8H2.832L2.363-8.461H3.77V-7.43H2L1.223-5.187H3.77v1.031H.863l-.8,2.3H3.77V-.828Zm.125-6.6a3.514,3.514,0,0,0-2.105.551,2.309,2.309,0,0,0-.887,1.691H.121L.91-7.43ZM-2.926-4.156A2.578,2.578,0,0,0-2.348-2.75,2.5,2.5,0,0,0-1-2l.758-2.156Z" transform="translate(4.09 9.797)" fill="#707070"/></svg>