<svg xmlns="http://www.w3.org/2000/svg" viewBox="0 0 33 39.57"><defs><style>.a{fill:#707070;}.b,.c,.e{fill:none;}.b,.c{stroke:#707070;}.b{stroke-dasharray:2 1;}.d{stroke:none;}</style></defs><g transform="translate(15713.5 -212.43)"><path class="a" d="M-3.121-3.023-5.5,0H-7.613L-3.9-4.445l-1.8-4.2h1.914l1.125,2.914L-.426-8.641H1.715l-3.6,4.289L.051,0H-1.871Zm9.57-1.555H1.73l.219-1.055,2.1-1.742a15.326,15.326,0,0,0,1.16-1.062,2.612,2.612,0,0,0,.43-.6,1.308,1.308,0,0,0,.137-.578.73.73,0,0,0-.219-.562.838.838,0,0,0-.594-.2,2.431,2.431,0,0,0-1.492.625l-.625-.961a4.037,4.037,0,0,1,1.113-.637,3.783,3.783,0,0,1,1.316-.215,2.1,2.1,0,0,1,1.434.469,1.535,1.535,0,0,1,.535,1.211,2.472,2.472,0,0,1-.184.973,3.055,3.055,0,0,1-.578.863A11.123,11.123,0,0,1,5.168-6.914L3.809-5.8h2.9Z" transform="translate(-15697 224)"/><g class="b" transform="translate(-15704 230)"><rect class="d" width="14" height="22"/><rect class="e" x="0.5" y="0.5" width="13" height="21"/></g><line class="c" x2="33" transform="translate(-15713.5 226.5)"/></g></svg>