<svg xmlns="http://www.w3.org/2000/svg" viewBox="0 0 19.225 14.255"><defs><style>.a{fill:gray;stroke:gray;stroke-width:0.5px;}</style></defs><g transform="translate(0.332 -63.913)"><g transform="translate(0 64.163)"><path class="a" d="M4.679,76.752a3.608,3.608,0,0,0,2.647,1.166h8.262a3.059,3.059,0,0,0,3.055-3.055V67.218a3.059,3.059,0,0,0-3.055-3.055H7.326a3.588,3.588,0,0,0-2.647,1.166L.42,69.964a1.584,1.584,0,0,0,0,2.148ZM1.109,70.6l4.259-4.64A2.667,2.667,0,0,1,7.33,65.1h8.262a2.125,2.125,0,0,1,2.122,2.122v7.641a2.125,2.125,0,0,1-2.122,2.122H7.326a2.667,2.667,0,0,1-1.962-.861L1.109,71.48A.647.647,0,0,1,1.109,70.6Z" transform="translate(0 -64.163)"/><path class="a" d="M222.046,181.06a.469.469,0,0,0,.663,0l1.821-1.821,1.821,1.821a.467.467,0,1,0,.663-.659l-1.825-1.821,1.821-1.821a.466.466,0,1,0-.659-.659l-1.821,1.821-1.821-1.821a.466.466,0,1,0-.659.659l1.821,1.821L222.05,180.4A.468.468,0,0,0,222.046,181.06Z" transform="translate(-213.459 -171.704)"/></g></g></svg>