<svg xmlns="http://www.w3.org/2000/svg" width="18.449" height="18.449" viewBox="0 0 18.449 18.449"><path d="M9.224,0a9.225,9.225,0,1,0,9.225,9.224A9.225,9.225,0,0,0,9.224,0Zm1.92,14.3q-.712.281-1.136.428a3,3,0,0,1-.986.148,1.964,1.964,0,0,1-1.341-.421A1.358,1.358,0,0,1,7.2,13.383a3.878,3.878,0,0,1,.035-.515c.024-.175.062-.372.115-.593l.594-2.1c.052-.2.1-.393.134-.571a2.531,2.531,0,0,0,.053-.494.761.761,0,0,0-.166-.56.94.94,0,0,0-.635-.157,1.666,1.666,0,0,0-.472.07c-.16.049-.3.094-.413.137l.157-.647q.583-.238,1.117-.407a3.3,3.3,0,0,1,1.007-.17,1.928,1.928,0,0,1,1.321.414,1.375,1.375,0,0,1,.464,1.075q0,.137-.032.482a3.224,3.224,0,0,1-.119.633l-.591,2.093c-.048.168-.091.36-.13.575a3.039,3.039,0,0,0-.057.489.7.7,0,0,0,.187.569,1.045,1.045,0,0,0,.646.151,1.873,1.873,0,0,0,.489-.076,2.779,2.779,0,0,0,.4-.133ZM11.04,5.8a1.411,1.411,0,0,1-1,.384,1.426,1.426,0,0,1-1-.384,1.227,1.227,0,0,1-.416-.932,1.239,1.239,0,0,1,.416-.934,1.415,1.415,0,0,1,1-.388,1.4,1.4,0,0,1,1,.388,1.258,1.258,0,0,1,0,1.866Z" fill="#287da1"/></svg>