<svg xmlns="http://www.w3.org/2000/svg" width="17.744" height="17.743" viewBox="0 0 17.744 17.743"><g transform="translate(-0.001 0)"><g transform="translate(0 7.652)"><path d="M16.78,211.613H.963a1.254,1.254,0,0,0,0,2.44H16.78a1.254,1.254,0,0,0,0-2.44Z" transform="translate(0 -211.613)" fill="#4aac8b"/></g><g transform="translate(10.091) rotate(90)"><path d="M16.78,0H.963A1.184,1.184,0,0,0,0,1.22,1.185,1.185,0,0,0,.963,2.44H16.78a1.185,1.185,0,0,0,.963-1.22A1.185,1.185,0,0,0,16.78,0Z" fill="#4aac8b"/></g></g></svg>