<svg xmlns="http://www.w3.org/2000/svg" xmlns:xlink="http://www.w3.org/1999/xlink" width="380" height="206" viewBox="0 0 380 206"><defs><clipPath id="a"><rect width="380" height="206" transform="translate(289 164)" fill="none"/></clipPath><filter id="b" x="-15" y="-63" width="410" height="287" filterUnits="userSpaceOnUse"><feOffset dy="3" input="SourceAlpha"/><feGaussianBlur stdDeviation="5" result="c"/><feFlood flood-opacity="0.102"/><feComposite operator="in" in2="c"/><feComposite in="SourceGraphic"/></filter><filter id="d" x="5" y="2" width="370.676" height="200.921" filterUnits="userSpaceOnUse"><feOffset dy="3" input="SourceAlpha"/><feGaussianBlur stdDeviation="5" result="e"/><feFlood flood-opacity="0.161"/><feComposite operator="in" in2="e"/><feComposite in="SourceGraphic"/></filter><clipPath id="f"><rect width="341.296" height="170.517" fill="none"/></clipPath></defs><g transform="translate(-289 -164)" clip-path="url(#a)"><g transform="matrix(1, 0, 0, 1, 289, 164)" filter="url(#b)"><rect width="380" height="257" transform="translate(0 -51)" fill="transparent"/></g><g transform="matrix(1, 0, 0, 1, 289, 164)" filter="url(#d)"><rect width="340.676" height="170.921" rx="5" transform="translate(20 14)" fill="#fff"/></g><g transform="translate(308.309 178.408)"><g transform="translate(0 -0.553)"><g transform="translate(0 0.548)"><g transform="translate(0 0)" clip-path="url(#f)"><g transform="translate(-2532 -4247)"><g transform="translate(2532 4247)" fill="#fff" stroke="#e4e4e4" stroke-width="1"><rect width="45" height="45" stroke="none"/><rect x="0.5" y="0.5" width="44" height="44" fill="none"/></g></g><g transform="translate(-2488 -4247)"><g transform="translate(2532 4247)" fill="#fff" stroke="#e4e4e4" stroke-width="1"><rect width="45" height="45" stroke="none"/><rect x="0.5" y="0.5" width="44" height="44" fill="none"/></g></g><g transform="translate(-2444 -4247)"><g transform="translate(2532 4247)" fill="#fff" stroke="#e4e4e4" stroke-width="1"><rect width="45" height="45" stroke="none"/><rect x="0.5" y="0.5" width="44" height="44" fill="none"/></g></g><g transform="translate(-2400 -4247)"><g transform="translate(2532 4247)" fill="#fff" stroke="#e4e4e4" stroke-width="1"><rect width="45" height="45" stroke="none"/><rect x="0.5" y="0.5" width="44" height="44" fill="none"/></g></g><g transform="translate(-2356 -4247)"><g transform="translate(2532 4247)" fill="#fff" stroke="#e4e4e4" stroke-width="1"><rect width="45" height="45" stroke="none"/><rect x="0.5" y="0.5" width="44" height="44" fill="none"/></g></g><g transform="translate(-2312 -4247)"><g transform="translate(2532 4247)" fill="#fff" stroke="#e4e4e4" stroke-width="1"><rect width="45" height="45" stroke="none"/><rect x="0.5" y="0.5" width="44" height="44" fill="none"/></g></g><g transform="translate(-2268 -4247)"><g transform="translate(2532 4247)" fill="#fff" stroke="#e4e4e4" stroke-width="1"><rect width="45" height="45" stroke="none"/><rect x="0.5" y="0.5" width="44" height="44" fill="none"/></g></g><g transform="translate(-2224 -4247)"><g transform="translate(2532 4247)" fill="#fff" stroke="#e4e4e4" stroke-width="1"><rect width="45" height="45" stroke="none"/><rect x="0.5" y="0.5" width="44" height="44" fill="none"/></g></g><g transform="translate(-2532 -4203)"><g transform="translate(2532 4247)" fill="#fff" stroke="#e4e4e4" stroke-width="1"><rect width="45" height="45" stroke="none"/><rect x="0.5" y="0.5" width="44" height="44" fill="none"/></g></g><g transform="translate(-2488 -4203)"><g transform="translate(2532 4247)" fill="#fff" stroke="#e4e4e4" stroke-width="1"><rect width="45" height="45" stroke="none"/><rect x="0.5" y="0.5" width="44" height="44" fill="none"/></g></g><g transform="translate(-2444 -4203)"><g transform="translate(2532 4247)" fill="#fff" stroke="#e4e4e4" stroke-width="1"><rect width="45" height="45" stroke="none"/><rect x="0.5" y="0.5" width="44" height="44" fill="none"/></g></g><g transform="translate(-2400 -4203)"><g transform="translate(2532 4247)" fill="#fff" stroke="#e4e4e4" stroke-width="1"><rect width="45" height="45" stroke="none"/><rect x="0.5" y="0.5" width="44" height="44" fill="none"/></g></g><g transform="translate(-2356 -4203)"><g transform="translate(2532 4247)" fill="#fff" stroke="#e4e4e4" stroke-width="1"><rect width="45" height="45" stroke="none"/><rect x="0.5" y="0.5" width="44" height="44" fill="none"/></g></g><g transform="translate(-2312 -4203)"><g transform="translate(2532 4247)" fill="#fff" stroke="#e4e4e4" stroke-width="1"><rect width="45" height="45" stroke="none"/><rect x="0.5" y="0.5" width="44" height="44" fill="none"/></g></g><g transform="translate(-2268 -4203)"><g transform="translate(2532 4247)" fill="#fff" stroke="#e4e4e4" stroke-width="1"><rect width="45" height="45" stroke="none"/><rect x="0.5" y="0.5" width="44" height="44" fill="none"/></g></g><g transform="translate(-2224 -4203)"><g transform="translate(2532 4247)" fill="#fff" stroke="#e4e4e4" stroke-width="1"><rect width="45" height="45" stroke="none"/><rect x="0.5" y="0.5" width="44" height="44" fill="none"/></g></g><g transform="translate(-2532 -4159)"><g transform="translate(2532 4247)" fill="#fff" stroke="#e4e4e4" stroke-width="1"><rect width="45" height="45" stroke="none"/><rect x="0.5" y="0.5" width="44" height="44" fill="none"/></g></g><g transform="translate(-2488 -4159)"><g transform="translate(2532 4247)" fill="#fff" stroke="#e4e4e4" stroke-width="1"><rect width="45" height="45" stroke="none"/><rect x="0.5" y="0.5" width="44" height="44" fill="none"/></g></g><g transform="translate(-2444 -4159)"><g transform="translate(2532 4247)" fill="#fff" stroke="#e4e4e4" stroke-width="1"><rect width="45" height="45" stroke="none"/><rect x="0.5" y="0.5" width="44" height="44" fill="none"/></g></g><g transform="translate(-2400 -4159)"><g transform="translate(2532 4247)" fill="#fff" stroke="#e4e4e4" stroke-width="1"><rect width="45" height="45" stroke="none"/><rect x="0.5" y="0.5" width="44" height="44" fill="none"/></g></g><g transform="translate(-2356 -4159)"><g transform="translate(2532 4247)" fill="#fff" stroke="#e4e4e4" stroke-width="1"><rect width="45" height="45" stroke="none"/><rect x="0.5" y="0.5" width="44" height="44" fill="none"/></g></g><g transform="translate(-2312 -4159)"><g transform="translate(2532 4247)" fill="#fff" stroke="#e4e4e4" stroke-width="1"><rect width="45" height="45" stroke="none"/><rect x="0.5" y="0.5" width="44" height="44" fill="none"/></g></g><g transform="translate(-2268 -4159)"><g transform="translate(2532 4247)" fill="#fff" stroke="#e4e4e4" stroke-width="1"><rect width="45" height="45" stroke="none"/><rect x="0.5" y="0.5" width="44" height="44" fill="none"/></g></g><g transform="translate(-2224 -4159)"><g transform="translate(2532 4247)" fill="#fff" stroke="#e4e4e4" stroke-width="1"><rect width="45" height="45" stroke="none"/><rect x="0.5" y="0.5" width="44" height="44" fill="none"/></g></g><g transform="translate(-2532 -4115)"><g transform="translate(2532 4247)" fill="#fff" stroke="#e4e4e4" stroke-width="1"><rect width="45" height="45" stroke="none"/><rect x="0.5" y="0.5" width="44" height="44" fill="none"/></g></g><g transform="translate(-2488 -4115)"><g transform="translate(2532 4247)" fill="#fff" stroke="#e4e4e4" stroke-width="1"><rect width="45" height="45" stroke="none"/><rect x="0.5" y="0.5" width="44" height="44" fill="none"/></g></g><g transform="translate(-2444 -4115)"><g transform="translate(2532 4247)" fill="#fff" stroke="#e4e4e4" stroke-width="1"><rect width="45" height="45" stroke="none"/><rect x="0.5" y="0.5" width="44" height="44" fill="none"/></g></g><g transform="translate(-2400 -4115)"><g transform="translate(2532 4247)" fill="#fff" stroke="#e4e4e4" stroke-width="1"><rect width="45" height="45" stroke="none"/><rect x="0.5" y="0.5" width="44" height="44" fill="none"/></g></g><g transform="translate(-2356 -4115)"><g transform="translate(2532 4247)" fill="#fff" stroke="#e4e4e4" stroke-width="1"><rect width="45" height="45" stroke="none"/><rect x="0.5" y="0.5" width="44" height="44" fill="none"/></g></g><g transform="translate(-2312 -4115)"><g transform="translate(2532 4247)" fill="#fff" stroke="#e4e4e4" stroke-width="1"><rect width="45" height="45" stroke="none"/><rect x="0.5" y="0.5" width="44" height="44" fill="none"/></g></g><g transform="translate(-2268 -4115)"><g transform="translate(2532 4247)" fill="#fff" stroke="#e4e4e4" stroke-width="1"><rect width="45" height="45" stroke="none"/><rect x="0.5" y="0.5" width="44" height="44" fill="none"/></g></g><g transform="translate(-2224 -4115)"><g transform="translate(2532 4247)" fill="#fff" stroke="#e4e4e4" stroke-width="1"><rect width="45" height="45" stroke="none"/><rect x="0.5" y="0.5" width="44" height="44" fill="none"/></g></g></g><g transform="translate(0.347 0)"><line y2="167.066" transform="translate(174.951 2.074)" fill="none" stroke="#00b0ff" stroke-width="2"/><line x2="347.849" transform="translate(0.724 88.092)" fill="none" stroke="#00b0ff" stroke-width="2"/></g></g><g transform="translate(43.342 -4.207)"><g transform="translate(0 43.425)"><circle cx="3.645" cy="3.645" r="3.645" transform="translate(-3 2)" fill="#00b0ff"/><circle cx="3.645" cy="3.645" r="3.645" transform="translate(-3 46)" fill="#00b0ff"/><circle cx="3.645" cy="3.645" r="3.645" transform="translate(42 2)" fill="#00b0ff"/><circle cx="3.645" cy="3.645" r="3.645" transform="translate(42 46)" fill="#00b0ff"/></g><g transform="translate(171.132 43)"><g transform="translate(3.126 3.647)" fill="none" stroke="#00b0ff" stroke-width="2"><rect width="46.886" height="46.886" stroke="none"/><rect x="1" y="1" width="44.886" height="44.886" fill="none"/></g><g transform="translate(3.126 3.647)" fill="#00b0ff" stroke="#707070" stroke-width="1" opacity="0.19"><rect width="46.886" height="46.886" stroke="none"/><rect x="0.5" y="0.5" width="45.886" height="45.886" fill="none"/></g><circle cx="3.647" cy="3.647" r="3.647" fill="#00b0ff"/><circle cx="3.647" cy="3.647" r="3.647" transform="translate(0 46.886)" fill="#00b0ff"/><circle cx="3.647" cy="3.647" r="3.647" transform="translate(46.365)" fill="#00b0ff"/><circle cx="3.647" cy="3.647" r="3.647" transform="translate(46.365 46.886)" fill="#00b0ff"/></g><g transform="translate(42.381 133.718)"><path d="M589,696h43.064v41.3" transform="translate(-585.686 -692.686)" fill="none" stroke="#00b0ff" stroke-width="2"/><circle cx="3.645" cy="3.645" r="3.645" transform="translate(-1)" fill="#fdcc3b"/><circle cx="3.645" cy="3.645" r="3.645" transform="translate(42.768)" fill="#82d8ff"/></g></g></g></g></g></svg>
