<svg xmlns="http://www.w3.org/2000/svg" xmlns:xlink="http://www.w3.org/1999/xlink" width="380" height="206" viewBox="0 0 380 206"><defs><clipPath id="a"><rect width="380" height="206" transform="translate(289 164)" fill="none"/></clipPath><filter id="b" x="-15" y="-63" width="410" height="287" filterUnits="userSpaceOnUse"><feOffset dy="3" input="SourceAlpha"/><feGaussianBlur stdDeviation="5" result="c"/><feFlood flood-opacity="0.102"/><feComposite operator="in" in2="c"/><feComposite in="SourceGraphic"/></filter><filter id="d" x="5" y="2" width="370.676" height="200.921" filterUnits="userSpaceOnUse"><feOffset dy="3" input="SourceAlpha"/><feGaussianBlur stdDeviation="5" result="e"/><feFlood flood-opacity="0.161"/><feComposite operator="in" in2="e"/><feComposite in="SourceGraphic"/></filter></defs><g transform="translate(-289 -164)" clip-path="url(#a)"><g transform="matrix(1, 0, 0, 1, 289, 164)" filter="url(#b)"><rect width="380" height="257" transform="translate(0 -51)" fill="transparent"/></g><g transform="translate(16357 112)"><g transform="matrix(1, 0, 0, 1, -16068, 52)" filter="url(#d)"><rect width="340.676" height="170.921" rx="5" transform="translate(20 14)" fill="#fff"/></g><g transform="translate(-16370 -108)"><g transform="translate(563.838 -139.944)"><line x2="311.824" transform="translate(-229.5 407.648)" fill="none" stroke="#444" stroke-width="2" opacity="0.22"/><line y2="10.296" transform="translate(-229.132 402.5)" fill="none" stroke="#e5e3e3" stroke-width="2"/><line y2="10.296" transform="translate(-194.567 402.5)" fill="none" stroke="#e5e3e3" stroke-width="2"/><line y2="10.296" transform="translate(-160.001 402.5)" fill="none" stroke="#e5e3e3" stroke-width="2"/><line y2="10.296" transform="translate(-125.436 402.5)" fill="none" stroke="#e5e3e3" stroke-width="2"/><line y2="10.296" transform="translate(-90.871 402.5)" fill="none" stroke="#e5e3e3" stroke-width="2"/><line y2="10.296" transform="translate(-56.305 402.5)" fill="none" stroke="#e5e3e3" stroke-width="2"/><line y2="10.296" transform="translate(-21.74 402.5)" fill="none" stroke="#e5e3e3" stroke-width="2"/><line y2="10.296" transform="translate(12.826 402.5)" fill="none" stroke="#e5e3e3" stroke-width="2"/><line y2="10.296" transform="translate(47.391 402.5)" fill="none" stroke="#e5e3e3" stroke-width="2"/><line y2="10.296" transform="translate(81.956 402.5)" fill="none" stroke="#e5e3e3" stroke-width="2"/></g><g transform="translate(302 214)"><g transform="translate(32)" fill="#fff" stroke="#e6e6e6" stroke-width="1"><rect width="96.959" height="30" rx="5" stroke="none"/><rect x="0.5" y="0.5" width="95.959" height="29" rx="4.5" fill="none"/></g><text transform="translate(80 20)" fill="#444" font-size="11" font-family="OpenSans-Bold, Open Sans" font-weight="700" letter-spacing="0.019em"><tspan x="-27.624" y="0">OPTION A</tspan></text></g><g transform="translate(518 214)"><g transform="translate(32)" fill="#fff" stroke="#e6e6e6" stroke-width="1"><rect width="96.959" height="30" rx="5" stroke="none"/><rect x="0.5" y="0.5" width="95.959" height="29" rx="4.5" fill="none"/></g><text transform="translate(80 20)" fill="#444" font-size="11" font-family="OpenSans-Bold, Open Sans" font-weight="700" letter-spacing="0.019em"><tspan x="-27.334" y="0">OPTION C</tspan></text></g></g></g><g transform="translate(0 -14)"><rect width="380" height="40" transform="translate(289 344)" fill="#efefef"/><g transform="translate(429 349)"><g fill="#fff" stroke="#e6e6e6" stroke-width="1"><rect width="100" height="30" rx="5" stroke="none"/><rect x="0.5" y="0.5" width="99" height="29" rx="4.5" fill="none"/></g><text transform="translate(51 20)" fill="#444" font-size="11" font-family="OpenSans-Bold, Open Sans" font-weight="700" letter-spacing="0.019em"><tspan x="-27.525" y="0">OPTION B</tspan></text></g></g></g></svg>