<svg xmlns="http://www.w3.org/2000/svg" xmlns:xlink="http://www.w3.org/1999/xlink" viewBox="0 0 530.867 288.226"><defs><style>.a{fill:url(#a);}.b{fill:url(#b);}.c{fill:url(#c);}.d{fill:#cfcfcf;}.e{fill:#b1afae;}.f{fill:#b1b1b1;}.g{fill:#d2d3d4;}.h{fill:#fff;}.i{fill:#878282;}</style><radialGradient id="a" cx="265.309" cy="144.113" r="393.042" gradientTransform="translate(121.198 65.833) scale(0.543 0.543)" gradientUnits="userSpaceOnUse"><stop offset="0" stop-color="#fdfdfd"/><stop offset="1" stop-color="#e4e5e5"/></radialGradient><radialGradient id="b" cx="134.751" cy="244.97" r="585.136" gradientTransform="translate(61.557 111.907) scale(0.543 0.543)" xlink:href="#a"/><linearGradient id="c" x1="1" x2="-0.008" y2="1.024" gradientUnits="objectBoundingBox"><stop offset="0" stop-color="#e5e5e5"/><stop offset="1" stop-color="#dbdbdb"/></linearGradient></defs><g transform="translate(0.099)"><path class="a" d="M529.661,288.226H.965V287.02C.241,279.785,0,272.549,0,265.313,0,118.908,118.908,0,265.313,0S530.626,118.908,530.626,265.313c0,7.236-.241,14.472-.965,21.707v1.206ZM118.185,203.809H414.853l-.482-1.447c-18.331-66.569-79.112-113.12-148.093-113.12a153.574,153.574,0,0,0-147.852,113.12l-.241,1.447Z" transform="translate(0.141)"/><path class="b" d="M529.661,288.226H.965V287.02C.241,279.785,0,272.549,0,265.313,0,118.908,118.908,0,265.313,0S530.626,118.908,530.626,265.313c0,7.236-.241,14.472-.965,21.707v1.206ZM118.185,203.809H414.853l-.482-1.447c-18.331-66.569-79.112-113.12-148.093-113.12a153.574,153.574,0,0,0-147.852,113.12l-.241,1.447Z" transform="translate(0.141)"/><path class="c" d="M529.661,288.226H.965V287.02C.241,279.785,0,272.549,0,265.313,0,118.908,118.908,0,265.313,0S530.626,118.908,530.626,265.313c0,7.236-.241,14.472-.965,21.707v1.206ZM118.185,203.809H414.853l-.482-1.447c-18.331-66.569-79.112-113.12-148.093-113.12a153.574,153.574,0,0,0-147.852,113.12l-.241,1.447Z" transform="translate(0.141)"/><path class="d" d="M198.364,36.9A155.639,155.639,0,0,0,48.1,151.949H348.627A155.638,155.638,0,0,0,198.364,36.9Zm0,2.894c67.534,0,127.35,44.862,146.163,109.5H52.2A152.751,152.751,0,0,1,198.364,39.794Z" transform="translate(68.055 52.1)"/><path class="e" d="M409.123,58.045l2.653,1.93,7.477-10.854c-.965-.724-1.688-1.206-2.653-1.93ZM370.532,36.1l2.894,1.447,5.789-12.3L376.321,23.8Zm-85.624-22.19,3.136.241L289.25.641c-.965,0-2.171-.241-3.136-.241Zm43.9,7.477,3.135.724,3.618-13.024c-.965-.241-2.171-.482-3.136-.724Zm165.7,137.239,1.447,2.894,11.095-5.306-1.447-2.894Zm-22.431-38.35,1.93,2.653,10.371-7.236c-.724-.965-1.206-1.688-1.93-2.653ZM240.288.641l1.206,13.507,3.136-.241L243.423.4A14.836,14.836,0,0,0,240.288.641ZM521.519,197.214l-11.577,3.136.724,3.136,11.577-3.136C522,199.143,521.76,198.179,521.519,197.214ZM194.461,8.842l3.618,13.024,3.136-.724L197.6,7.877A22.4,22.4,0,0,1,194.461,8.842ZM443.373,86.506l2.171,2.171,9.165-9.165a21.742,21.742,0,0,1-2.171-2.412ZM.3,246.176l11.336.965.241-3.136L.541,243.041A12.742,12.742,0,0,0,.3,246.176ZM150.564,25.243l5.789,12.3,2.894-1.447-5.789-12.3A16.209,16.209,0,0,1,150.564,25.243ZM529.237,242.8l-11.336.965.241,3.136,11.336-.965A14.838,14.838,0,0,0,529.237,242.8ZM75.07,79.511l9.165,9.165,2.171-2.171-9.165-9.165Zm35.455-30.39L118,59.975l2.653-1.93-7.718-10.854A16.9,16.9,0,0,1,110.525,49.121ZM7.536,200.349l11.336,2.894.724-3.136L8.259,197.214C8.018,198.179,7.777,199.143,7.536,200.349Zm38.109-84.659,10.371,7.236,1.93-2.653-10.371-7.236A18.407,18.407,0,0,0,45.644,115.691ZM22.731,156.211l11.095,5.306,1.447-2.894-11.095-5.306Z" transform="translate(0.565 0.565)"/><path class="f" d="M305.592,29.908l3.135.482L313.31,4.341a14.115,14.115,0,0,0-3.135-.482Zm113.12,51.615,2.412,2.171,16.642-19.778c-.724-.724-1.688-1.447-2.412-2.171ZM384.221,57.886l2.894,1.688L400.14,36.9a25.428,25.428,0,0,1-2.653-1.688ZM346.113,40.279l3.136,1.206,8.924-24.6c-.965-.482-1.93-.724-3.136-1.206Zm148.816,92.136L472.981,145.2l1.688,2.894,21.949-12.783A17.993,17.993,0,0,1,494.929,132.415Zm35.7,132.9H505.783v3.135h24.843v-3.135Zm-4.1-46.068-24.6,4.341.482,3.136,24.6-4.341A12.222,12.222,0,0,0,526.526,219.245ZM0,265.313v3.135H24.6v-3.135Zm514.707-90.93-23.637,8.683,1.206,3.136,23.637-8.683A8.427,8.427,0,0,1,514.707,174.383ZM448.62,111.19l2.171,2.412,19.537-16.4c-.724-.724-1.447-1.688-2.171-2.412ZM14.954,177.518,38.591,186.2l1.206-3.136L16.16,174.383A16.748,16.748,0,0,0,14.954,177.518ZM3.618,222.38l24.361,4.341.482-3.136L4.1,219.245A12.22,12.22,0,0,0,3.618,222.38ZM263.383,0V26.531h3.136V0h-3.136ZM60.3,97.2l19.537,16.4,2.171-2.412-7.341-6.163-12.2-10.238A21.745,21.745,0,0,0,60.3,97.2ZM34.008,135.31l21.949,12.783,1.688-2.894L35.7,132.415A17.99,17.99,0,0,1,34.008,135.31ZM92.86,63.916,109.5,83.694l2.412-2.171L95.271,61.746A21.746,21.746,0,0,0,92.86,63.916Zm79.594-47.033,8.924,24.6,3.136-1.206-9.165-24.6C174.383,16.16,173.418,16.4,172.453,16.884ZM217.315,4.341,221.9,30.39l3.136-.482L220.451,3.859C219.245,4.1,218.28,4.1,217.315,4.341ZM130.486,36.9,143.51,59.575l2.894-1.688L133.38,35.214C132.415,35.7,131.45,36.42,130.486,36.9Z" transform="translate(0.141)"/><path class="g" d="M389.428,40.762l2.894,1.447,4.341-7.718a17.99,17.99,0,0,1-2.894-1.688Zm12.3-2.894-4.583,7.477,2.653,1.688,4.583-7.477A9.96,9.96,0,0,0,401.728,37.867Zm-12.06-6.995-4.1,7.959,2.894,1.447,4.1-7.959A16.06,16.06,0,0,1,389.669,30.873Zm16.16,9.407-4.583,7.477,2.653,1.688,4.583-7.477C407.517,41.244,406.552,40.762,405.829,40.279ZM385.327,28.7l-4.1,7.959,2.894,1.447,4.1-7.959Zm-16.884-7.959-3.618,8.442,2.894,1.206,3.618-8.2Zm41.244,21.949-4.824,7.236,2.653,1.688,4.824-7.236A16.222,16.222,0,0,1,409.688,42.691ZM369.167,30.873l2.894,1.206,3.618-8.2a14.754,14.754,0,0,0-2.894-1.206Zm12.06-4.341-3.859,7.959,2.894,1.447,3.859-7.959Zm68.5,48-5.789,6.03,2.412,2.171,5.789-6.03A10.368,10.368,0,0,1,449.726,74.529ZM413.547,45.344l-4.824,7.236,2.653,1.688,4.824-7.236C415.235,46.55,414.512,45.827,413.547,45.344Zm25.808,19.778-5.547,6.512,2.412,2.171,5.547-6.512A21.749,21.749,0,0,0,439.355,65.122Zm6.995,6.271-5.789,6.271,2.412,2.171,5.789-6.271A21.747,21.747,0,0,1,446.349,71.393Zm-3.377-3.136-5.789,6.271L439.6,76.7l5.547-6.271ZM421.265,50.651,416.2,57.645l2.653,1.93,5.065-6.995A25.259,25.259,0,0,1,421.265,50.651Zm3.618,2.653L419.818,60.3l2.653,1.93,5.306-6.995A12.119,12.119,0,0,1,424.883,53.3Zm3.859,2.894-5.306,6.753,2.653,1.93,5.306-6.753A7.559,7.559,0,0,1,428.742,56.2Zm3.618,2.894-5.306,6.753,2.412,1.93,5.306-6.753A16.894,16.894,0,0,1,432.36,59.092ZM304.286,12.06l3.136.482,1.447-9.165a14.116,14.116,0,0,0-3.136-.482Zm-8.924-.965,3.136.482L299.7,2.412c-.965-.241-2.171-.241-3.136-.482Zm-4.583-.482,3.135.241.965-9.165c-.965,0-2.171-.241-3.136-.241ZM314.9,4.583l-1.688,8.924,3.136.724,1.688-9.165A16.6,16.6,0,0,1,314.9,4.583ZM456.721,81.765l-6.03,6.03,1.688,1.688,6.03-5.789A6.5,6.5,0,0,0,456.721,81.765ZM301.151,2.412l-1.206,9.165,3.136.482,1.206-9.165C303.321,2.653,302.115,2.653,301.151,2.412Zm-28.22,6.995h3.136l.241-9.165A13.753,13.753,0,0,1,273.172,0Zm4.342,0,3.135.241L280.89.482c-.965,0-2.171-.241-3.136-.241Zm4.583.241,3.136.241.724-9.165c-.965,0-2.171-.241-3.136-.241ZM364.1,19.054,360.726,27.5,363.62,28.7,367,20.26C366.273,19.778,365.067,19.537,364.1,19.054ZM268.348,9.165h3.136L271.725,0H268.59Zm79.835,13.748,3.136.965,2.894-8.683c-.965-.241-1.93-.724-3.136-.965Zm-6.03-11.577L339.5,20.019l3.135.965,2.653-8.683C344.324,12.06,343.118,11.577,342.154,11.336Zm17.607,6.03-3.135,8.442,2.894,1.206,3.136-8.442C361.932,18.09,360.726,17.848,359.761,17.366Zm-13.024-4.583-2.894,8.683,3.136.965,2.894-8.683A22.4,22.4,0,0,0,346.736,12.783ZM324.064,6.512l-2.171,8.924,3.135.724L327.2,7.236C326.235,6.995,325.029,6.753,324.064,6.512Zm2.412,10.13,3.135.724,2.171-8.924c-.965-.241-2.171-.482-3.136-.724Zm11.095-6.753-2.412,8.924,3.135.965,2.412-8.683C339.742,10.613,338.777,10.371,337.571,9.889Zm-18.09-4.341-1.93,8.924,3.136.724,1.93-8.924C321.652,6.03,320.687,5.789,319.481,5.547ZM523.049,201.879l-7.236,1.688.724,3.136,7.236-1.688C523.531,203.809,523.29,202.844,523.049,201.879Zm1.206,4.583-7.236,1.688.724,3.136,7.236-1.688A19.033,19.033,0,0,1,524.255,206.462Zm.965,4.341-7.236,1.447.724,3.136,7.236-1.447A11.966,11.966,0,0,1,525.22,210.8ZM459.374,84.659l-6.03,5.789,2.171,2.412,6.03-5.789A6.841,6.841,0,0,0,459.374,84.659Zm61.263,108.3-7.236,2.171.965,3.136,7.236-2.171C521.36,194.884,520.878,193.92,520.637,192.955Zm-1.206-4.583-7.236,2.171.965,3.136,7.236-2.171A15.6,15.6,0,0,1,519.431,188.372Zm-2.894-8.683L509.3,182.1l.965,3.136,7.236-2.412C517.26,181.619,516.778,180.654,516.537,179.689Zm1.447,4.341-7.236,2.412.965,3.136,7.236-2.412C518.707,185.96,518.225,185,517.984,184.031ZM259.183,0l.241,9.165h3.136L262.319,0Zm270.86,247.706-6.995.482.241,3.136,6.995-.482A12.738,12.738,0,0,0,530.043,247.706Zm.482,9.165-6.995.241v3.136l6.753-.241A4.7,4.7,0,0,0,530.526,256.871Zm0-4.583-6.995.482.241,3.136,6.995-.482A13.752,13.752,0,0,1,530.526,252.288ZM513.4,170.765l-7.236,2.653.965,2.412,7.236-2.894A4.546,4.546,0,0,1,513.4,170.765Zm14.954,58.369-6.995.965.482,3.136,6.995-.965A12.222,12.222,0,0,1,528.355,229.134Zm-.724-4.583-7.236,1.206.482,3.136,6.995-1.206A13.755,13.755,0,0,0,527.632,224.551Zm1.206,9.165-6.995.965.482,3.136,6.995-.965C529.079,235.887,529.079,234.923,528.837,233.717Zm.482,4.583-6.995.724.241,3.136,6.995-.724A14.838,14.838,0,0,0,529.32,238.3Zm-3.377-22.913-7.236,1.447.724,3.136,7.236-1.447C526.426,217.557,526.184,216.592,525.943,215.386Zm-14.23-48.962-7.236,2.894,1.206,2.894,7.236-2.894A10.437,10.437,0,0,1,511.713,166.424Zm-31.6-56.68-6.512,4.824,1.93,2.653,6.512-4.824A10.708,10.708,0,0,0,480.116,109.743Zm6.03,8.683-6.753,4.583L480.6,124.7l6.753-4.583A10.211,10.211,0,0,0,486.146,118.426Zm-11.577-16.16-6.512,5.065,1.93,2.653,6.512-5.065A18.408,18.408,0,0,0,474.569,102.266Zm13.507,19.054-6.753,4.341,1.688,2.653,6.753-4.341A9.959,9.959,0,0,0,488.076,121.32ZM462.75,88.036l-6.271,5.547L458.65,96l6.271-5.547A19.588,19.588,0,0,1,462.75,88.036Zm8.924,10.613-6.271,5.065,1.93,2.412,6.271-5.065A16.9,16.9,0,0,0,471.675,98.648Zm-6.03-7.236-6.271,5.547,1.688,1.93,6.512-5.306C467.092,93.1,466.368,92.136,465.645,91.412Zm11.818,14.472-6.512,4.824,1.93,2.653,6.512-4.824C478.669,107.572,478.187,106.849,477.463,105.884Zm13.024,19.3-6.753,4.341,1.688,2.653,6.753-4.341A16.222,16.222,0,0,0,490.488,125.179Zm13.748,24.361-6.995,3.377,1.447,2.894,6.995-3.377A8.15,8.15,0,0,1,504.236,149.54Zm3.859,8.683-7.236,2.894,1.206,2.894,6.995-3.136A5.934,5.934,0,0,0,508.095,158.223Zm1.93,4.1-7.236,3.136,1.206,2.894,7.236-3.136A14.753,14.753,0,0,1,510.024,162.323Zm-7.959-16.884-6.995,3.618,1.447,2.894,6.995-3.618Zm-8.924-16.4-6.753,4.1,1.206,1.93,6.995-3.859C493.864,130.727,493.623,129.762,493.141,129.039Zm4.583,8.2-6.995,3.859,1.447,2.894,6.995-3.859A32.307,32.307,0,0,0,497.723,137.239Zm2.171,4.1-6.995,3.618,1.447,2.894,6.995-3.618A32.309,32.309,0,0,0,499.894,141.339ZM11.96,186.925l7.236,2.412.965-3.136-7.236-2.412C12.683,185,12.2,185.96,11.96,186.925Zm19.778-47.033,6.995,3.859,1.447-2.894L33.185,137A32.3,32.3,0,0,1,31.738,139.892Zm-2.171,4.1,6.995,3.618,1.447-2.894L31.014,141.1A32.3,32.3,0,0,1,29.567,143.993Zm6.995-12.542,6.995,3.859,1.206-1.93-6.753-4.1C37.285,129.762,37.044,130.727,36.561,131.45Zm1.93-3.618,6.753,4.341,1.688-2.653-6.753-4.341A16.223,16.223,0,0,1,38.491,127.833ZM27.4,148.334l6.995,3.618,1.447-2.894-6.995-3.618ZM17.99,169.559l7.236,2.894,1.206-2.894L19.2,166.665A25.115,25.115,0,0,1,17.99,169.559Zm7.477-17.125,6.995,3.377,1.447-2.894-7.236-3.377C26.19,150.5,25.949,151.47,25.467,152.434Zm-3.859,8.442,6.995,3.136,1.206-2.894-7.236-2.894C22.331,159.188,21.849,159.911,21.607,160.876Zm-1.93,4.341,6.995,3.136,1.206-2.894-7.236-3.136A6.856,6.856,0,0,1,19.678,165.218ZM57.063,101.06l6.271,5.065,1.93-2.412-6.271-5.065A16.9,16.9,0,0,1,57.063,101.06Zm6.271-7.236,6.512,5.306,1.688-1.93-6.271-5.789A16.9,16.9,0,0,0,63.334,93.824Zm2.894-3.377L72.5,96l2.171-2.412L68.4,88.036A19.585,19.585,0,0,0,66.228,90.448ZM54.41,104.919l6.512,5.065,1.93-2.653-6.512-5.065A18.408,18.408,0,0,0,54.41,104.919Zm-10.854,15.2,6.753,4.583,1.206-1.688-6.753-4.583A10.212,10.212,0,0,0,43.556,120.114Zm7.959-11.577,6.512,4.824,1.93-2.653-6.512-4.824C52.721,106.849,52.239,107.572,51.515,108.537ZM41.144,123.973l6.753,4.341,1.688-2.653-6.753-4.341A9.959,9.959,0,0,0,41.144,123.973ZM48.862,112.4l6.512,4.824,1.93-2.653-6.512-4.824A10.709,10.709,0,0,0,48.862,112.4Zm481.9,149.058-6.753.241v3.135l6.753-.241ZM1.106,241.676,8.1,242.4l.241-3.136-6.995-.724A14.836,14.836,0,0,1,1.106,241.676ZM.382,255.424l6.995.482.241-3.136-6.995-.482A13.753,13.753,0,0,0,.382,255.424Zm.241-4.583,6.995.482.241-3.136-6.995-.482A12.742,12.742,0,0,0,.624,250.841Zm1.447-18.572,6.995.965.724-3.136-7.236-.965A12.22,12.22,0,0,1,2.071,232.269Zm-.482,4.583,6.995.965.482-3.136-6.995-.965C1.83,234.923,1.83,235.887,1.588,236.852ZM72.5,83.453l6.03,5.789,1.688-1.688-6.03-6.03C73.464,82.247,72.982,82.971,72.5,83.453ZM.141,264.589l6.753.241v-3.136l-6.753-.241Zm0-4.583,6.753.241v-3.136L-.1,256.871A13.753,13.753,0,0,1,.141,260.007Zm4.1-41.485,7.236,1.447.724-3.136-7.236-1.447C4.724,216.592,4.483,217.557,4.241,218.521Zm-1.447,9.165,6.995,1.206.482-3.136-7.236-1.206A13.753,13.753,0,0,1,2.794,227.687Zm6.512-31.838,7.236,2.171.965-3.136-7.236-2.171A22.4,22.4,0,0,0,9.307,195.849Zm-2.171,9.165,7.236,1.688.724-3.136-7.236-1.688C7.618,202.844,7.377,203.809,7.136,205.015Zm6.271-22.431L20.643,185l.965-3.136-7.236-2.412C14.13,180.654,13.648,181.619,13.407,182.584Zm-2.894,8.924,7.236,2.171.965-3.136-7.236-2.171A15.6,15.6,0,0,1,10.513,191.508Zm6.03-18.331,7.236,2.894.965-2.412-7.236-2.653A8.568,8.568,0,0,1,16.542,173.177ZM254.6.241l.241,9.165h3.136L257.736,0A14.836,14.836,0,0,1,254.6.241ZM6.171,209.6l7.236,1.688.724-3.136-7.236-1.688A11.966,11.966,0,0,0,6.171,209.6Zm-.965,4.341,7.236,1.447.724-3.136L5.93,210.8A19.041,19.041,0,0,0,5.206,213.939ZM181.278,13.748l2.894,8.683,3.136-.965-2.894-8.683A11.941,11.941,0,0,0,181.278,13.748Zm4.341-1.447,2.653,8.683,3.136-.965-2.653-8.683C187.79,11.577,186.584,12.06,185.619,12.3Zm4.583-1.447,2.412,8.683,3.136-.965-2.412-8.924A10.333,10.333,0,0,1,190.2,10.854Zm8.924-2.412,2.171,8.924,3.136-.724-2.171-8.924C201.3,7.959,200.091,8.2,199.126,8.442Zm4.583-1.206,2.171,8.924,3.136-.724-2.171-8.924C205.638,6.753,204.673,6.995,203.709,7.236ZM163.67,20.26l3.377,8.442,2.894-1.206-3.377-8.442C165.841,19.537,164.635,19.778,163.67,20.26ZM69.123,86.83l6.03,5.789,2.171-2.412-6.03-5.789A21.746,21.746,0,0,1,69.123,86.83Zm98.889-68.258,3.136,8.442,2.894-1.206-3.136-8.442C170.183,17.848,168.977,18.09,168.012,18.572ZM212.874,5.306l1.688,9.165,3.136-.724-1.688-8.924A12.221,12.221,0,0,0,212.874,5.306ZM231.2,2.171l1.206,9.165,3.136-.482L234.34,1.688A14.117,14.117,0,0,1,231.2,2.171Zm4.583-.482.965,9.165,3.136-.241-.965-9.165A14.836,14.836,0,0,0,235.787,1.688Zm9.407-.965.724,9.165,3.136-.241L248.329.482A13.753,13.753,0,0,1,245.194.724Zm4.583-.241.482,9.165,3.136-.241L252.912.241C251.947.241,250.982.482,249.776.482ZM226.622,2.894l1.206,9.165,3.136-.482-1.206-9.165C228.793,2.653,227.587,2.653,226.622,2.894Zm-67.293,19.3,3.618,8.2,2.894-1.206-3.618-8.442A16.059,16.059,0,0,1,159.329,22.19Zm62.71-18.572,1.447,9.165,3.136-.724-1.447-9.165C224.21,3.136,223,3.377,222.039,3.618ZM208.291,6.271l1.93,8.924,3.135-.724-1.93-8.924C210.221,5.789,209.256,6.03,208.291,6.271Zm-31.6,8.924,2.894,8.683,3.136-.965L179.83,14.23C178.866,14.472,177.9,14.954,176.695,15.2ZM99.754,58.369l5.306,6.753,2.653-1.93-5.306-6.753A10.709,10.709,0,0,0,99.754,58.369Zm-3.618,2.894,5.306,6.753,2.412-1.93-5.306-6.753A16.9,16.9,0,0,0,96.136,61.263Zm-6.995,6.03,5.547,6.512L97.1,71.634l-5.547-6.512A21.744,21.744,0,0,0,89.142,67.293Zm14.23-11.818,5.306,6.995L111.09,60.3,105.784,53.3A21.746,21.746,0,0,1,103.372,55.475ZM85.524,70.429,91.071,76.7l2.412-2.171-5.789-6.271A9.211,9.211,0,0,1,85.524,70.429Zm-6.512,6.512,5.789,6.03L87.212,80.8l-5.789-6.03A10.368,10.368,0,0,0,79.011,76.941Zm3.136-3.377,5.789,6.271,2.412-2.171-5.789-6.271A21.746,21.746,0,0,1,82.147,73.564ZM107.231,52.58l5.065,6.995,2.653-1.93-5.306-6.995C108.919,51.374,107.955,51.857,107.231,52.58Zm15.2-10.613,4.583,7.477,2.653-1.688-4.583-7.477C124.356,40.762,123.391,41.244,122.426,41.968Zm16.16-9.648,4.1,7.959,2.894-1.447-4.1-7.959A32.3,32.3,0,0,0,138.586,32.32Zm4.1-2.171,4.1,7.959,2.894-1.447-4.1-7.959Zm4.1-2.171,3.859,7.959,2.894-1.447-3.859-7.959Zm-12.3,6.753,4.341,7.718L141.722,41l-4.341-7.718A16.21,16.21,0,0,0,134.486,34.732Zm-7.959,4.824,4.583,7.477,2.653-1.688-4.583-7.477A9.959,9.959,0,0,0,126.527,39.556Zm-11.818,7.477,4.824,7.236,2.653-1.688-4.824-7.236C116.4,45.827,115.673,46.55,114.708,47.033Zm3.859-2.653,4.824,7.236,2.653-1.688-4.824-7.236A16.222,16.222,0,0,1,118.567,44.38Zm36.661-20.26,3.618,8.2,2.894-1.206-3.618-8.2A14.753,14.753,0,0,0,155.229,24.119Z"/><path class="h" d="M409.123,58.045l2.653,1.93,7.477-10.854c-.965-.724-1.688-1.206-2.653-1.93ZM370.532,36.1l2.894,1.447,5.789-12.3L376.321,23.8Zm-85.624-22.19,3.136.241L289.25.641c-.965,0-2.171-.241-3.136-.241Zm43.9,7.477,3.135.724,3.618-13.024c-.965-.241-2.171-.482-3.136-.724Zm165.7,137.239,1.447,2.894,11.095-5.306-1.447-2.894Zm-22.431-38.35,1.93,2.653,10.371-7.236c-.724-.965-1.206-1.688-1.93-2.653ZM240.288.641l1.206,13.507,3.136-.241L243.423.4A14.836,14.836,0,0,0,240.288.641ZM521.519,197.214l-11.577,3.136.724,3.136,11.577-3.136C522,199.143,521.76,198.179,521.519,197.214ZM194.461,8.842l3.618,13.024,3.136-.724L197.6,7.877A22.4,22.4,0,0,1,194.461,8.842ZM443.373,86.506l2.171,2.171,9.165-9.165a21.742,21.742,0,0,1-2.171-2.412ZM.3,246.176l11.336.965.241-3.136L.541,243.041A12.742,12.742,0,0,0,.3,246.176ZM150.564,25.243l5.789,12.3,2.894-1.447-5.789-12.3A16.209,16.209,0,0,1,150.564,25.243ZM529.237,242.8l-11.336.965.241,3.136,11.336-.965A14.838,14.838,0,0,0,529.237,242.8ZM75.07,79.511l9.165,9.165,2.171-2.171-9.165-9.165Zm35.455-30.39L118,59.975l2.653-1.93-7.718-10.854A16.9,16.9,0,0,1,110.525,49.121ZM7.536,200.349l11.336,2.894.724-3.136L8.259,197.214C8.018,198.179,7.777,199.143,7.536,200.349Zm38.109-84.659,10.371,7.236,1.93-2.653-10.371-7.236A18.407,18.407,0,0,0,45.644,115.691ZM22.731,156.211l11.095,5.306,1.447-2.894-11.095-5.306Z" transform="translate(0.565 0.565)"/><path class="f" d="M389.428,40.762l2.894,1.447,4.341-7.718a17.99,17.99,0,0,1-2.894-1.688Zm12.3-2.894-4.583,7.477,2.653,1.688,4.583-7.477A9.96,9.96,0,0,0,401.728,37.867Zm-12.06-6.995-4.1,7.959,2.894,1.447,4.1-7.959A16.06,16.06,0,0,1,389.669,30.873Zm16.16,9.407-4.583,7.477,2.653,1.688,4.583-7.477C407.517,41.244,406.552,40.762,405.829,40.279ZM385.327,28.7l-4.1,7.959,2.894,1.447,4.1-7.959Zm-16.884-7.959-3.618,8.442,2.894,1.206,3.618-8.2Zm41.244,21.949-4.824,7.236,2.653,1.688,4.824-7.236A16.222,16.222,0,0,1,409.688,42.691ZM369.167,30.873l2.894,1.206,3.618-8.2a14.754,14.754,0,0,0-2.894-1.206Zm12.06-4.341-3.859,7.959,2.894,1.447,3.859-7.959Zm68.5,48-5.789,6.03,2.412,2.171,5.789-6.03A10.368,10.368,0,0,1,449.726,74.529ZM413.547,45.344l-4.824,7.236,2.653,1.688,4.824-7.236C415.235,46.55,414.512,45.827,413.547,45.344Zm25.808,19.778-5.547,6.512,2.412,2.171,5.547-6.512A21.749,21.749,0,0,0,439.355,65.122Zm6.995,6.271-5.789,6.271,2.412,2.171,5.789-6.271A21.747,21.747,0,0,1,446.349,71.393Zm-3.377-3.136-5.789,6.271L439.6,76.7l5.547-6.271ZM421.265,50.651,416.2,57.645l2.653,1.93,5.065-6.995A25.259,25.259,0,0,1,421.265,50.651Zm3.618,2.653L419.818,60.3l2.653,1.93,5.306-6.995A12.119,12.119,0,0,1,424.883,53.3Zm3.859,2.894-5.306,6.753,2.653,1.93,5.306-6.753A7.559,7.559,0,0,1,428.742,56.2Zm3.618,2.894-5.306,6.753,2.412,1.93,5.306-6.753A16.894,16.894,0,0,1,432.36,59.092ZM304.286,12.06l3.136.482,1.447-9.165a14.116,14.116,0,0,0-3.136-.482Zm-8.924-.965,3.136.482L299.7,2.412c-.965-.241-2.171-.241-3.136-.482Zm-4.583-.482,3.135.241.965-9.165c-.965,0-2.171-.241-3.136-.241ZM314.9,4.583l-1.688,8.924,3.136.724,1.688-9.165A16.6,16.6,0,0,1,314.9,4.583ZM456.721,81.765l-6.03,6.03,1.688,1.688,6.03-5.789A6.5,6.5,0,0,0,456.721,81.765ZM301.151,2.412l-1.206,9.165,3.136.482,1.206-9.165C303.321,2.653,302.115,2.653,301.151,2.412Zm-28.22,6.995h3.136l.241-9.165A13.753,13.753,0,0,1,273.172,0Zm4.342,0,3.135.241L280.89.482c-.965,0-2.171-.241-3.136-.241Zm4.583.241,3.136.241.724-9.165c-.965,0-2.171-.241-3.136-.241ZM364.1,19.054,360.726,27.5,363.62,28.7,367,20.26C366.273,19.778,365.067,19.537,364.1,19.054ZM268.348,9.165h3.136L271.725,0H268.59Zm79.835,13.748,3.136.965,2.894-8.683c-.965-.241-1.93-.724-3.136-.965Zm-6.03-11.577L339.5,20.019l3.135.965,2.653-8.683C344.324,12.06,343.118,11.577,342.154,11.336Zm17.607,6.03-3.135,8.442,2.894,1.206,3.136-8.442C361.932,18.09,360.726,17.848,359.761,17.366Zm-13.024-4.583-2.894,8.683,3.136.965,2.894-8.683A22.4,22.4,0,0,0,346.736,12.783ZM324.064,6.512l-2.171,8.924,3.135.724L327.2,7.236C326.235,6.995,325.029,6.753,324.064,6.512Zm2.412,10.13,3.135.724,2.171-8.924c-.965-.241-2.171-.482-3.136-.724Zm11.095-6.753-2.412,8.924,3.135.965,2.412-8.683C339.742,10.613,338.777,10.371,337.571,9.889Zm-18.09-4.341-1.93,8.924,3.136.724,1.93-8.924C321.652,6.03,320.687,5.789,319.481,5.547ZM523.049,201.879l-7.236,1.688.724,3.136,7.236-1.688C523.531,203.809,523.29,202.844,523.049,201.879Zm1.206,4.583-7.236,1.688.724,3.136,7.236-1.688A19.033,19.033,0,0,1,524.255,206.462Zm.965,4.341-7.236,1.447.724,3.136,7.236-1.447A11.966,11.966,0,0,1,525.22,210.8ZM459.374,84.659l-6.03,5.789,2.171,2.412,6.03-5.789A6.841,6.841,0,0,0,459.374,84.659Zm61.263,108.3-7.236,2.171.965,3.136,7.236-2.171C521.36,194.884,520.878,193.92,520.637,192.955Zm-1.206-4.583-7.236,2.171.965,3.136,7.236-2.171A15.6,15.6,0,0,1,519.431,188.372Zm-2.894-8.683L509.3,182.1l.965,3.136,7.236-2.412C517.26,181.619,516.778,180.654,516.537,179.689Zm1.447,4.341-7.236,2.412.965,3.136,7.236-2.412C518.707,185.96,518.225,185,517.984,184.031ZM259.183,0l.241,9.165h3.136L262.319,0Zm270.86,247.706-6.995.482.241,3.136,6.995-.482A12.738,12.738,0,0,0,530.043,247.706Zm.482,9.165-6.995.241v3.136l6.753-.241A4.7,4.7,0,0,0,530.526,256.871Zm0-4.583-6.995.482.241,3.136,6.995-.482A13.752,13.752,0,0,1,530.526,252.288ZM513.4,170.765l-7.236,2.653.965,2.412,7.236-2.894A4.546,4.546,0,0,1,513.4,170.765Zm14.954,58.369-6.995.965.482,3.136,6.995-.965A12.222,12.222,0,0,1,528.355,229.134Zm-.724-4.583-7.236,1.206.482,3.136,6.995-1.206A13.755,13.755,0,0,0,527.632,224.551Zm1.206,9.165-6.995.965.482,3.136,6.995-.965C529.079,235.887,529.079,234.923,528.837,233.717Zm.482,4.583-6.995.724.241,3.136,6.995-.724A14.838,14.838,0,0,0,529.32,238.3Zm-3.377-22.913-7.236,1.447.724,3.136,7.236-1.447C526.426,217.557,526.184,216.592,525.943,215.386Zm-14.23-48.962-7.236,2.894,1.206,2.894,7.236-2.894A10.437,10.437,0,0,1,511.713,166.424Zm-31.6-56.68-6.512,4.824,1.93,2.653,6.512-4.824A10.708,10.708,0,0,0,480.116,109.743Zm6.03,8.683-6.753,4.583L480.6,124.7l6.753-4.583A10.211,10.211,0,0,0,486.146,118.426Zm-11.577-16.16-6.512,5.065,1.93,2.653,6.512-5.065A18.408,18.408,0,0,0,474.569,102.266Zm13.507,19.054-6.753,4.341,1.688,2.653,6.753-4.341A9.959,9.959,0,0,0,488.076,121.32ZM462.75,88.036l-6.271,5.547L458.65,96l6.271-5.547A19.588,19.588,0,0,1,462.75,88.036Zm8.924,10.613-6.271,5.065,1.93,2.412,6.271-5.065A16.9,16.9,0,0,0,471.675,98.648Zm-6.03-7.236-6.271,5.547,1.688,1.93,6.512-5.306C467.092,93.1,466.368,92.136,465.645,91.412Zm11.818,14.472-6.512,4.824,1.93,2.653,6.512-4.824C478.669,107.572,478.187,106.849,477.463,105.884Zm13.024,19.3-6.753,4.341,1.688,2.653,6.753-4.341A16.222,16.222,0,0,0,490.488,125.179Zm13.748,24.361-6.995,3.377,1.447,2.894,6.995-3.377A8.15,8.15,0,0,1,504.236,149.54Zm3.859,8.683-7.236,2.894,1.206,2.894,6.995-3.136A5.934,5.934,0,0,0,508.095,158.223Zm1.93,4.1-7.236,3.136,1.206,2.894,7.236-3.136A14.753,14.753,0,0,1,510.024,162.323Zm-7.959-16.884-6.995,3.618,1.447,2.894,6.995-3.618Zm-8.924-16.4-6.753,4.1,1.206,1.93,6.995-3.859C493.864,130.727,493.623,129.762,493.141,129.039Zm4.583,8.2-6.995,3.859,1.447,2.894,6.995-3.859A32.307,32.307,0,0,0,497.723,137.239Zm2.171,4.1-6.995,3.618,1.447,2.894,6.995-3.618A32.309,32.309,0,0,0,499.894,141.339ZM11.96,186.925l7.236,2.412.965-3.136-7.236-2.412C12.683,185,12.2,185.96,11.96,186.925Zm19.778-47.033,6.995,3.859,1.447-2.894L33.185,137A32.3,32.3,0,0,1,31.738,139.892Zm-2.171,4.1,6.995,3.618,1.447-2.894L31.014,141.1A32.3,32.3,0,0,1,29.567,143.993Zm6.995-12.542,6.995,3.859,1.206-1.93-6.753-4.1C37.285,129.762,37.044,130.727,36.561,131.45Zm1.93-3.618,6.753,4.341,1.688-2.653-6.753-4.341A16.223,16.223,0,0,1,38.491,127.833ZM27.4,148.334l6.995,3.618,1.447-2.894-6.995-3.618ZM17.99,169.559l7.236,2.894,1.206-2.894L19.2,166.665A25.115,25.115,0,0,1,17.99,169.559Zm7.477-17.125,6.995,3.377,1.447-2.894-7.236-3.377C26.19,150.5,25.949,151.47,25.467,152.434Zm-3.859,8.442,6.995,3.136,1.206-2.894-7.236-2.894C22.331,159.188,21.849,159.911,21.607,160.876Zm-1.93,4.341,6.995,3.136,1.206-2.894-7.236-3.136A6.856,6.856,0,0,1,19.678,165.218ZM57.063,101.06l6.271,5.065,1.93-2.412-6.271-5.065A16.9,16.9,0,0,1,57.063,101.06Zm6.271-7.236,6.512,5.306,1.688-1.93-6.271-5.789A16.9,16.9,0,0,0,63.334,93.824Zm2.894-3.377L72.5,96l2.171-2.412L68.4,88.036A19.585,19.585,0,0,0,66.228,90.448ZM54.41,104.919l6.512,5.065,1.93-2.653-6.512-5.065A18.408,18.408,0,0,0,54.41,104.919Zm-10.854,15.2,6.753,4.583,1.206-1.688-6.753-4.583A10.212,10.212,0,0,0,43.556,120.114Zm7.959-11.577,6.512,4.824,1.93-2.653-6.512-4.824C52.721,106.849,52.239,107.572,51.515,108.537ZM41.144,123.973l6.753,4.341,1.688-2.653-6.753-4.341A9.959,9.959,0,0,0,41.144,123.973ZM48.862,112.4l6.512,4.824,1.93-2.653-6.512-4.824A10.709,10.709,0,0,0,48.862,112.4Zm481.9,149.058-6.753.241v3.135l6.753-.241ZM1.106,241.676,8.1,242.4l.241-3.136-6.995-.724A14.836,14.836,0,0,1,1.106,241.676ZM.382,255.424l6.995.482.241-3.136-6.995-.482A13.753,13.753,0,0,0,.382,255.424Zm.241-4.583,6.995.482.241-3.136-6.995-.482A12.742,12.742,0,0,0,.624,250.841Zm1.447-18.572,6.995.965.724-3.136-7.236-.965A12.22,12.22,0,0,1,2.071,232.269Zm-.482,4.583,6.995.965.482-3.136-6.995-.965C1.83,234.923,1.83,235.887,1.588,236.852ZM72.5,83.453l6.03,5.789,1.688-1.688-6.03-6.03C73.464,82.247,72.982,82.971,72.5,83.453ZM.141,264.589l6.753.241v-3.136l-6.753-.241Zm0-4.583,6.753.241v-3.136L-.1,256.871A13.753,13.753,0,0,1,.141,260.007Zm4.1-41.485,7.236,1.447.724-3.136-7.236-1.447C4.724,216.592,4.483,217.557,4.241,218.521Zm-1.447,9.165,6.995,1.206.482-3.136-7.236-1.206A13.753,13.753,0,0,1,2.794,227.687Zm6.512-31.838,7.236,2.171.965-3.136-7.236-2.171A22.4,22.4,0,0,0,9.307,195.849Zm-2.171,9.165,7.236,1.688.724-3.136-7.236-1.688C7.618,202.844,7.377,203.809,7.136,205.015Zm6.271-22.431L20.643,185l.965-3.136-7.236-2.412C14.13,180.654,13.648,181.619,13.407,182.584Zm-2.894,8.924,7.236,2.171.965-3.136-7.236-2.171A15.6,15.6,0,0,1,10.513,191.508Zm6.03-18.331,7.236,2.894.965-2.412-7.236-2.653A8.568,8.568,0,0,1,16.542,173.177ZM254.6.241l.241,9.165h3.136L257.736,0A14.836,14.836,0,0,1,254.6.241ZM6.171,209.6l7.236,1.688.724-3.136-7.236-1.688A11.966,11.966,0,0,0,6.171,209.6Zm-.965,4.341,7.236,1.447.724-3.136L5.93,210.8A19.041,19.041,0,0,0,5.206,213.939ZM181.278,13.748l2.894,8.683,3.136-.965-2.894-8.683A11.941,11.941,0,0,0,181.278,13.748Zm4.341-1.447,2.653,8.683,3.136-.965-2.653-8.683C187.79,11.577,186.584,12.06,185.619,12.3Zm4.583-1.447,2.412,8.683,3.136-.965-2.412-8.924A10.333,10.333,0,0,1,190.2,10.854Zm8.924-2.412,2.171,8.924,3.136-.724-2.171-8.924C201.3,7.959,200.091,8.2,199.126,8.442Zm4.583-1.206,2.171,8.924,3.136-.724-2.171-8.924C205.638,6.753,204.673,6.995,203.709,7.236ZM163.67,20.26l3.377,8.442,2.894-1.206-3.377-8.442C165.841,19.537,164.635,19.778,163.67,20.26ZM69.123,86.83l6.03,5.789,2.171-2.412-6.03-5.789A21.746,21.746,0,0,1,69.123,86.83Zm98.889-68.258,3.136,8.442,2.894-1.206-3.136-8.442C170.183,17.848,168.977,18.09,168.012,18.572ZM212.874,5.306l1.688,9.165,3.136-.724-1.688-8.924A12.221,12.221,0,0,0,212.874,5.306ZM231.2,2.171l1.206,9.165,3.136-.482L234.34,1.688A14.117,14.117,0,0,1,231.2,2.171Zm4.583-.482.965,9.165,3.136-.241-.965-9.165A14.836,14.836,0,0,0,235.787,1.688Zm9.407-.965.724,9.165,3.136-.241L248.329.482A13.753,13.753,0,0,1,245.194.724Zm4.583-.241.482,9.165,3.136-.241L252.912.241C251.947.241,250.982.482,249.776.482ZM226.622,2.894l1.206,9.165,3.136-.482-1.206-9.165C228.793,2.653,227.587,2.653,226.622,2.894Zm-67.293,19.3,3.618,8.2,2.894-1.206-3.618-8.442A16.059,16.059,0,0,1,159.329,22.19Zm62.71-18.572,1.447,9.165,3.136-.724-1.447-9.165C224.21,3.136,223,3.377,222.039,3.618ZM208.291,6.271l1.93,8.924,3.135-.724-1.93-8.924C210.221,5.789,209.256,6.03,208.291,6.271Zm-31.6,8.924,2.894,8.683,3.136-.965L179.83,14.23C178.866,14.472,177.9,14.954,176.695,15.2ZM99.754,58.369l5.306,6.753,2.653-1.93-5.306-6.753A10.709,10.709,0,0,0,99.754,58.369Zm-3.618,2.894,5.306,6.753,2.412-1.93-5.306-6.753A16.9,16.9,0,0,0,96.136,61.263Zm-6.995,6.03,5.547,6.512L97.1,71.634l-5.547-6.512A21.744,21.744,0,0,0,89.142,67.293Zm14.23-11.818,5.306,6.995L111.09,60.3,105.784,53.3A21.746,21.746,0,0,1,103.372,55.475ZM85.524,70.429,91.071,76.7l2.412-2.171-5.789-6.271A9.211,9.211,0,0,1,85.524,70.429Zm-6.512,6.512,5.789,6.03L87.212,80.8l-5.789-6.03A10.368,10.368,0,0,0,79.011,76.941Zm3.136-3.377,5.789,6.271,2.412-2.171-5.789-6.271A21.746,21.746,0,0,1,82.147,73.564ZM107.231,52.58l5.065,6.995,2.653-1.93-5.306-6.995C108.919,51.374,107.955,51.857,107.231,52.58Zm15.2-10.613,4.583,7.477,2.653-1.688-4.583-7.477C124.356,40.762,123.391,41.244,122.426,41.968Zm16.16-9.648,4.1,7.959,2.894-1.447-4.1-7.959A32.3,32.3,0,0,0,138.586,32.32Zm4.1-2.171,4.1,7.959,2.894-1.447-4.1-7.959Zm4.1-2.171,3.859,7.959,2.894-1.447-3.859-7.959Zm-12.3,6.753,4.341,7.718L141.722,41l-4.341-7.718A16.21,16.21,0,0,0,134.486,34.732Zm-7.959,4.824,4.583,7.477,2.653-1.688-4.583-7.477A9.959,9.959,0,0,0,126.527,39.556Zm-11.818,7.477,4.824,7.236,2.653-1.688-4.824-7.236C116.4,45.827,115.673,46.55,114.708,47.033Zm3.859-2.653,4.824,7.236,2.653-1.688-4.824-7.236A16.222,16.222,0,0,1,118.567,44.38Zm36.661-20.26,3.618,8.2,2.894-1.206-3.618-8.2A14.753,14.753,0,0,0,155.229,24.119Z"/><g transform="translate(32.944 33.767)"><path class="i" d="M13.6,111.353a2.194,2.194,0,0,1,.965-1.93,6.778,6.778,0,0,1,3.618-.724c1.688,0,2.894.241,3.618.965a2.977,2.977,0,0,1,.965,1.93,2.194,2.194,0,0,1-.965,1.93,5.837,5.837,0,0,1-3.377.724c-1.688,0-2.894-.241-3.618-.965A1.807,1.807,0,0,1,13.6,111.353Zm1.447,0c0,.241,0,.482.241.482a1.854,1.854,0,0,0,.724.482c.482,0,1.206.241,2.171.241a5.353,5.353,0,0,0,2.171-.241c.482,0,.724-.241.724-.482.241-.241.241-.241.241-.482s0-.482-.241-.482a1.854,1.854,0,0,0-.724-.482c-.482,0-1.206-.241-2.171-.241a5.354,5.354,0,0,0-2.171.241c-.482,0-.724.241-.724.482C15.047,111.112,15.047,111.112,15.047,111.353Z" transform="translate(-13.6 119.71)"/><path class="i" d="M23.624,96.247l-.482,1.447-6.271-.965a7.223,7.223,0,0,1,.965,2.412L16.388,98.9a3.428,3.428,0,0,0-.482-1.447A2.907,2.907,0,0,0,14.7,96.247l.241-1.447Z" transform="translate(-12.047 100.084)"/><path class="i" d="M15.258,93.722c.241-.724.482-1.447,1.206-1.688.724-.482,1.93-.482,3.618-.241a5.514,5.514,0,0,1,3.377,1.447,2.165,2.165,0,0,1,.482,2.171,2.8,2.8,0,0,1-1.447,1.93c-.724.482-1.93.482-3.618.241A5.514,5.514,0,0,1,15.5,96.134,3.968,3.968,0,0,1,15.258,93.722Zm1.206.241v.482c0,.241.241.241.724.482a4.816,4.816,0,0,0,2.171.482,8.308,8.308,0,0,0,2.171.241c.482,0,.724,0,.724-.241.241-.241.241-.241.241-.482v-.482c0-.241-.241-.241-.724-.482a4.816,4.816,0,0,0-2.171-.482,8.308,8.308,0,0,0-2.171-.241c-.482,0-.724,0-.724.241S16.706,93.963,16.464,93.963Z" transform="translate(-11.399 95.615)"/><path class="i" d="M26.224,80.464l1.447.482-1.93,5.547a5.045,5.045,0,0,1-1.447-.965,6.964,6.964,0,0,1-1.447-2.412,7.757,7.757,0,0,0-.965-1.688,3.33,3.33,0,0,0-.965-.724h-.965c.241.241,0,.482,0,.724v.965a3.33,3.33,0,0,0,.965.724l-.724,1.447a5.231,5.231,0,0,1-1.688-1.447,2.663,2.663,0,0,1,0-1.93A3.076,3.076,0,0,1,19.712,79.5a2.563,2.563,0,0,1,1.93-.241c.482.241.724.241.965.482a3.329,3.329,0,0,1,.724.965,3.927,3.927,0,0,1,.724,1.447c.241.724.482.965.482,1.206s.241.241.241.482Z" transform="translate(-6.929 78)"/><path class="i" d="M19.563,78.132a2.174,2.174,0,0,1,1.447-1.447,5.071,5.071,0,0,1,3.618.482,6.365,6.365,0,0,1,3.136,1.93A2.344,2.344,0,0,1,28,81.267a2.884,2.884,0,0,1-1.688,1.688c-.724.241-1.93,0-3.618-.482a6.365,6.365,0,0,1-3.136-1.93C19.322,79.579,19.081,78.855,19.563,78.132Zm1.206.482V79.1a.519.519,0,0,0,.482.482l1.93.965c.965.241,1.688.482,1.93.482h.965c.241,0,.241-.241.241-.482v-.482a.519.519,0,0,0-.482-.482l-1.93-.965c-.965-.241-1.688-.482-1.93-.482H21.01A.842.842,0,0,0,20.769,78.614Z" transform="translate(-5.574 74.303)"/><path class="i" d="M29.224,71.612l.482-1.447c.482.241.724.241.965,0,.241,0,.482-.241.724-.482a.734.734,0,0,0,0-.965l-.724-.724a1.823,1.823,0,0,0-.965-.241c-.241,0-.482.241-.724.482,0,.241-.241.482-.241.724l-1.206-.724a1.823,1.823,0,0,0,.241-.965c0-.241-.241-.482-.482-.724a.452.452,0,0,0-.724,0,.519.519,0,0,0-.482.482.452.452,0,0,0,0,.724c0,.241.241.482.482.724l-.965,1.206c-.482-.241-.724-.724-.965-.965a1.807,1.807,0,0,1-.241-1.206,1.842,1.842,0,0,1,.482-1.206,3.242,3.242,0,0,1,1.688-1.447,1.6,1.6,0,0,1,1.447.241c.724.241.965.965.965,1.93a1.326,1.326,0,0,1,1.206-.724,3.059,3.059,0,0,1,1.447.241,2.55,2.55,0,0,1,1.447,1.688,2.344,2.344,0,0,1-.241,2.171,4.1,4.1,0,0,1-1.447,1.447A6.677,6.677,0,0,1,29.224,71.612Z" transform="translate(1.649 57.668)"/><path class="i" d="M26.282,63.443c.482-.724.965-1.206,1.688-1.206a4.884,4.884,0,0,1,3.377.965A5.262,5.262,0,0,1,34,65.613a2.344,2.344,0,0,1-.241,2.171,2.148,2.148,0,0,1-1.93,1.206c-.724.241-1.93-.241-3.377-.965A5.262,5.262,0,0,1,25.8,65.613,7.042,7.042,0,0,1,26.282,63.443Zm1.206.724c0,.241-.241.241,0,.482,0,.241.241.482.482.724a16.442,16.442,0,0,0,1.688,1.206l1.93.965h.965c.241,0,.241-.241.482-.482,0-.241.241-.482,0-.482,0-.241-.241-.482-.482-.724a16.443,16.443,0,0,0-1.688-1.206l-1.93-.965h-.965Z" transform="translate(3.626 54.019)"/><path class="i" d="M40.953,56.612l-1.447-.965-2.171,2.894-1.206-.965L34.2,51.306l.965-1.206,4.341,3.377.724-.965,1.206.965-.724.724,1.447.965Zm-2.412-1.93-2.412-1.93,1.206,3.377Z" transform="translate(15.486 36.971)"/><path class="i" d="M36.324,48.965A2.194,2.194,0,0,1,38.253,48a4.527,4.527,0,0,1,3.136,1.688,5.72,5.72,0,0,1,2.171,2.894,2.46,2.46,0,0,1-.482,2.171,2.351,2.351,0,0,1-2.171.965,5.021,5.021,0,0,1-3.136-1.688A5.72,5.72,0,0,1,35.6,51.136,3.89,3.89,0,0,1,36.324,48.965Zm1.206.965c-.241.241-.241.241-.241.482a.886.886,0,0,0,.241.724,4.1,4.1,0,0,0,1.447,1.447,12.062,12.062,0,0,0,1.688,1.206,1.191,1.191,0,0,0,.724.241c.241,0,.241-.241.482-.241.241-.241.241-.241.241-.482a.886.886,0,0,0-.241-.724,7.933,7.933,0,0,0-1.447-1.447,12.06,12.06,0,0,0-1.688-1.206,1.191,1.191,0,0,0-.724-.241C37.771,49.688,37.53,49.688,37.53,49.93Z" transform="translate(17.463 34.006)"/><path class="i" d="M48.877,45.842l1.206-1.206a1.253,1.253,0,0,0,.965.482.886.886,0,0,0,.724-.241,1.253,1.253,0,0,0,.482-.965c0-.482-.241-.724-.482-1.206a1.292,1.292,0,0,0-.965-.724,1.45,1.45,0,0,0-.965.241c-.724.241-.724.724-.724,1.206l-1.206.724L45.5,40.294,48.877,37.4l.965,1.206L47.43,40.777l.724,1.206a3.33,3.33,0,0,1,.724-.965,2.739,2.739,0,0,1,1.93-.724,2.978,2.978,0,0,1,1.93.965,2.739,2.739,0,0,1,.724,1.93,3.1,3.1,0,0,1-.965,2.412,2.739,2.739,0,0,1-1.93.724A2.6,2.6,0,0,1,48.877,45.842Z" transform="translate(31.441 19.039)"/><path class="i" d="M48.765,36.538a2.46,2.46,0,0,1,2.171-.482,5.72,5.72,0,0,1,2.894,2.171A6.334,6.334,0,0,1,55.518,41.6a2.194,2.194,0,0,1-.965,1.93,2.46,2.46,0,0,1-2.171.482,8.781,8.781,0,0,1-2.894-2.171A6.7,6.7,0,0,1,47.8,38.709,3.057,3.057,0,0,1,48.765,36.538Zm.965.965c-.241.241-.241.241-.241.482a.886.886,0,0,0,.241.724c.241.482.724.965,1.206,1.688l1.447,1.447a.886.886,0,0,0,.724.241c.241,0,.482,0,.482-.241.241-.241.241-.241.241-.482a.886.886,0,0,0-.241-.724,5.568,5.568,0,0,0-1.206-1.688L50.936,37.5a.886.886,0,0,0-.724-.241A.842.842,0,0,0,49.73,37.5Z" transform="translate(34.688 17.007)"/><path class="i" d="M62.637,29.406l-1.206.965c-.241-.241-.482-.482-.724-.482a.886.886,0,0,0-.724.241c-.241,0-.241.482-.241.724a4.817,4.817,0,0,0,.724,1.93,1.629,1.629,0,0,1,.965-1.447,1.821,1.821,0,0,1,1.93-.241,3.243,3.243,0,0,1,1.688,1.447,2.46,2.46,0,0,1,.482,2.171,2.727,2.727,0,0,1-3.618,1.93A4.559,4.559,0,0,1,59.5,34.23c-.724-1.447-1.206-2.412-.965-3.377a2.772,2.772,0,0,1,1.447-2.171,4.472,4.472,0,0,1,1.688-.482C61.672,28.441,62.4,28.924,62.637,29.406Zm-1.206,5.065c.241.482.724.724.965.965h.965c.241-.241.482-.482.482-.724a1.559,1.559,0,0,0-.482-1.206c-.241-.482-.724-.724-.965-.965h-.965c-.241.241-.482.482-.482.724C61.19,33.747,61.19,33.989,61.431,34.471Z" transform="translate(49.759 6.049)"/><path class="i" d="M62.043,27.234a2.344,2.344,0,0,1,2.171-.241,5.261,5.261,0,0,1,2.412,2.653c.724,1.447,1.206,2.653.965,3.377a1.814,1.814,0,0,1-1.206,1.688,2.344,2.344,0,0,1-2.171.241A5.262,5.262,0,0,1,61.8,32.3c-.724-1.447-1.206-2.653-.965-3.377A2.5,2.5,0,0,1,62.043,27.234Zm.724,1.206c-.241,0-.241.241-.482.482v.724c0,.482.482.965.965,1.93a6,6,0,0,0,1.206,1.688c.241.241.482.482.724.482h.482c.241,0,.241-.241.482-.482V32.54c0-.482-.482-.965-.965-1.93a6,6,0,0,0-1.206-1.688c-.241-.241-.482-.482-.724-.482Z" transform="translate(53.007 4.121)"/><path class="i" d="M73.782,23.918,73.3,22.471,78.606,20.3l.482,1.206a6.053,6.053,0,0,0-.482,2.412,5.879,5.879,0,0,0,0,2.894,8.55,8.55,0,0,0,.724,2.653l-1.93.482a9.679,9.679,0,0,1-.724-3.618,18.745,18.745,0,0,1,.482-3.859Z" transform="translate(70.693 -5.105)"/><path class="i" d="M77.9,19.793a2.344,2.344,0,0,1,2.171.241A5.381,5.381,0,0,1,82,23.169a6.827,6.827,0,0,1,.482,3.618,2.174,2.174,0,0,1-1.447,1.447,2.344,2.344,0,0,1-2.171-.241,5.511,5.511,0,0,1-1.93-2.894,6.827,6.827,0,0,1-.482-3.618A1.806,1.806,0,0,1,77.9,19.793ZM78.385,21c-.241,0-.241.241-.482.241,0,.241-.241.482,0,.724a12.234,12.234,0,0,0,.482,2.171,4.618,4.618,0,0,0,.965,1.93c.241.241.482.482.724.482h.482c.241,0,.241-.241.482-.482,0-.241.241-.482,0-.724a12.236,12.236,0,0,0-.482-2.171,4.619,4.619,0,0,0-.965-1.93c-.241-.241-.482-.482-.724-.482C78.626,21,78.626,21,78.385,21Z" transform="translate(75.014 -6.045)"/><path class="i" d="M91.606,20.059a1.253,1.253,0,0,1-.965-.482,1.253,1.253,0,0,1-.482-.965,1.981,1.981,0,0,1,.241-1.688,3.887,3.887,0,0,1,1.688-.965,2.563,2.563,0,0,1,1.93.241,1.629,1.629,0,0,1,.965,1.447v1.206c-.241.241-.482.724-.724.965a1.326,1.326,0,0,1,1.206.724,5.273,5.273,0,0,1,.724,1.206,2.46,2.46,0,0,1-.482,2.171,3.806,3.806,0,0,1-1.93,1.206,2.563,2.563,0,0,1-1.93-.241,1.814,1.814,0,0,1-1.206-1.688V21.747C90.882,20.541,91.123,20.3,91.606,20.059Zm0-1.688c0,.241.241.482.482.724a.886.886,0,0,0,.724.241c.241,0,.482-.241.724-.482a.886.886,0,0,0,.241-.724c0-.241-.241-.482-.482-.724a.886.886,0,0,0-.724-.241c-.241,0-.482.241-.724.482C91.606,17.647,91.606,17.888,91.606,18.37Zm.482,3.618a1.253,1.253,0,0,0,.482.965c.241.241.482.241.965.241.241,0,.482-.241.724-.482a1.807,1.807,0,0,0,.241-1.206,1.253,1.253,0,0,0-.482-.965c-.241-.241-.482-.241-.965-.241s-.724.241-.724.482A2.622,2.622,0,0,0,92.088,21.988Z" transform="translate(94.355 -11.376)"/><path class="i" d="M95.022,15.355a2.46,2.46,0,0,1,2.171.482,5.514,5.514,0,0,1,1.447,3.377c.241,1.688.241,2.894-.241,3.618a2.791,2.791,0,0,1-1.688,1.206,2.062,2.062,0,0,1-2.171-.724c-.724-.482-.965-1.688-1.447-3.377-.241-1.688-.241-2.894.241-3.618C93.575,15.838,94.057,15.6,95.022,15.355Zm.241,1.447a.842.842,0,0,0-.482.241.886.886,0,0,0-.241.724,8.308,8.308,0,0,0,.241,2.171c.241.965.241,1.688.482,1.93s.241.482.482.724c.241,0,.482.241.482,0a.842.842,0,0,0,.482-.241.886.886,0,0,0,.241-.724,8.308,8.308,0,0,0-.241-2.171c-.241-.965-.241-1.688-.482-1.93s-.241-.482-.482-.724Z" transform="translate(98.415 -12.22)"/><path class="i" d="M107.1,20.753l1.688-.241c0,.241.241.482.241.724a.886.886,0,0,0,.724.241,1.829,1.829,0,0,0,.965-.482,3.117,3.117,0,0,0,.482-1.93,2.085,2.085,0,0,1-1.447.724,2.19,2.19,0,0,1-1.688-.724,2.739,2.739,0,0,1-.724-1.93,2.948,2.948,0,0,1,.724-2.171,4.848,4.848,0,0,1,1.93-.965,2.351,2.351,0,0,1,2.171.965,5.622,5.622,0,0,1,.965,3.377,5.837,5.837,0,0,1-.724,3.377,2.533,2.533,0,0,1-2.171,1.206,3.486,3.486,0,0,1-1.688-.482C107.582,21.959,107.1,21.477,107.1,20.753Zm3.618-3.618a1.842,1.842,0,0,0-.482-1.206,1.253,1.253,0,0,0-.965-.482c-.241,0-.482.241-.724.482a1.807,1.807,0,0,0-.241,1.206,1.842,1.842,0,0,0,.482,1.206c.241.241.482.482.724.482s.482-.241.724-.482A1.328,1.328,0,0,0,110.718,17.136Z" transform="translate(118.416 -14)"/><path class="i" d="M112.794,14a2.194,2.194,0,0,1,1.93.965,6.778,6.778,0,0,1,.724,3.618c0,1.688-.241,2.894-.965,3.618a2.977,2.977,0,0,1-1.93.965,2.194,2.194,0,0,1-1.93-.965,6.388,6.388,0,0,1-.724-3.377c0-1.688.241-2.894.965-3.618A1.987,1.987,0,0,1,112.794,14Zm0,1.447c-.241,0-.482,0-.482.241a1.854,1.854,0,0,0-.482.724,5.353,5.353,0,0,0-.241,2.171,5.353,5.353,0,0,0,.241,2.171c0,.482.241.724.482.724.241.241.241.241.482.241s.482,0,.482-.241a1.855,1.855,0,0,0,.482-.724A5.354,5.354,0,0,0,114,18.583a5.354,5.354,0,0,0-.241-2.171c0-.482-.241-.724-.482-.724C113.277,15.447,113.036,15.447,112.794,15.447Z" transform="translate(122.369 -14)"/><path class="i" d="M124.777,23.724l-1.688-.241.724-6.271a7.223,7.223,0,0,1-2.412.965l.241-1.447a2.085,2.085,0,0,0,1.447-.724,2.907,2.907,0,0,0,1.206-1.206l1.447.241Z" transform="translate(138.607 -12.87)"/><path class="i" d="M127.852,15.3c.724.241,1.447.482,1.688,1.206.482.724.482,1.93.241,3.618a5.514,5.514,0,0,1-1.447,3.377,2.165,2.165,0,0,1-2.171.482,3.314,3.314,0,0,1-1.93-1.206c-.482-.724-.482-1.93-.241-3.618a5.514,5.514,0,0,1,1.447-3.377A4.77,4.77,0,0,1,127.852,15.3Zm-.241,1.447h-.482c-.241,0-.241.241-.482.724a4.816,4.816,0,0,0-.482,2.171,8.308,8.308,0,0,0-.241,2.171,1.056,1.056,0,0,0,.241.724c.241.241.241.241.482.241h.482c.241,0,.241-.241.482-.724a15.374,15.374,0,0,0,.482-2.171,8.308,8.308,0,0,0,.241-2.171,1.056,1.056,0,0,0-.241-.724C128.093,16.747,127.852,16.747,127.611,16.747Z" transform="translate(142.044 -12.164)"/><path class="i" d="M130.73,15.8c.724.241,1.447.482,1.688,1.206.482.724.482,1.93.241,3.618A5.514,5.514,0,0,1,131.212,24a2.165,2.165,0,0,1-2.171.482,3.751,3.751,0,0,1-1.93-1.447q-.724-1.085,0-3.618a5.514,5.514,0,0,1,1.447-3.377A5.354,5.354,0,0,1,130.73,15.8Zm-.241,1.447h-.482c-.241,0-.241.241-.482.724a4.816,4.816,0,0,0-.482,2.171,8.308,8.308,0,0,0-.241,2.171c0,.482,0,.724.241.724.241.241.241.241.482.241h.482c.241,0,.241-.241.482-.724a4.816,4.816,0,0,0,.482-2.171,8.307,8.307,0,0,0,.241-2.171c0-.482,0-.724-.241-.724A.842.842,0,0,1,130.488,17.247Z" transform="translate(146.16 -11.459)"/><path class="i" d="M138.971,27.083l-1.688-.482,1.93-6.03a3.966,3.966,0,0,1-2.412.482l.482-1.447c.482,0,.965-.241,1.688-.241a3.075,3.075,0,0,0,1.447-.965l1.206.482Z" transform="translate(160.35 -7.787)"/><path class="i" d="M141.371,27.783l-1.688-.482,1.93-6.03a8.57,8.57,0,0,1-2.412.482l.482-1.447a4.709,4.709,0,0,0,1.688-.241,2.215,2.215,0,0,0,1.447-.965l1.206.482Z" transform="translate(163.739 -6.799)"/><path class="i" d="M146.138,20.206a2.175,2.175,0,0,1,1.447,1.447,5.07,5.07,0,0,1-.482,3.618c-.482,1.447-1.206,2.653-1.93,2.894a2.344,2.344,0,0,1-2.171.241,2.115,2.115,0,0,1-1.447-1.688c-.241-.724,0-1.93.482-3.618a5.511,5.511,0,0,1,1.93-2.894A3.347,3.347,0,0,1,146.138,20.206Zm-.482,1.447h-.482a.519.519,0,0,0-.482.482,13.413,13.413,0,0,0-.965,1.93c-.241.965-.482,1.688-.482,1.93v.965c0,.241.241.241.482.482h.482a.519.519,0,0,0,.482-.482,13.416,13.416,0,0,0,.965-1.93c.241-.965.482-1.688.482-1.93v-.965C145.9,21.653,145.9,21.653,145.656,21.653Z" transform="translate(166.931 -5.493)"/><path class="i" d="M153.647,33.1l-1.447-.724,2.894-5.547a8.205,8.205,0,0,1-2.412.241l.724-1.447h1.688a3.6,3.6,0,0,0,1.688-.724l1.206.724Z" transform="translate(182.094 1.39)"/><path class="i" d="M159.489,34.2l-.724,1.447L153.7,32.753a2.907,2.907,0,0,1,1.206-1.206c.482-.241,1.447-.482,2.653-.965.965-.241,1.688-.482,1.93-.482q.724-.362.724-.724a1.45,1.45,0,0,0,.241-.965c0-.241-.241-.482-.482-.724s-.482-.241-.965-.241q-.362,0-.724.724l-1.447-.965A2.5,2.5,0,0,1,158.524,26a2.9,2.9,0,0,1,1.93.482,3.243,3.243,0,0,1,1.447,1.688,1.888,1.888,0,0,1-.241,1.93c-.241.241-.482.724-.724.965a5.273,5.273,0,0,1-1.206.724c-.241.241-.724.241-1.447.482a4.244,4.244,0,0,1-1.447.241.842.842,0,0,0-.482.241Z" transform="translate(184.212 2.943)"/><path class="i" d="M162.53,27.982c.724.482,1.206.965,1.206,1.688a5.269,5.269,0,0,1-1.206,3.377,5.609,5.609,0,0,1-2.653,2.653,2.344,2.344,0,0,1-2.171-.241,2.148,2.148,0,0,1-1.206-1.93,6.293,6.293,0,0,1,1.206-3.377,5.609,5.609,0,0,1,2.653-2.653A3.242,3.242,0,0,1,162.53,27.982Zm-.482,1.206c-.241,0-.482-.241-.482,0-.241,0-.482.241-.724.482a16.441,16.441,0,0,0-1.206,1.688l-.965,1.93c0,.482-.241.724,0,.965,0,.241.241.241.482.482.241,0,.241.241.482,0,.241,0,.482-.241.724-.482a16.443,16.443,0,0,0,1.206-1.688l.965-1.93c0-.482.241-.724,0-.965Z" transform="translate(188.166 5.061)"/><path class="i" d="M167.506,41.877l-1.206-.965,3.859-4.824a8.205,8.205,0,0,1-2.412-.241l.965-1.206a3.576,3.576,0,0,0,1.688.241,3.486,3.486,0,0,0,1.688-.482l.965.724Z" transform="translate(202.003 14.803)"/><path class="i" d="M168.4,39.559l1.447.965a1.45,1.45,0,0,0-.241.965c0,.241.241.482.482.724s.482.241.965.241a1.705,1.705,0,0,0,1.447-1.447c0-.241-.241-.482-.482-.724s-.482-.241-.724-.482l.965-.965a1.829,1.829,0,0,0,.965.482c.241,0,.482-.241.724-.482a.886.886,0,0,0,.241-.724c0-.241-.241-.482-.482-.724a.886.886,0,0,0-.724-.241c-.241,0-.482.241-.724.482l-.965-1.206c.482-.241.724-.482,1.206-.724h1.206c.482,0,.724.241,1.206.724a2.194,2.194,0,0,1,.965,1.93,1.772,1.772,0,0,1-.482,1.447,2.948,2.948,0,0,1-2.171.724c.241.482.482.724.482,1.206a1.842,1.842,0,0,1-.482,1.206,2.977,2.977,0,0,1-1.93.965,3.89,3.89,0,0,1-2.171-.724,2.09,2.09,0,0,1-.965-1.688A2.858,2.858,0,0,1,168.4,39.559Z" transform="translate(204.486 16.639)"/><path class="i" d="M177.053,38.465a2.194,2.194,0,0,1,.965,1.93c0,.965-.724,1.93-1.688,3.136a6.9,6.9,0,0,1-2.894,2.171,2.062,2.062,0,0,1-2.171-.724,2.351,2.351,0,0,1-.965-2.171,6.7,6.7,0,0,1,1.688-3.136,6.9,6.9,0,0,1,2.894-2.171A8.567,8.567,0,0,1,177.053,38.465Zm-.965,1.206c-.241-.241-.241-.241-.482-.241a.886.886,0,0,0-.724.241,4.1,4.1,0,0,0-1.447,1.447c-.724.724-1.206,1.206-1.206,1.688a1.191,1.191,0,0,0-.241.724.842.842,0,0,0,.241.482c.241.241.241.241.482.241a.886.886,0,0,0,.724-.241,4.1,4.1,0,0,0,1.447-1.447c.724-.724,1.206-1.206,1.206-1.688a1.191,1.191,0,0,0,.241-.724A.842.842,0,0,0,176.089,39.671Z" transform="translate(207.65 19.18)"/><path class="i" d="M179.706,53.095,178.5,51.889l4.583-4.1a4.654,4.654,0,0,1-2.412-.724l1.206-.965a3.429,3.429,0,0,0,1.447.482,3.576,3.576,0,0,0,1.688-.241l.965.965Z" transform="translate(219.228 31.323)"/><path class="i" d="M180.924,54.047l1.447-1.206L180.2,50.188l1.206-.965,6.753-.724.965.965-4.1,3.618.724.724-1.206.965-.724-.724-1.447,1.206Zm2.412-2.171,2.171-1.93-3.618.482Z" transform="translate(221.628 34.712)"/><path class="i" d="M189.432,50.961a2.46,2.46,0,0,1,.482,2.171,7.059,7.059,0,0,1-5.547,4.341,2.194,2.194,0,0,1-1.93-.965,2.46,2.46,0,0,1-.482-2.171,6.513,6.513,0,0,1,2.171-2.653,5.749,5.749,0,0,1,3.377-1.447A2,2,0,0,1,189.432,50.961Zm-.965.965c-.241-.241-.241-.241-.482-.241a.886.886,0,0,0-.724.241,10.742,10.742,0,0,0-1.93,1.206l-1.447,1.447a.886.886,0,0,0-.241.724c0,.241,0,.482.241.482.241.241.241.241.482.241a.886.886,0,0,0,.724-.241,5.567,5.567,0,0,0,1.688-1.206l1.447-1.447a.886.886,0,0,0,.241-.724Z" transform="translate(223.973 37.075)"/><path class="i" d="M188.665,65.253l-.965-1.447,5.306-3.377a4.93,4.93,0,0,1-2.171-1.206l1.206-.724a3.928,3.928,0,0,0,1.447.724,4.709,4.709,0,0,0,1.688.241l.724,1.206Z" transform="translate(232.218 48.831)"/><path class="i" d="M190.347,62.83l.965,1.447c-.241.241-.482.482-.482.724a1.823,1.823,0,0,0,.241.965c.241.241.482.482.724.482A2.174,2.174,0,0,0,193,66.206a1.883,1.883,0,0,0,.965-.965,1.45,1.45,0,0,0-.241-.965,1.326,1.326,0,0,0-1.206-.724l-.482-1.206,4.341-1.447,2.171,3.859-1.447.724-1.688-2.653-1.447.482c.241.241.724.482.724.724a1.888,1.888,0,0,1,.241,1.93,3.243,3.243,0,0,1-1.447,1.688,5.676,5.676,0,0,1-1.93.482,2.318,2.318,0,0,1-2.171-1.447,3.243,3.243,0,0,1-.482-1.93A4.089,4.089,0,0,1,190.347,62.83Z" transform="translate(233.912 52.22)"/><path class="i" d="M198.552,64.543a2.344,2.344,0,0,1,.241,2.171,5.261,5.261,0,0,1-2.653,2.412c-1.447.724-2.653,1.206-3.618.965a2.791,2.791,0,0,1-1.688-1.206,2.345,2.345,0,0,1-.241-2.171c.241-.724,1.206-1.447,2.653-2.412,1.447-.724,2.653-1.206,3.377-.965A2.148,2.148,0,0,1,198.552,64.543Zm-1.206.724c0-.241-.241-.241-.482-.482h-.724a4.75,4.75,0,0,0-1.93.965,6,6,0,0,0-1.688,1.206c-.241.241-.482.482-.482.724v.482c0,.241.241.241.482.482h.724c.482,0,.965-.482,1.93-.965a6,6,0,0,0,1.688-1.206c.241-.241.482-.482.482-.724C197.587,65.507,197.346,65.507,197.346,65.266Z" transform="translate(236.079 55.572)"/><path class="i" d="M196.024,79.589l-.724-1.447,5.789-2.412a5.8,5.8,0,0,1-1.93-1.447l1.447-.482a5.262,5.262,0,0,0,1.206.965,4.472,4.472,0,0,0,1.688.482l.482,1.206Z" transform="translate(242.949 70.434)"/><path class="i" d="M203.729,81.378,203,79.931c.241-.241.482-.241.482-.482v-.724L202.764,78a6.789,6.789,0,0,0-1.93.241,2.907,2.907,0,0,1,1.206,1.206,1.888,1.888,0,0,1-.241,1.93,2.55,2.55,0,0,1-1.688,1.447,3.325,3.325,0,0,1-2.171,0,2.115,2.115,0,0,1-1.447-1.688,2.854,2.854,0,0,1,.241-2.412,5.511,5.511,0,0,1,2.894-1.93c1.447-.482,2.653-.724,3.618-.241a2.383,2.383,0,0,1,1.688,1.688,2.039,2.039,0,0,1,0,1.688A2.47,2.47,0,0,1,203.729,81.378ZM198.9,79.207c-.482.241-.965.482-.965.724a1.45,1.45,0,0,0-.241.965c0,.241.241.482.724.482h1.206c.482-.241.965-.482.965-.724.241-.241.241-.482,0-.965q0-.362-.724-.724A2.4,2.4,0,0,0,198.9,79.207Z" transform="translate(244.409 73.951)"/><path class="i" d="M205.835,80.842a2.344,2.344,0,0,1-.241,2.171,5.381,5.381,0,0,1-3.136,1.93c-1.447.482-2.653.724-3.618.241a2.115,2.115,0,0,1-1.447-1.688,2.344,2.344,0,0,1,.241-2.171c.482-.724,1.447-1.206,3.135-1.93,1.447-.482,2.653-.724,3.618-.241A10.49,10.49,0,0,1,205.835,80.842Zm-1.447.482c0-.241-.241-.241-.241-.482-.241,0-.482-.241-.724-.241a12.235,12.235,0,0,0-2.171.482,5.286,5.286,0,0,0-1.93.724c-.241.241-.482.482-.482.724v.482c0,.241.241.241.241.482.241,0,.482.241.724.241a12.234,12.234,0,0,0,2.171-.482,5.286,5.286,0,0,0,1.93-.724c.241-.241.482-.482.482-.724Z" transform="translate(245.68 77.622)"/><path class="i" d="M200.441,95.165l-.241-1.688,6.03-1.206a6.5,6.5,0,0,1-1.688-1.93l1.447-.241a4.235,4.235,0,0,0,.965,1.206,2.19,2.19,0,0,0,1.688.724l.241,1.206Z" transform="translate(249.867 93.448)"/><path class="i" d="M207.353,92.941,208.8,92.7l.965,5.547-1.206.241a4.545,4.545,0,0,0-2.171-.965l-2.894-.724h-2.653l-.241-1.688a9.136,9.136,0,0,1,3.618,0,21.227,21.227,0,0,1,3.618,1.206Z" transform="translate(250.432 97.119)"/><path class="i" d="M209.924,98.029a2.658,2.658,0,0,1-.724,2.171,4.373,4.373,0,0,1-3.377,1.206,7.847,7.847,0,0,1-3.618-.241A2.715,2.715,0,0,1,201,99.235a2.658,2.658,0,0,1,.724-2.171,6.574,6.574,0,0,1,3.377-1.206,7.847,7.847,0,0,1,3.618.241A2.148,2.148,0,0,1,209.924,98.029Zm-1.447,0c0-.241,0-.482-.241-.482a.886.886,0,0,0-.724-.241,8.307,8.307,0,0,0-2.171.241,15.373,15.373,0,0,0-2.171.482,1.854,1.854,0,0,0-.724.482c0,.241-.241.241,0,.482,0,.241,0,.482.241.482a.886.886,0,0,0,.724.241,8.308,8.308,0,0,0,2.171-.241,15.376,15.376,0,0,0,2.171-.482,1.855,1.855,0,0,0,.724-.482A.334.334,0,0,0,208.477,98.029Z" transform="translate(250.997 101.438)"/><path class="i" d="M201.9,108.5v-1.688l6.271-.241a8.419,8.419,0,0,1-1.447-2.171h1.447a4.434,4.434,0,0,0,2.412,2.412v1.447Z" transform="translate(252.267 113.639)"/><path class="i" d="M206.441,108.306a3.329,3.329,0,0,1,.724-.965,1.45,1.45,0,0,1,.965-.241,2.19,2.19,0,0,1,1.688.724,2.374,2.374,0,0,1,.724,1.93,4.545,4.545,0,0,1-.482,1.93,2.19,2.19,0,0,1-1.688.724c-.482,0-.724,0-.965-.241a3.33,3.33,0,0,1-.724-.965,5.271,5.271,0,0,1-.724,1.206c-.482.241-.724.482-1.206.482a2.49,2.49,0,0,1-2.653-2.653,4.544,4.544,0,0,1,.482-1.93,2.194,2.194,0,0,1,1.93-.965,1.808,1.808,0,0,1,1.206.241Q206.08,107.582,206.441,108.306Zm-1.93.241a1.253,1.253,0,0,0-.965.482c-.241.241-.482.482-.241.965,0,.241.241.724.482.724a1.45,1.45,0,0,0,.965.241,1.253,1.253,0,0,0,.965-.482c.241-.241.241-.482.241-.965a1.253,1.253,0,0,0-.482-.965C204.994,108.788,204.753,108.547,204.512,108.547Zm3.618,0a.853.853,0,1,0,.724.241A1.057,1.057,0,0,0,208.13,108.547Z" transform="translate(252.55 117.451)"/><path class="i" d="M210.965,112.794a2.194,2.194,0,0,1-.965,1.93,6.779,6.779,0,0,1-3.618.724c-1.688,0-2.894-.241-3.618-.965a2.978,2.978,0,0,1-.965-1.93,2.194,2.194,0,0,1,.965-1.93,6.388,6.388,0,0,1,3.377-.724c1.688,0,2.894.241,3.618.965A1.987,1.987,0,0,1,210.965,112.794Zm-1.206,0c0-.241,0-.482-.241-.482a1.855,1.855,0,0,0-.724-.482c-.482,0-1.206-.241-2.171-.241a5.353,5.353,0,0,0-2.171.241c-.482,0-.724.241-.724.482-.241.241-.241.241-.241.482s0,.482.241.482a1.855,1.855,0,0,0,.724.482,9.889,9.889,0,0,0,4.341,0c.482,0,.724-.241.724-.482A.842.842,0,0,0,209.759,112.794Z" transform="translate(252.126 121.405)"/></g><path class="h" d="M7.536,134.412l11.336,2.894.724-3.136L8.259,131.277C8.018,132.241,7.777,133.206,7.536,134.412Zm15.2-44.138L33.826,95.58l1.447-2.894L24.178,87.379ZM.3,180.239l11.336.965.241-3.136L.541,177.1A12.742,12.742,0,0,0,.3,180.239ZM47.333,47.1c-.724.965-1.206,1.688-1.93,2.653l10.371,7.236,1.93-2.653Z" transform="translate(0.565 66.502)"/><path class="f" d="M.141,208.047l6.753.241v-3.135L-.1,204.912A13.753,13.753,0,0,1,.141,208.047Zm.241-4.583,6.995.482.241-3.136-6.995-.482A13.753,13.753,0,0,0,.382,203.465ZM36.561,79.491l6.995,3.859,1.206-1.93-6.753-4.1C37.285,77.8,37.044,78.768,36.561,79.491ZM.624,198.882l6.995.482.241-3.136-6.995-.482A12.742,12.742,0,0,0,.624,198.882Zm.482-9.165,6.995.724.241-3.136-6.995-.724A14.835,14.835,0,0,1,1.106,189.717Zm.965-9.407,6.995.965.724-3.136-7.236-.965A12.22,12.22,0,0,1,2.071,180.31Zm.724-4.583,6.995,1.206.482-3.135-7.236-1.206A13.753,13.753,0,0,1,2.794,175.727Zm-1.206,9.165,6.995.965.482-3.136-6.995-.965C1.83,182.963,1.83,183.928,1.588,184.893ZM54.41,52.96l6.512,5.065,1.93-2.653-6.512-5.065A18.409,18.409,0,0,0,54.41,52.96ZM38.491,75.873l6.753,4.341,1.688-2.653L40.179,73.22A16.223,16.223,0,0,1,38.491,75.873Zm5.065-7.718,6.753,4.583,1.206-1.688-6.753-4.583A10.211,10.211,0,0,0,43.556,68.155Zm5.306-7.718,6.512,4.824,1.93-2.653-6.512-4.824A10.709,10.709,0,0,0,48.862,60.437ZM41.144,72.014,47.9,76.356,49.586,73.7l-6.753-4.341A9.959,9.959,0,0,0,41.144,72.014Zm22.19-30.149,6.512,5.306,1.688-1.93-6.271-5.789A16.9,16.9,0,0,0,63.334,41.865ZM51.515,56.578,58.028,61.4l1.93-2.653-6.512-4.824C52.721,54.89,52.239,55.613,51.515,56.578ZM57.063,49.1l6.271,5.065,1.93-2.412-6.271-5.065A16.9,16.9,0,0,1,57.063,49.1ZM4.241,166.562l7.236,1.447.724-3.136-7.236-1.447C4.724,164.633,4.483,165.6,4.241,166.562Zm9.165-35.938,7.236,2.412.965-3.136-7.236-2.412C14.13,128.695,13.648,129.66,13.407,130.624Zm6.271-17.366,6.995,3.136,1.206-2.894-7.236-3.136A6.856,6.856,0,0,1,19.678,113.258Zm5.789-12.783,6.995,3.377,1.447-2.894-7.236-3.377C26.19,98.546,25.949,99.51,25.467,100.475Zm4.1-8.442,6.995,3.618,1.447-2.894-6.995-3.618A32.3,32.3,0,0,1,29.567,92.033Zm-7.959,16.884,6.995,3.136,1.206-2.894-7.236-2.894C22.331,107.229,21.849,107.952,21.607,108.917ZM27.4,96.375l6.995,3.618L35.838,97.1,28.843,93.48ZM67.675,36.8c-.482.482-.965,1.206-1.447,1.688L72.5,44.036l1.447-1.688ZM.141,212.63l6.753.241v-3.136l-6.753-.241Zm5.065-50.651,7.236,1.447.724-3.135L5.93,158.844A19.042,19.042,0,0,0,5.206,161.979ZM31.738,87.933l6.995,3.859L40.179,88.9l-6.995-3.859A32.3,32.3,0,0,1,31.738,87.933Zm-24.6,65.122,7.236,1.688.724-3.136L7.859,149.92C7.618,150.885,7.377,151.849,7.136,153.055Zm-.965,4.583,7.236,1.688.724-3.136L6.895,154.5A11.966,11.966,0,0,0,6.171,157.638ZM9.307,143.89l7.236,2.171.965-3.136-7.236-2.171A22.4,22.4,0,0,0,9.307,143.89Zm7.236-22.672,7.236,2.894.965-2.412-7.236-2.653A8.568,8.568,0,0,1,16.542,121.218ZM17.99,117.6l7.236,2.894,1.206-2.894L19.2,114.706A25.115,25.115,0,0,1,17.99,117.6Zm-6.03,17.366,7.236,2.412.965-3.136-7.236-2.412C12.683,133.036,12.2,134,11.96,134.966Zm-1.447,4.583,7.236,2.171.965-3.135-7.236-2.171A15.6,15.6,0,0,1,10.513,139.548Z" transform="translate(0 51.959)"/></g></svg>