<svg xmlns="http://www.w3.org/2000/svg" viewBox="0 0 36.512 69.624"><defs><style>.a{fill:#d94c0c;}</style></defs><path class="a" d="M0,52.6,6.753,51a4.584,4.584,0,0,0-.108-.748,67.154,67.154,0,0,1,3.2-35.892c.5-1.372.137-1.92-1.052-2.378-1.235-.457-2.423-1.051-3.841-1.646C9.57,6.813,13.914,3.383,18.3,0h.457c.32,2.1.549,4.206.96,6.264.5,2.606,1.326,9.739,1.326,10.653-1.372.046-2.469-.732-3.612-1.28-1.326-.594-2.012-.64-2.606,1.052A62.755,62.755,0,0,0,11.582,45.86c.282,2.23.419,3.315,1.061,3.738l5.733-1.362L13.112,66.508Z" transform="translate(0 5.092) rotate(-14)"/></svg>