<svg xmlns="http://www.w3.org/2000/svg" width="11.508" height="14.066" viewBox="0 0 11.508 14.066"><g transform="translate(-36.549)"><path d="M47.777,6.674a.925.925,0,0,0-.679-.28h-.32V4.476a4.307,4.307,0,0,0-1.319-3.157,4.438,4.438,0,0,0-6.314,0,4.307,4.307,0,0,0-1.319,3.157V6.394h-.32a.955.955,0,0,0-.959.959v5.754a.955.955,0,0,0,.959.959H47.1a.955.955,0,0,0,.959-.959V7.353A.924.924,0,0,0,47.777,6.674Zm-2.917-.28H39.745V4.476a2.464,2.464,0,0,1,.749-1.808,2.557,2.557,0,0,1,3.617,0,2.464,2.464,0,0,1,.749,1.808Z" transform="translate(0)" fill="#b1b1b1"/></g></svg>