<svg xmlns="http://www.w3.org/2000/svg" viewBox="0 0 16.454 13.163">
    <defs>
        <style>
            .cls-1{fill:#fff}
        </style>
    </defs>
    <g id="photo-camera">
        <g id="Group_34" data-name="Group 34">
            <path id="Path_69" d="M8.227 14.936A2.468 2.468 0 1 0 10.7 17.4a2.468 2.468 0 0 0-2.473-2.464zm6.582-2.468h-1.975a.733.733 0 0 1-.65-.468l-.51-1.532a.733.733 0 0 0-.65-.468H5.43a.733.733 0 0 0-.65.468L4.27 12a.733.733 0 0 1-.65.468H1.645A1.65 1.65 0 0 0 0 14.114v7.4a1.65 1.65 0 0 0 1.645 1.645h13.164a1.65 1.65 0 0 0 1.645-1.645v-7.4a1.65 1.65 0 0 0-1.645-1.646zm-6.582 9.05a4.114 4.114 0 1 1 4.114-4.118 4.114 4.114 0 0 1-4.114 4.118zm6.006-6.254a.576.576 0 1 1 .576-.576.576.576 0 0 1-.576.576z" class="cls-1" data-name="Path 69" transform="translate(0 -10)"/>
        </g>
    </g>
</svg>
