<svg xmlns="http://www.w3.org/2000/svg" xmlns:xlink="http://www.w3.org/1999/xlink" viewBox="0 0 159.391 271.266"><defs><style>.a{fill:url(#a);}.b{fill:url(#b);}</style><linearGradient id="a" x1="-0.046" y1="1.214" x2="0.906" gradientUnits="objectBoundingBox"><stop offset="0" stop-color="#00b0ff"/><stop offset="1" stop-color="#1fe3a1"/></linearGradient><linearGradient id="b" x1="1" y1="-0.352" x2="0" y2="1.298" gradientUnits="objectBoundingBox"><stop offset="0" stop-color="#4aac8b"/><stop offset="1" stop-color="#1fe3a1"/></linearGradient></defs><g transform="translate(-1348.887 -391.078)"><path class="a" d="M20.7,0A20.058,20.058,0,0,1,35.46,6.147a20.3,20.3,0,0,1,6.121,14.828A20.1,20.1,0,0,1,35.46,35.622,20.09,20.09,0,0,1,20.7,41.769,19.9,19.9,0,0,1,6.112,35.622,20.1,20.1,0,0,1,0,20.975,20.3,20.3,0,0,1,6.112,6.147,19.865,19.865,0,0,1,20.7,0" transform="translate(1466.696 620.574)"/><path class="b" d="M25.491,0A24.7,24.7,0,0,1,43.665,7.57,25,25,0,0,1,51.2,25.828a24.747,24.747,0,0,1-7.537,18.036,24.738,24.738,0,0,1-18.173,7.57,24.5,24.5,0,0,1-17.965-7.57A24.751,24.751,0,0,1,0,25.828,25,25,0,0,1,7.527,7.57,24.461,24.461,0,0,1,25.491,0" transform="translate(1348.886 512.742)"/><path class="a" d="M34.825,0A33.742,33.742,0,0,1,59.652,10.341a34.147,34.147,0,0,1,10.3,24.944,33.808,33.808,0,0,1-10.3,24.639A33.8,33.8,0,0,1,34.825,70.266,33.472,33.472,0,0,1,10.282,59.924,33.813,33.813,0,0,1,0,35.285,34.153,34.153,0,0,1,10.282,10.341,33.418,33.418,0,0,1,34.825,0" transform="translate(1409.697 391.078)"/></g></svg>