<svg xmlns="http://www.w3.org/2000/svg" viewBox="0 0 17.008 16.848"><defs><style>.a{fill:#4aac8b;}</style></defs><g transform="translate(0 -1.916)"><g transform="translate(-0.001 1.916)"><path class="a" d="M116.656,10.843c2.106,0,3.813-2,3.813-4.463,0-3.418-1.707-4.463-3.813-4.463s-3.813,1.045-3.813,4.463C112.843,8.844,114.55,10.843,116.656,10.843Z" transform="translate(-108.153 -1.916)"/><path class="a" d="M16.924,227.775,15,223.441a.966.966,0,0,0-.435-.463l-2.986-1.554a.192.192,0,0,0-.2.017,4.71,4.71,0,0,1-5.743,0,.193.193,0,0,0-.2-.017l-2.985,1.554a.965.965,0,0,0-.435.463L.083,227.775a.962.962,0,0,0,.879,1.352H16.044a.962.962,0,0,0,.879-1.352Z" transform="translate(0.001 -212.279)"/></g></g></svg>