<svg xmlns="http://www.w3.org/2000/svg" width="41.391" height="23" viewBox="0 0 41.391 23"><g transform="translate(15523.703 -345)"><path d="M-17.023,2.531H-20.7V-11.422h3.68v1.375h-2v11.2h2ZM17.023,1.148h2v-11.2h-2v-1.375h3.664V2.531H17.023Z" transform="translate(-15503 362)" fill="#707070"/><g transform="translate(-15515 345)" fill="none" stroke-dasharray="2 1"><path d="M0,0H10V10H0Z" stroke="none"/><path d="M 3 0 L 5 0 L 5 1 L 3 1 L 3 0 Z M 6 0 L 8 0 L 8 1 L 6 1 L 6 0 Z M 9 0 L 10 0 L 10 1 L 9 1 L 9 1 L 9 1 L 9 0 Z M 9 2 L 10 2 C 10 2 10 4 10 4 L 9 4 L 9 2 Z M 9 5 L 10 5 C 10 5 10 7 10 7 L 9 7 L 9 5 Z M 9 8 L 10 8 C 10 8 10 10 10 10 L 9 10 L 9 8 Z M 7 9 L 9 9 L 9 10 C 9 10 7 10 7 10 L 7 9 Z M 4 9 L 6 9 L 6 10 C 6 10 4 10 4 10 L 4 9 Z M 1 9 L 3 9 L 3 10 C 3 10 1 10 1 10 L 1 9 Z M 0 8 L 1 8 L 1 10 L 0 10 L 0 8 Z M 0 5 L 1 5 L 1 7 L 0 7 L 0 5 Z M 0 2 L 1 2 L 1 4 L 0 4 L 0 2 Z M 0 0 L 2 0 L 2 1 L 0 1 L 0 0 Z" stroke="none" fill="#707070"/></g><g transform="translate(-15515 358)" fill="none" stroke-dasharray="2 1"><path d="M0,0H10V10H0Z" stroke="none"/><path d="M 3 0 L 5 0 L 5 1 L 3 1 L 3 0 Z M 6 0 L 8 0 L 8 1 L 6 1 L 6 0 Z M 9 0 L 10 0 L 10 1 L 9 1 L 9 1 L 9 1 L 9 0 Z M 9 2 L 10 2 C 10 2 10 4 10 4 L 9 4 L 9 2 Z M 9 5 L 10 5 C 10 5 10 7 10 7 L 9 7 L 9 5 Z M 9 8 L 10 8 C 10 8 10 10 10 10 L 9 10 L 9 8 Z M 7 9 L 9 9 L 9 10 C 9 10 7 10 7 10 L 7 9 Z M 4 9 L 6 9 L 6 10 C 6 10 4 10 4 10 L 4 9 Z M 1 9 L 3 9 L 3 10 C 3 10 1 10 1 10 L 1 9 Z M 0 8 L 1 8 L 1 10 L 0 10 L 0 8 Z M 0 5 L 1 5 L 1 7 L 0 7 L 0 5 Z M 0 2 L 1 2 L 1 4 L 0 4 L 0 2 Z M 0 0 L 2 0 L 2 1 L 0 1 L 0 0 Z" stroke="none" fill="#707070"/></g><g transform="translate(-15501 345)" fill="none" stroke-dasharray="2 1"><path d="M0,0H10V10H0Z" stroke="none"/><path d="M 3 0 L 5 0 L 5 1 L 3 1 L 3 0 Z M 6 0 L 8 0 L 8 1 L 6 1 L 6 0 Z M 9 0 L 10 0 L 10 1 L 9 1 L 9 1 L 9 1 L 9 0 Z M 9 2 L 10 2 C 10 2 10 4 10 4 L 9 4 L 9 2 Z M 9 5 L 10 5 C 10 5 10 7 10 7 L 9 7 L 9 5 Z M 9 8 L 10 8 C 10 8 10 10 10 10 L 9 10 L 9 8 Z M 7 9 L 9 9 L 9 10 C 9 10 7 10 7 10 L 7 9 Z M 4 9 L 6 9 L 6 10 C 6 10 4 10 4 10 L 4 9 Z M 1 9 L 3 9 L 3 10 C 3 10 1 10 1 10 L 1 9 Z M 0 8 L 1 8 L 1 10 L 0 10 L 0 8 Z M 0 5 L 1 5 L 1 7 L 0 7 L 0 5 Z M 0 2 L 1 2 L 1 4 L 0 4 L 0 2 Z M 0 0 L 2 0 L 2 1 L 0 1 L 0 0 Z" stroke="none" fill="#707070"/></g><g transform="translate(-15501 358)" fill="none" stroke-dasharray="2 1"><path d="M0,0H10V10H0Z" stroke="none"/><path d="M 3 0 L 5 0 L 5 1 L 3 1 L 3 0 Z M 6 0 L 8 0 L 8 1 L 6 1 L 6 0 Z M 9 0 L 10 0 L 10 1 L 9 1 L 9 1 L 9 1 L 9 0 Z M 9 2 L 10 2 C 10 2 10 4 10 4 L 9 4 L 9 2 Z M 9 5 L 10 5 C 10 5 10 7 10 7 L 9 7 L 9 5 Z M 9 8 L 10 8 C 10 8 10 10 10 10 L 9 10 L 9 8 Z M 7 9 L 9 9 L 9 10 C 9 10 7 10 7 10 L 7 9 Z M 4 9 L 6 9 L 6 10 C 6 10 4 10 4 10 L 4 9 Z M 1 9 L 3 9 L 3 10 C 3 10 1 10 1 10 L 1 9 Z M 0 8 L 1 8 L 1 10 L 0 10 L 0 8 Z M 0 5 L 1 5 L 1 7 L 0 7 L 0 5 Z M 0 2 L 1 2 L 1 4 L 0 4 L 0 2 Z M 0 0 L 2 0 L 2 1 L 0 1 L 0 0 Z" stroke="none" fill="#707070"/></g></g></svg>