<svg xmlns="http://www.w3.org/2000/svg" width="32.195" height="22" viewBox="0 0 32.195 22"><g transform="translate(15519.098 -345)"><path d="M-14.02-2.242Q-14.02-3.7-16.1-3.7V-5.187a2.77,2.77,0,0,0,1.566-.355,1.228,1.228,0,0,0,.512-1.082v-2.43a2.013,2.013,0,0,1,.848-1.793,4.565,4.565,0,0,1,2.543-.574V-10a2.224,2.224,0,0,0-1.293.363,1.165,1.165,0,0,0-.4.965v2.32q0,1.555-1.789,1.859V-4.4q1.789.281,1.789,1.852V-.211a1.182,1.182,0,0,0,.4.969,2.1,2.1,0,0,0,1.3.344v1.43a4.45,4.45,0,0,1-2.6-.613A2.265,2.265,0,0,1-14.02-.016ZM14.129.156a2.071,2.071,0,0,1-.777,1.789,4.331,4.331,0,0,1-2.488.586V1.1A2.015,2.015,0,0,0,12.02.8a1.154,1.154,0,0,0,.414-1.012V-2.258a2.28,2.28,0,0,1,.414-1.461,2.156,2.156,0,0,1,1.375-.68v-.094q-1.789-.3-1.789-1.859v-2.32a1.241,1.241,0,0,0-.355-.965A1.932,1.932,0,0,0,10.863-10v-1.422a4.1,4.1,0,0,1,2.5.6,2.338,2.338,0,0,1,.762,1.957v2.242a1.23,1.23,0,0,0,.5,1.109,2.688,2.688,0,0,0,1.473.328V-3.7a2.669,2.669,0,0,0-1.465.332,1.241,1.241,0,0,0-.5,1.121Z" transform="translate(-15503 362)" fill="#707070"/><g transform="translate(-15510 345)" fill="none" stroke-dasharray="2 1"><path d="M0,0H14V22H0Z" stroke="none"/><path d="M 0 0 L 2 0 L 2 1 L 1 1 L 1 3 L 0 3 L 0 0 Z M 3 0 L 5 0 L 5 1 L 3 1 L 3 0 Z M 6 0 L 8 0 L 8 1 L 6 1 L 6 0 Z M 9 0 L 11 0 L 11 1 L 9 1 L 9 0 Z M 12 0 L 14 0 L 14 1 L 14 1 C 14 1 14 3 14 3 L 13 3 L 13 1 L 12 1 L 12 0 Z M 13 4 L 14 4 C 14 4 14 6 14 6 L 13 6 L 13 4 Z M 13 7 L 14 7 C 14 7 14 9 14 9 L 13 9 L 13 7 Z M 13 10 L 14 10 C 14 10 14 12 14 12 L 13 12 L 13 10 Z M 13 13 L 14 13 C 14 13 14 15 14 15 L 13 15 L 13 13 Z M 13 16 L 14 16 C 14 16 14 18 14 18 L 13 18 L 13 16 Z M 13 19 L 14 19 C 14 19 14 21 14 21 L 14 21 L 14 22 C 14 22 12 22 12 22 L 12 21 L 13 21 L 13 19 Z M 9 21 L 11 21 L 11 22 C 11 22 9 22 9 22 L 9 21 Z M 6 21 L 8 21 L 8 22 C 8 22 6 22 6 22 L 6 21 Z M 3 21 L 5 21 L 5 22 C 5 22 3 22 3 22 L 3 21 Z M 0 21 L 2 21 L 2 22 C 2 22 0 22 0 22 L 0 21 Z M 0 19 L 1 19 L 1 21 L 0 21 L 0 19 Z M 0 16 L 1 16 L 1 18 L 0 18 L 0 16 Z M 0 13 L 1 13 L 1 15 L 0 15 L 0 13 Z M 0 10 L 1 10 L 1 12 L 0 12 L 0 10 Z M 0 7 L 1 7 L 1 9 L 0 9 L 0 7 Z M 0 4 L 1 4 L 1 6 L 0 6 L 0 4 Z" stroke="none" fill="#707070"/></g></g></svg>