<svg xmlns="http://www.w3.org/2000/svg" width="29.273" height="22" viewBox="0 0 29.273 22"><g transform="translate(15517.926 -345)"><path d="M-14.926-4.383a12.106,12.106,0,0,1,.605-3.875,9.633,9.633,0,0,1,1.746-3.164h1.6a11.169,11.169,0,0,0-1.664,3.293,12.277,12.277,0,0,0-.578,3.73,11.943,11.943,0,0,0,.578,3.7,11.155,11.155,0,0,0,1.648,3.234h-1.586a9.207,9.207,0,0,1-1.75-3.1A11.793,11.793,0,0,1-14.926-4.383ZM10.684,1.148h2v-11.2h-2v-1.375h3.664V2.531H10.684Z" transform="translate(-15503 362)" fill="#707070"/><g transform="translate(-15510 345)" fill="none" stroke-dasharray="2 1"><path d="M0,0H14V22H0Z" stroke="none"/><path d="M 0 0 L 2 0 L 2 1 L 1 1 L 1 3 L 0 3 L 0 0 Z M 3 0 L 5 0 L 5 1 L 3 1 L 3 0 Z M 6 0 L 8 0 L 8 1 L 6 1 L 6 0 Z M 9 0 L 11 0 L 11 1 L 9 1 L 9 0 Z M 12 0 L 14 0 L 14 1 L 14 1 C 14 1 14 3 14 3 L 13 3 L 13 1 L 12 1 L 12 0 Z M 13 4 L 14 4 C 14 4 14 6 14 6 L 13 6 L 13 4 Z M 13 7 L 14 7 C 14 7 14 9 14 9 L 13 9 L 13 7 Z M 13 10 L 14 10 C 14 10 14 12 14 12 L 13 12 L 13 10 Z M 13 13 L 14 13 C 14 13 14 15 14 15 L 13 15 L 13 13 Z M 13 16 L 14 16 C 14 16 14 18 14 18 L 13 18 L 13 16 Z M 13 19 L 14 19 C 14 19 14 21 14 21 L 14 21 L 14 22 C 14 22 12 22 12 22 L 12 21 L 13 21 L 13 19 Z M 9 21 L 11 21 L 11 22 C 11 22 9 22 9 22 L 9 21 Z M 6 21 L 8 21 L 8 22 C 8 22 6 22 6 22 L 6 21 Z M 3 21 L 5 21 L 5 22 C 5 22 3 22 3 22 L 3 21 Z M 0 21 L 2 21 L 2 22 C 2 22 0 22 0 22 L 0 21 Z M 0 19 L 1 19 L 1 21 L 0 21 L 0 19 Z M 0 16 L 1 16 L 1 18 L 0 18 L 0 16 Z M 0 13 L 1 13 L 1 15 L 0 15 L 0 13 Z M 0 10 L 1 10 L 1 12 L 0 12 L 0 10 Z M 0 7 L 1 7 L 1 9 L 0 9 L 0 7 Z M 0 4 L 1 4 L 1 6 L 0 6 L 0 4 Z" stroke="none" fill="#707070"/></g></g></svg>