<svg xmlns="http://www.w3.org/2000/svg" width="44.379" height="14" viewBox="0 0 44.379 14"><g transform="translate(15717.832 -351.363)"><path d="M-15.456-7.561v.882l-1.292.239a2.085,2.085,0,0,1,.294.588,2.319,2.319,0,0,1,.116.738,2.262,2.262,0,0,1-.807,1.839,3.376,3.376,0,0,1-2.222.67,3.6,3.6,0,0,1-.656-.055.9.9,0,0,0-.52.752.418.418,0,0,0,.243.39,2.1,2.1,0,0,0,.892.13h1.319a2.933,2.933,0,0,1,1.9.533A1.876,1.876,0,0,1-15.538.684,2.237,2.237,0,0,1-16.6,2.666a5.579,5.579,0,0,1-3.062.7,4.226,4.226,0,0,1-2.358-.547,1.768,1.768,0,0,1-.813-1.559A1.659,1.659,0,0,1-22.391.085a2.363,2.363,0,0,1,1.234-.66,1.207,1.207,0,0,1-.53-.441,1.113,1.113,0,0,1-.208-.639,1.1,1.1,0,0,1,.239-.718,2.76,2.76,0,0,1,.711-.581,2.106,2.106,0,0,1-.954-.824,2.423,2.423,0,0,1-.366-1.336,2.4,2.4,0,0,1,.776-1.907A3.262,3.262,0,0,1-19.277-7.7a5.383,5.383,0,0,1,.673.044,4.239,4.239,0,0,1,.53.092ZM-21.4,1.176a.884.884,0,0,0,.468.8,2.574,2.574,0,0,0,1.316.28,3.976,3.976,0,0,0,1.955-.376,1.127,1.127,0,0,0,.643-1,.749.749,0,0,0-.352-.7,2.827,2.827,0,0,0-1.309-.208h-1.217A1.71,1.71,0,0,0-20.99.3,1.065,1.065,0,0,0-21.4,1.176Zm.69-6.289A1.521,1.521,0,0,0-20.34-4.02a1.383,1.383,0,0,0,1.049.383q1.395,0,1.395-1.49a1.69,1.69,0,0,0-.345-1.138,1.312,1.312,0,0,0-1.049-.4,1.352,1.352,0,0,0-1.056.4A1.667,1.667,0,0,0-20.706-5.113ZM-4.047,0H-5.66V-4.662a2.114,2.114,0,0,0-.328-1.3,1.211,1.211,0,0,0-1.025-.427,1.564,1.564,0,0,0-1.364.6,3.549,3.549,0,0,0-.434,2.013V0h-1.606V-7.561H-9.16l.226.991h.082A2.1,2.1,0,0,1-7.94-7.4,2.943,2.943,0,0,1-6.624-7.7,2.3,2.3,0,0,1-4.313-6.508H-4.2a2.3,2.3,0,0,1,.943-.875A2.994,2.994,0,0,1-1.866-7.7a2.539,2.539,0,0,1,1.972.684A3.027,3.027,0,0,1,.725-4.929V0H-.882V-4.662a2.1,2.1,0,0,0-.332-1.3,1.221,1.221,0,0,0-1.029-.427A1.6,1.6,0,0,0-3.613-5.8a3.013,3.013,0,0,0-.434,1.794ZM9.673-3.794A4.127,4.127,0,0,1,8.723-.9,3.4,3.4,0,0,1,6.077.137,3.625,3.625,0,0,1,4.2-.342,3.159,3.159,0,0,1,2.953-1.716a4.68,4.68,0,0,1-.437-2.078,4.1,4.1,0,0,1,.943-2.871A3.42,3.42,0,0,1,6.118-7.7a3.331,3.331,0,0,1,2.6,1.056A4.08,4.08,0,0,1,9.673-3.794Zm-5.5,0q0,2.618,1.935,2.618,1.914,0,1.914-2.618,0-2.591-1.928-2.591a1.644,1.644,0,0,0-1.466.67A3.409,3.409,0,0,0,4.17-3.794ZM13.125,0H11.519V-10.637h1.606Zm8.422-4.006H20.275v-3.5l.021-.7.034-.622q-.116.123-.277.273t-.967.759l-.6-.766,1.921-1.429h1.142Z" transform="translate(-15695 362)" fill="#707070"/><path d="M3,0H0" transform="translate(-15680.5 354.5)" fill="none" stroke="#707070" stroke-width="1"/></g></svg>