<svg xmlns="http://www.w3.org/2000/svg" width="46" height="32.905" viewBox="0 0 46 32.905"><g transform="translate(15717 -275.548)"><path d="M5.855.158A.317.317,0,0,0,5.593,0H.373A.317.317,0,0,0,.111.158.637.637,0,0,0,0,.533.637.637,0,0,0,.111.907l2.61,3.729a.3.3,0,0,0,.524,0L5.855.907A.637.637,0,0,0,5.966.533.638.638,0,0,0,5.855.158Z" transform="translate(-15685.105 302.558) rotate(-90)" fill="#707070"/><path d="M0,0H16.506" transform="translate(-15699.301 299.545)" fill="none" stroke="#707070" stroke-width="1"/><path d="M-1.333-4.426-3.121-2.158H-4.7l2.784-3.335L-3.273-8.641h1.436l.844,2.186L.689-8.641H2.3l-2.7,3.218L1.047-2.158H-.4Z" transform="translate(-15703.378 305.079)" fill="#707070"/><path d="M-9.309,0h-1.828l2.578-12.156h1.836Zm4.781-10.766a1.213,1.213,0,0,1,.3-.859,1.115,1.115,0,0,1,.859-.328,1.04,1.04,0,0,1,.672.207.758.758,0,0,1,.258.629,1.2,1.2,0,0,1-.312.875,1.1,1.1,0,0,1-.82.32,1.121,1.121,0,0,1-.687-.2A.745.745,0,0,1-4.527-10.766ZM-4.895,0H-6.738l1.844-8.641h1.836ZM3.6-8.8A1.856,1.856,0,0,1,5.582-6.961h.063A4.366,4.366,0,0,1,6.977-8.332,2.892,2.892,0,0,1,8.527-8.8a2.029,2.029,0,0,1,1.582.6,2.415,2.415,0,0,1,.543,1.684A8.231,8.231,0,0,1,10.48-5.1L9.387,0H7.551L8.668-5.25a6.254,6.254,0,0,0,.148-1.039q0-1.008-.945-1.008A2.021,2.021,0,0,0,6.3-6.328,6.418,6.418,0,0,0,5.23-3.758L4.441,0H2.605L3.723-5.25a5.259,5.259,0,0,0,.133-.992q0-1.055-.914-1.055a2.022,2.022,0,0,0-1.59.992A6.824,6.824,0,0,0,.27-3.664L-.5,0H-2.34L-.5-8.641H.941l-.164,1.6h.07A3.3,3.3,0,0,1,3.6-8.8Z" transform="translate(-15694 293)" fill="#707070"/><g transform="translate(-15717 275.548)" fill="none"><path d="M0,0H46V32.9H0Z" stroke="none"/><path d="M 1 1.000001907348633 L 1 31.90478324890137 L 45 31.90478324890137 L 45 1.000001907348633 L 1 1.000001907348633 M 0 3.814697265625e-06 L 46 3.814697265625e-06 L 46 32.90478134155273 L 0 32.90478134155273 L 0 3.814697265625e-06 Z" stroke="none" fill="#707070"/></g></g></svg>