<svg xmlns="http://www.w3.org/2000/svg" viewBox="0 0 2.383 11.117"><path d="M-5.559-.977a1.2,1.2,0,0,1,.3-.875,1.146,1.146,0,0,1,.859-.3,1.132,1.132,0,0,1,.867.316,1.211,1.211,0,0,1,.3.863,1.241,1.241,0,0,1-.3.879A1.119,1.119,0,0,1-4.4.227a1.114,1.114,0,0,1-.859-.32A1.249,1.249,0,0,1-5.559-.977Zm4.4,0a1.2,1.2,0,0,1,.3-.875A1.146,1.146,0,0,1,0-2.156a1.132,1.132,0,0,1,.867.316,1.211,1.211,0,0,1,.3.863,1.241,1.241,0,0,1-.3.879A1.119,1.119,0,0,1,0,.227a1.114,1.114,0,0,1-.859-.32A1.249,1.249,0,0,1-1.16-.977Zm4.4,0a1.2,1.2,0,0,1,.3-.875,1.146,1.146,0,0,1,.859-.3,1.132,1.132,0,0,1,.867.316,1.211,1.211,0,0,1,.3.863,1.241,1.241,0,0,1-.3.879,1.119,1.119,0,0,1-.863.324,1.114,1.114,0,0,1-.859-.32A1.249,1.249,0,0,1,3.238-.977Z" transform="translate(0.227 5.559) rotate(90)" fill="#707070"/></svg>
