<svg xmlns="http://www.w3.org/2000/svg" width="37.188" height="11.578" viewBox="0 0 37.188 11.578"><g transform="translate(15515.426 -286.578)"><path d="M-10.207.156a3.247,3.247,0,0,1-2.375-.828,3.168,3.168,0,0,1-.844-2.367,7.318,7.318,0,0,1,.574-2.941,4.856,4.856,0,0,1,1.613-2.07A3.945,3.945,0,0,1-8.879-8.8a5.5,5.5,0,0,1,2.32.477l-.547,1.438A4.39,4.39,0,0,0-8.832-7.3a2.287,2.287,0,0,0-1.953,1.2,5.32,5.32,0,0,0-.781,2.965A1.885,1.885,0,0,0-11.129-1.8a1.575,1.575,0,0,0,1.211.469A3.33,3.33,0,0,0-8.836-1.5a8.516,8.516,0,0,0,1.012-.422V-.4A5.192,5.192,0,0,1-10.207.156ZM-.129-5.484A2.024,2.024,0,0,0-.512-6.793a1.326,1.326,0,0,0-1.094-.473,1.818,1.818,0,0,0-1.3.559A3.683,3.683,0,0,0-3.8-5.191a6.468,6.468,0,0,0-.316,2.043A2.015,2.015,0,0,0-3.727-1.82a1.409,1.409,0,0,0,1.145.461,1.8,1.8,0,0,0,1.266-.531A3.493,3.493,0,0,0-.441-3.379,6.752,6.752,0,0,0-.129-5.484Zm1.852.078a7.038,7.038,0,0,1-.57,2.871A4.6,4.6,0,0,1-.414-.551,3.922,3.922,0,0,1-2.707.141,3.2,3.2,0,0,1-5.09-.754a3.313,3.313,0,0,1-.883-2.434,7.133,7.133,0,0,1,.559-2.852,4.7,4.7,0,0,1,1.566-2.02A3.892,3.892,0,0,1-1.52-8.781a3.126,3.126,0,0,1,2.383.906A3.441,3.441,0,0,1,1.723-5.406Zm4.3,4.078A3.405,3.405,0,0,0,7.2-1.57V-.18a3.385,3.385,0,0,1-.742.234,4.416,4.416,0,0,1-.937.1q-2.141,0-2.141-1.93A4.911,4.911,0,0,1,3.5-2.8L4.449-7.25H3.184l.164-.859L4.832-8.75,5.84-10.562H6.98L6.574-8.641h2.18l-.3,1.391H6.285L5.332-2.781a3.231,3.231,0,0,0-.1.719.731.731,0,0,0,.2.535A.8.8,0,0,0,6.02-1.328ZM22.5-11.422h1.266L22.309-4.578H20.816l.773-3.6q.133-.617.445-1.7-.164.156-.387.336t-1.2.8l-.6-1.008Z" transform="translate(-15502 298)" fill="#707070"/><path d="M0,0H7" transform="translate(-15491.5 289.5)" fill="none" stroke="#707070" stroke-width="1"/></g></svg>