<svg xmlns="http://www.w3.org/2000/svg" width="39.281" height="11.578" viewBox="0 0 39.281 11.578"><g transform="translate(15581.48 -286.578)"><path d="M-11.645-1.328a3.405,3.405,0,0,0,1.18-.242V-.18a3.385,3.385,0,0,1-.742.234,4.416,4.416,0,0,1-.937.1q-2.141,0-2.141-1.93A4.911,4.911,0,0,1-14.16-2.8l.945-4.453H-14.48l.164-.859,1.484-.641,1.008-1.812h1.141l-.406,1.922h2.18l-.3,1.391h-2.164l-.953,4.469a3.231,3.231,0,0,0-.1.719.731.731,0,0,0,.2.535A.8.8,0,0,0-11.645-1.328ZM-6.207.156A2.12,2.12,0,0,1-7.949-.637a3.463,3.463,0,0,1-.641-2.23A7.967,7.967,0,0,1-8.047-5.82,5.328,5.328,0,0,1-6.551-8a3.183,3.183,0,0,1,2.094-.8,2.341,2.341,0,0,1,1.3.355A2.332,2.332,0,0,1-2.3-7.406h.078l.484-1.234H-.332L-2.176,0H-3.6l.164-1.375H-3.48A3.507,3.507,0,0,1-6.207.156Zm.672-1.484a1.811,1.811,0,0,0,1.258-.605A4.573,4.573,0,0,0-3.262-3.555a6.023,6.023,0,0,0,.4-2.219A1.614,1.614,0,0,0-3.23-6.879,1.218,1.218,0,0,0-4.191-7.3a1.735,1.735,0,0,0-1.25.6,4.279,4.279,0,0,0-.937,1.637A6.623,6.623,0,0,0-6.73-2.914a1.881,1.881,0,0,0,.316,1.191A1.064,1.064,0,0,0-5.535-1.328ZM5.426,0,6.535-5.25a5.9,5.9,0,0,0,.141-1.023A.9.9,0,0,0,5.668-7.3a1.751,1.751,0,0,0-1.109.445,4.028,4.028,0,0,0-.984,1.285,7.273,7.273,0,0,0-.656,1.9L2.152,0H.309L2.152-8.641H3.59l-.164,1.6H3.5a4.681,4.681,0,0,1,1.336-1.34A2.82,2.82,0,0,1,6.324-8.8,2.15,2.15,0,0,1,7.945-8.2,2.329,2.329,0,0,1,8.52-6.516,7.376,7.376,0,0,1,8.34-5.1L7.27,0ZM23.535-11.422H24.8L23.348-4.578H21.855l.773-3.6q.133-.617.445-1.7-.164.156-.387.336t-1.2.8l-.6-1.008Z" transform="translate(-15567 298)" fill="#707070"/><path d="M0,0H7" transform="translate(-15556.5 289.5)" fill="none" stroke="#707070" stroke-width="1"/></g></svg>