<svg xmlns="http://www.w3.org/2000/svg" width="38.516" height="11.578" viewBox="0 0 38.516 11.578"><g transform="translate(15581.09 -220.578)"><path d="M-10.871.156a3.247,3.247,0,0,1-2.375-.828,3.168,3.168,0,0,1-.844-2.367,7.318,7.318,0,0,1,.574-2.941A4.856,4.856,0,0,1-11.9-8.051,3.945,3.945,0,0,1-9.543-8.8a5.5,5.5,0,0,1,2.32.477L-7.77-6.883A4.39,4.39,0,0,0-9.5-7.3a2.287,2.287,0,0,0-1.953,1.2,5.32,5.32,0,0,0-.781,2.965A1.885,1.885,0,0,0-11.793-1.8a1.575,1.575,0,0,0,1.211.469A3.33,3.33,0,0,0-9.5-1.5a8.516,8.516,0,0,0,1.012-.422V-.4A5.192,5.192,0,0,1-10.871.156ZM-.793-5.484a2.024,2.024,0,0,0-.383-1.309A1.326,1.326,0,0,0-2.27-7.266a1.818,1.818,0,0,0-1.3.559,3.683,3.683,0,0,0-.891,1.516,6.468,6.468,0,0,0-.316,2.043A2.015,2.015,0,0,0-4.391-1.82a1.409,1.409,0,0,0,1.145.461A1.8,1.8,0,0,0-1.98-1.891a3.493,3.493,0,0,0,.875-1.488A6.752,6.752,0,0,0-.793-5.484Zm1.852.078a7.038,7.038,0,0,1-.57,2.871A4.6,4.6,0,0,1-1.078-.551,3.922,3.922,0,0,1-3.371.141,3.2,3.2,0,0,1-5.754-.754a3.313,3.313,0,0,1-.883-2.434,7.133,7.133,0,0,1,.559-2.852,4.7,4.7,0,0,1,1.566-2.02,3.892,3.892,0,0,1,2.328-.723A3.126,3.126,0,0,1,.2-7.875,3.441,3.441,0,0,1,1.059-5.406ZM7.91-2.656A2.5,2.5,0,0,1,6.988-.574a4.027,4.027,0,0,1-2.562.73A5.511,5.511,0,0,1,1.91-.367V-1.953a4.755,4.755,0,0,0,2.438.7,2.174,2.174,0,0,0,1.227-.312.974.974,0,0,0,.469-.852.96.96,0,0,0-.27-.684,5.273,5.273,0,0,0-1.105-.762A4.123,4.123,0,0,1,3.289-4.926a2.1,2.1,0,0,1-.4-1.285,2.324,2.324,0,0,1,.836-1.9A3.447,3.447,0,0,1,5.98-8.8a5.439,5.439,0,0,1,2.7.656L8.09-6.766a4.37,4.37,0,0,0-2.078-.594,1.54,1.54,0,0,0-.926.258.838.838,0,0,0-.355.719.886.886,0,0,0,.258.625,4.565,4.565,0,0,0,1.055.7,6.126,6.126,0,0,1,1.164.789,2.37,2.37,0,0,1,.523.715A2.1,2.1,0,0,1,7.91-2.656Zm15.25-8.766h1.266L22.973-4.578H21.48l.773-3.6q.133-.617.445-1.7-.164.156-.387.336t-1.2.8l-.6-1.008Z" transform="translate(-15567 232)" fill="#707070"/><path d="M0,0H7" transform="translate(-15556.5 223.5)" fill="none" stroke="#707070" stroke-width="1"/></g></svg>