<svg xmlns="http://www.w3.org/2000/svg" width="36.352" height="12.109" viewBox="0 0 36.352 12.109"><g transform="translate(15580.32 -158.047)"><path d="M-7.32-2.656A2.5,2.5,0,0,1-8.242-.574,4.027,4.027,0,0,1-10.8.156,5.511,5.511,0,0,1-13.32-.367V-1.953a4.755,4.755,0,0,0,2.438.7,2.174,2.174,0,0,0,1.227-.312.974.974,0,0,0,.469-.852.96.96,0,0,0-.27-.684,5.273,5.273,0,0,0-1.105-.762,4.123,4.123,0,0,1-1.379-1.066,2.1,2.1,0,0,1-.4-1.285,2.324,2.324,0,0,1,.836-1.9A3.447,3.447,0,0,1-9.25-8.8a5.439,5.439,0,0,1,2.7.656l-.594,1.375a4.37,4.37,0,0,0-2.078-.594,1.54,1.54,0,0,0-.926.258.838.838,0,0,0-.355.719.886.886,0,0,0,.258.625,4.565,4.565,0,0,0,1.055.7,6.126,6.126,0,0,1,1.164.789,2.37,2.37,0,0,1,.523.715A2.1,2.1,0,0,1-7.32-2.656Zm3.672-8.109a1.213,1.213,0,0,1,.3-.859,1.115,1.115,0,0,1,.859-.328,1.04,1.04,0,0,1,.672.207.758.758,0,0,1,.258.629,1.2,1.2,0,0,1-.312.875,1.1,1.1,0,0,1-.82.32,1.121,1.121,0,0,1-.687-.2A.745.745,0,0,1-3.648-10.766ZM-4.016,0H-5.859l1.844-8.641H-2.18ZM3.656,0,4.766-5.25a5.9,5.9,0,0,0,.141-1.023A.9.9,0,0,0,3.9-7.3a1.751,1.751,0,0,0-1.109.445A4.028,4.028,0,0,0,1.8-5.566a7.273,7.273,0,0,0-.656,1.9L.383,0H-1.461L.383-8.641H1.82l-.164,1.6h.07a4.681,4.681,0,0,1,1.336-1.34A2.82,2.82,0,0,1,4.555-8.8,2.15,2.15,0,0,1,6.176-8.2,2.329,2.329,0,0,1,6.75-6.516,7.376,7.376,0,0,1,6.57-5.1L5.5,0ZM21.766-11.422h1.266L21.578-4.578H20.086l.773-3.6q.133-.617.445-1.7-.164.156-.387.336t-1.2.8l-.6-1.008Z" transform="translate(-15567 170)" fill="#707070"/><path d="M0,0H7" transform="translate(-15557.5 161.5)" fill="none" stroke="#707070" stroke-width="1"/></g></svg>