<svg xmlns="http://www.w3.org/2000/svg" width="7.859" height="7.633" viewBox="0 0 7.859 7.633"><path d="M2.637-4.672a2.635,2.635,0,0,0-.766-2.082A3.318,3.318,0,0,0-.387-7.43h-3.7V-8.461H-.262a4.955,4.955,0,0,1,1.539.238,3.671,3.671,0,0,1,1.285.715A3.466,3.466,0,0,1,3.441-6.32,3.9,3.9,0,0,1,3.77-4.672a4.311,4.311,0,0,1-.3,1.656,3.349,3.349,0,0,1-.828,1.207,3.466,3.466,0,0,1-1.273.734A5.163,5.163,0,0,1-.262-.828H-4.09V-1.859H-.621a3.632,3.632,0,0,0,2.457-.707A2.661,2.661,0,0,0,2.637-4.672Z" transform="translate(4.09 8.461)" fill="#707070"/></svg>