<svg xmlns="http://www.w3.org/2000/svg" width="7.859" height="9.797" viewBox="0 0 7.859 9.797"><path d="M3.77,0H-3.574V-1.031H3.77ZM-2.957-6.031a2.661,2.661,0,0,0,.8,2.105A3.632,3.632,0,0,0,.3-3.219H3.77v1.031H-.059a5.163,5.163,0,0,1-1.633-.246,3.466,3.466,0,0,1-1.273-.734,3.349,3.349,0,0,1-.828-1.207,4.311,4.311,0,0,1-.3-1.656,3.87,3.87,0,0,1,.328-1.645,3.435,3.435,0,0,1,.879-1.18A3.66,3.66,0,0,1-1.6-9.562,5.02,5.02,0,0,1-.059-9.8H3.77v1.031H.066A3.358,3.358,0,0,0-2.191-8.1,2.6,2.6,0,0,0-2.957-6.031Z" transform="translate(4.09 9.797)" fill="#707070"/></svg>