<svg xmlns="http://www.w3.org/2000/svg" viewBox="0 0 29.641 22"><defs><style>.a{fill:#707070;}.b,.d{fill:none;}.b{stroke:#707070;stroke-dasharray:2 1;}.c{stroke:none;}</style></defs><g transform="translate(15517.82 -345)"><path class="a" d="M-14.82-4.383a12.106,12.106,0,0,1,.605-3.875,9.633,9.633,0,0,1,1.746-3.164h1.6a11.169,11.169,0,0,0-1.664,3.293,12.277,12.277,0,0,0-.578,3.73,11.943,11.943,0,0,0,.578,3.7,11.155,11.155,0,0,0,1.648,3.234h-1.586a9.207,9.207,0,0,1-1.75-3.1A11.793,11.793,0,0,1-14.82-4.383Zm29.641,0a11.773,11.773,0,0,1-.605,3.828,9.157,9.157,0,0,1-1.746,3.086H10.883A11.212,11.212,0,0,0,12.535-.711,11.944,11.944,0,0,0,13.109-4.4a12.227,12.227,0,0,0-.578-3.73,11.3,11.3,0,0,0-1.664-3.293h1.6a9.584,9.584,0,0,1,1.75,3.176A12.164,12.164,0,0,1,14.82-4.383Z" transform="translate(-15503 362)"/><g class="b" transform="translate(-15510 345)"><rect class="c" width="14" height="22"/><rect class="d" x="0.5" y="0.5" width="13" height="21"/></g></g></svg>