<svg xmlns="http://www.w3.org/2000/svg" width="35" height="22.109" viewBox="0 0 35 22.109"><g transform="translate(15525 -148)"><path d="M.477.109H-.516L-2.7-6H-4.1V-7.055h2.258L-.008-1.711,4.008-13.187h1.07Z" transform="translate(-15511 170)" fill="#707070"/><g transform="translate(-15504 157)" fill="none" stroke-dasharray="2 1"><path d="M0,0H14V13H0Z" stroke="none"/><path d="M 0 0 L 2 0 L 2 1 L 1 1 L 1 3 L 0 3 L 0 0 Z M 3 0 L 5 0 L 5 1 L 3 1 L 3 0 Z M 6 0 L 8 0 L 8 1 L 6 1 L 6 0 Z M 9 0 L 11 0 L 11 1 L 9 1 L 9 0 Z M 12 0 L 14 0 L 14 1 L 14 1 C 14 1 14 3 14 3 L 13 3 L 13 1 L 12 1 L 12 0 Z M 13 4 L 14 4 C 14 4 14 6 14 6 L 13 6 L 13 4 Z M 13 7 L 14 7 C 14 7 14 9 14 9 L 13 9 L 13 7 Z M 13 10 L 14 10 C 14 10 14 12 14 12 L 14 12 L 14 13 C 14 13 12 13 12 13 L 12 12 L 13 12 L 13 10 Z M 9 12 L 11 12 L 11 13 C 11 13 9 13 9 13 L 9 12 Z M 6 12 L 8 12 L 8 13 C 8 13 6 13 6 13 L 6 12 Z M 3 12 L 5 12 L 5 13 C 5 13 3 13 3 13 L 3 12 Z M 0 12 L 2 12 L 2 13 C 2 13 0 13 0 13 L 0 12 Z M 0 10 L 1 10 L 1 12 L 0 12 L 0 10 Z M 0 7 L 1 7 L 1 9 L 0 9 L 0 7 Z M 0 4 L 1 4 L 1 6 L 0 6 L 0 4 Z" stroke="none" fill="#707070"/></g><g transform="translate(-15525 148)" fill="none" stroke-dasharray="2 1"><path d="M0,0H14V13H0Z" stroke="none"/><path d="M 0 0 L 2 0 L 2 1 L 1 1 L 1 3 L 0 3 L 0 0 Z M 3 0 L 5 0 L 5 1 L 3 1 L 3 0 Z M 6 0 L 8 0 L 8 1 L 6 1 L 6 0 Z M 9 0 L 11 0 L 11 1 L 9 1 L 9 0 Z M 12 0 L 14 0 L 14 1 L 14 1 C 14 1 14 3 14 3 L 13 3 L 13 1 L 12 1 L 12 0 Z M 13 4 L 14 4 C 14 4 14 6 14 6 L 13 6 L 13 4 Z M 13 7 L 14 7 C 14 7 14 9 14 9 L 13 9 L 13 7 Z M 13 10 L 14 10 C 14 10 14 12 14 12 L 14 12 L 14 13 C 14 13 12 13 12 13 L 12 12 L 13 12 L 13 10 Z M 9 12 L 11 12 L 11 13 C 11 13 9 13 9 13 L 9 12 Z M 6 12 L 8 12 L 8 13 C 8 13 6 13 6 13 L 6 12 Z M 3 12 L 5 12 L 5 13 C 5 13 3 13 3 13 L 3 12 Z M 0 12 L 2 12 L 2 13 C 2 13 0 13 0 13 L 0 12 Z M 0 10 L 1 10 L 1 12 L 0 12 L 0 10 Z M 0 7 L 1 7 L 1 9 L 0 9 L 0 7 Z M 0 4 L 1 4 L 1 6 L 0 6 L 0 4 Z" stroke="none" fill="#707070"/></g></g></svg>