<svg xmlns="http://www.w3.org/2000/svg" width="57.012" height="13.34" viewBox="0 0 57.012 13.34"><g transform="translate(16084.176 -412.758)"><path d="M-2.158.1v-9.16H-5.176l4.971-3.721,4.98,3.721H1.738V.1ZM1.318-.342V-9.5H3.457L-.205-12.236h-.02L-3.857-9.5h2.119v9.16Z" transform="translate(-16079 426)" fill="#707070"/><path d="M-10.133-2.461A2.261,2.261,0,0,1-11.055-.52,4.414,4.414,0,0,1-13.7.156a6.237,6.237,0,0,1-2.773-.523V-1.953a6.809,6.809,0,0,0,2.836.7q1.7,0,1.7-1.023a.811.811,0,0,0-.187-.547,2.219,2.219,0,0,0-.617-.453,10.621,10.621,0,0,0-1.2-.531,5.529,5.529,0,0,1-2.02-1.156,2.139,2.139,0,0,1-.527-1.5,1.97,1.97,0,0,1,.895-1.723A4.245,4.245,0,0,1-13.156-8.8a6.893,6.893,0,0,1,2.883.617L-10.867-6.8a6.412,6.412,0,0,0-2.352-.578q-1.453,0-1.453.828a.833.833,0,0,0,.379.688,8.333,8.333,0,0,0,1.652.773,7.553,7.553,0,0,1,1.555.758,2.265,2.265,0,0,1,.719.793A2.3,2.3,0,0,1-10.133-2.461ZM-.547,0H-2.391V-5.312a2.325,2.325,0,0,0-.4-1.492A1.555,1.555,0,0,0-4.07-7.3a2.028,2.028,0,0,0-1.7.691,3.81,3.81,0,0,0-.543,2.316V0H-8.148V-12.156h1.836V-9.07a14.4,14.4,0,0,1-.094,1.586h.117a2.549,2.549,0,0,1,1.043-.969A3.362,3.362,0,0,1-3.687-8.8q3.141,0,3.141,3.164ZM3.844,0H2.008V-8.641H3.844ZM1.9-10.93a1.017,1.017,0,0,1,.27-.758,1.05,1.05,0,0,1,.77-.266,1.028,1.028,0,0,1,.754.266,1.017,1.017,0,0,1,.27.758,1,1,0,0,1-.27.738,1.019,1.019,0,0,1-.754.27,1.041,1.041,0,0,1-.77-.27A1,1,0,0,1,1.9-10.93ZM10.8-7.25H8.7V0H6.852V-7.25H5.43v-.859l1.422-.562v-.562A3.144,3.144,0,0,1,7.57-11.5a2.939,2.939,0,0,1,2.2-.738,5.859,5.859,0,0,1,1.906.32l-.484,1.391a4.232,4.232,0,0,0-1.3-.219,1.056,1.056,0,0,0-.91.387A1.948,1.948,0,0,0,8.7-9.2v.563H10.8Zm4.688,5.922a4.465,4.465,0,0,0,1.344-.211V-.156a3.706,3.706,0,0,1-.785.223,5.409,5.409,0,0,1-1,.09q-2.609,0-2.609-2.75V-7.25h-1.18v-.812l1.266-.672.625-1.828h1.133v1.922H16.75V-7.25H14.289v4.625a1.3,1.3,0,0,0,.332.98A1.21,1.21,0,0,0,15.492-1.328Z" transform="translate(-16044 425)" fill="#707070"/></g></svg>