<svg xmlns="http://www.w3.org/2000/svg" xmlns:xlink="http://www.w3.org/1999/xlink" width="380" height="206" viewBox="0 0 380 206"><defs><clipPath id="a"><rect width="380" height="206" transform="translate(289 164)" fill="none"/></clipPath><filter id="b" x="-15" y="-63" width="410" height="287" filterUnits="userSpaceOnUse"><feOffset dy="3" input="SourceAlpha"/><feGaussianBlur stdDeviation="5" result="c"/><feFlood flood-opacity="0.102"/><feComposite operator="in" in2="c"/><feComposite in="SourceGraphic"/></filter><filter id="d" x="15" y="46.56" width="349.957" height="105.44" filterUnits="userSpaceOnUse"><feOffset dy="3" input="SourceAlpha"/><feGaussianBlur stdDeviation="5" result="e"/><feFlood flood-opacity="0.071"/><feComposite operator="in" in2="e"/><feComposite in="SourceGraphic"/></filter><linearGradient id="f" x1="1" x2="-0.007" y2="1" gradientUnits="objectBoundingBox"><stop offset="0" stop-color="#e5e5e5"/><stop offset="1" stop-color="#dbdbdb"/></linearGradient><linearGradient id="g" x1="1.019" x2="0" y2="1.017" gradientUnits="objectBoundingBox"><stop offset="0" stop-color="#fe9328"/><stop offset="1" stop-color="#fe5928"/></linearGradient><linearGradient id="h" x1="0.5" x2="0.5" y2="1" xlink:href="#g"/></defs><g transform="translate(-289 -164)" clip-path="url(#a)"><g transform="matrix(1, 0, 0, 1, 289, 164)" filter="url(#b)"><rect width="380" height="257" transform="translate(0 -51)" fill="transparent"/></g><g transform="translate(-238 -470.44)"><g transform="matrix(1, 0, 0, 1, 527, 634.44)" filter="url(#d)"><rect width="319.957" height="75.441" transform="translate(30 58.56)" fill="#fff"/></g><g transform="translate(557 741.815)"><rect width="293.331" height="26.626" transform="translate(26.626)" fill="url(#f)"/><rect width="26.626" height="26.626" transform="translate(293.331)" fill="#b4b4b4" opacity="0.21"/><rect width="32.395" height="26.626" transform="translate(0)" fill="#f8f8f8"/><circle cx="3.55" cy="3.55" r="3.55" transform="translate(9.763 9.763)" fill="#ee1658"/><g transform="translate(301.763 9.763)"><path d="M4.44,15.857a.4.4,0,0,1-.66.31l-2.2-1.826H.4a.4.4,0,0,1-.4-.4V12.332a.4.4,0,0,1,.4-.4H1.577L3.78,10.1a.4.4,0,0,1,.66.31v5.443Zm1.549-.63H5.96a.4.4,0,0,1-.285-.118l-.054-.054a.4.4,0,0,1-.039-.525,2.344,2.344,0,0,0-.062-2.872.4.4,0,0,1,.028-.539l.054-.054a.394.394,0,0,1,.305-.117A.4.4,0,0,1,6.2,11.1a3.228,3.228,0,0,1,.084,3.97A.4.4,0,0,1,5.989,15.227Zm1.666,1.246a.4.4,0,0,1-.291.143H7.348a.4.4,0,0,1-.285-.118l-.053-.053a.4.4,0,0,1-.023-.544,4.3,4.3,0,0,0-.071-5.612.4.4,0,0,1,.016-.552l.053-.053a.392.392,0,0,1,.3-.118.4.4,0,0,1,.29.135,5.175,5.175,0,0,1,.085,6.772Z" transform="translate(0 -9.565)" fill="#fff"/></g><g transform="translate(26.626)"><rect width="26.626" height="26.626" fill="url(#g)"/><path d="M10.751,3.466,5.769.03A.172.172,0,0,0,5.5.172V7.043a.172.172,0,0,0,.269.141l4.982-3.436a.172.172,0,0,0,0-.283Z" transform="translate(6.038 9.763)" fill="#fff"/></g><rect width="176.62" height="1.775" transform="translate(100.292 12.426)" fill="#b1b1b1"/><circle cx="4.438" cy="4.438" r="4.438" transform="translate(100.292 8.875)" fill="url(#h)"/><text transform="translate(69.637 14.319)" fill="#fff" font-size="5" font-family="OpenSans-SemiBold, Open Sans" font-weight="600" letter-spacing="0.019em"><tspan x="0" y="0">0:00:00</tspan></text></g><text transform="translate(717 721.413)" fill="#ee1658" font-size="10" font-family="OpenSans-SemiBold, Open Sans" font-weight="600" letter-spacing="0.019em"><tspan x="-57.128" y="0">Click on record to start</tspan></text></g></g></svg>