<svg xmlns="http://www.w3.org/2000/svg" xmlns:xlink="http://www.w3.org/1999/xlink" width="380" height="206" viewBox="0 0 380 206"><defs><clipPath id="a"><rect width="380" height="206" transform="translate(289 164)" fill="none"/></clipPath><filter id="b" x="-15" y="-63" width="410" height="287" filterUnits="userSpaceOnUse"><feOffset dy="3" input="SourceAlpha"/><feGaussianBlur stdDeviation="5" result="c"/><feFlood flood-opacity="0.102"/><feComposite operator="in" in2="c"/><feComposite in="SourceGraphic"/></filter></defs><g transform="translate(-289 -164)" clip-path="url(#a)"><g transform="matrix(1, 0, 0, 1, 289, 164)" filter="url(#b)"><rect width="380" height="257" transform="translate(0 -51)" fill="transparent"/></g><g transform="translate(308.699 178)"><g fill="#fff" stroke="#e6e6e6" stroke-width="1"><rect width="340.977" height="176.849" rx="4" stroke="none"/><rect x="0.5" y="0.5" width="339.977" height="175.849" rx="3.5" fill="none"/></g><text transform="translate(25.301 60)" fill="#434b5d" font-size="14" font-family="OpenSans-Bold, Open Sans" font-weight="700"><tspan x="0" y="15">William Shakespeare</tspan><tspan y="15" xml:space="preserve" font-family="OpenSans, Open Sans" font-weight="400"> was an English poet, </tspan><tspan x="0" y="34" font-family="OpenSans, Open Sans" font-weight="400">playwright, and actor, widely regarded as </tspan><tspan x="0" y="53" font-family="OpenSans, Open Sans" font-weight="400">the greatest writer in the English language </tspan><tspan x="0" y="72" font-family="OpenSans, Open Sans" font-weight="400">and the world&apos;s...</tspan></text></g><g transform="translate(309 178)"><rect width="340.676" height="40" transform="translate(0)" fill="#e6e6e6" opacity="0.23"/><g transform="translate(20.632 10)"><path d="M28.3,6.285a3.677,3.677,0,0,0-2.034-1.112,8.29,8.29,0,0,0,1.143-.587,2.536,2.536,0,0,0,.723-.8,1.985,1.985,0,0,0,.244-.975,2.665,2.665,0,0,0-.16-.929,2.332,2.332,0,0,0-.5-.792A2.875,2.875,0,0,0,26.946.51a4.928,4.928,0,0,0-.731-.3A5.762,5.762,0,0,0,24.76.008H24.2q-.152,0-.309,0l-.164,0-.107,0-.107,0-.343.008-2.895.1L18.292.16l.03.632q.64.084.868.1a1.164,1.164,0,0,1,.526.114q.084.061.091.091a2.725,2.725,0,0,1,.084.83q.03,1.128.069,3.078l.015,3.786a11.82,11.82,0,0,1-.069,1.478,1.071,1.071,0,0,1-.16.389,4.23,4.23,0,0,1-.937.236q-.175.023-.518.092l-.015.716q1.821-.061,2.072-.084,1.63-.1,2.27-.084l1.5.03a7.162,7.162,0,0,0,1.508-.084,6.109,6.109,0,0,0,1.546-.457,3.591,3.591,0,0,0,1.066-.823,2.529,2.529,0,0,0,.541-.891A3.8,3.8,0,0,0,29,8.083,2.676,2.676,0,0,0,28.3,6.285ZM22.337.884a6.226,6.226,0,0,1,.99-.1,2.845,2.845,0,0,1,1.943.571,1.823,1.823,0,0,1,.647,1.424,1.975,1.975,0,0,1-.678,1.706,3.4,3.4,0,0,1-2.011.5,5.324,5.324,0,0,1-.83-.053q-.008-.259-.008-.587L22.4,3.6q.008-1.2-.046-2.125Q22.337,1.219,22.337.884Zm3.809,8.8a1.954,1.954,0,0,1-.929.861,3.788,3.788,0,0,1-1.646.312,2.769,2.769,0,0,1-1.067-.244.982.982,0,0,1-.092-.335L22.391,8.22,22.4,6.9V5.8a2.57,2.57,0,0,1,.769-.076,5.4,5.4,0,0,1,1.882.244,2.219,2.219,0,0,1,1.074.96A2.587,2.587,0,0,1,26.436,8.3,2.881,2.881,0,0,1,26.147,9.682Z" transform="translate(-18.277 3.421)" fill="#434b5d"/><path d="M80.912.02q-.277.02-.538.036Q79.2.127,78.679.127q-.269,0-.578-.016L75.591,0l-.15.816a2.922,2.922,0,0,0,.3.032,3,3,0,0,1,1.14.222v.3l-.063.4-.174,1.069-.127.5-.23,1.243a.807.807,0,0,1-.028.091q-.028.083-.071.241t-.1.368q-.056.21-.127.531t-.135.669l-.1.507L75.29,9.105l-.214,1.1a1.827,1.827,0,0,1-.325.8,4.7,4.7,0,0,1-.918.309l-.61.158-.135.673q.19-.016.776-.071,1.053-.095,1.378-.087L76.81,12q1,.1,1.148.135a1.6,1.6,0,0,0,.222.024q.143,0,.333-.016a1.25,1.25,0,0,1,.182-.008q.016-.079.071-.325a2.754,2.754,0,0,0,.055-.459q-.238-.039-.523-.079a7.949,7.949,0,0,1-.942-.166.612.612,0,0,1-.008-.214l.1-.356.34-1.861.3-1.251.483-2.462q.174-.847.523-2.423.032-.3.1-.649a4.742,4.742,0,0,1,.19-.7,6.274,6.274,0,0,1,.8-.245A7.841,7.841,0,0,0,81.046.7q.048-.174.1-.4A2.894,2.894,0,0,0,81.2,0Z" transform="translate(-41.93 3.194)" fill="#434b5d"/><g transform="translate(150.403 3)"><path d="M12.175,2.988a.619.619,0,0,1-.041.222c-.021.04-.084.069-.187.087a.343.343,0,0,1-.445-.254,3.228,3.228,0,0,0-.926-1.607A4.538,4.538,0,0,0,7.97.884q-.753,0-.826.163a.366.366,0,0,0-.027.154v9.05a1.025,1.025,0,0,0,.272.814,2.521,2.521,0,0,0,1.048.476c.23.049.462.1.493.114.219,0,.24.5-.179.5-.012.008-4.942,0-4.942,0a.283.283,0,0,1-.035-.487l.365-.163a4.565,4.565,0,0,0,1.053-.481A1.431,1.431,0,0,0,5.5,10V1.2q0-.264-.327-.308c-.023-.007-.2-.01-.534-.01a4.32,4.32,0,0,0-2.543.6A3.661,3.661,0,0,0,1,3.118c-.1.248-.246.328-.427.244C.366,3.314.291,3.2.345,3.026A9.4,9.4,0,0,0,.663.257c0-.139.184-.279.554-.254L11.395.03c.338-.05.522.006.553.163A12.663,12.663,0,0,1,12.175,2.988Z" transform="translate(-0.328 0)" fill="#434b5d" stroke="#434b5d" stroke-width="0.75"/><text transform="translate(9.965 15)" fill="#434b5d" font-size="7" font-family="PlayfairDisplay-Bold, Playfair Display" font-weight="700" letter-spacing="-0.05em"><tspan x="0" y="0">X</tspan></text></g><g transform="translate(59.805 2.776)"><path d="M.418.825q1.059.026,1.275.338a5.726,5.726,0,0,1,.148,1.848V5.9A11.306,11.306,0,0,0,1.98,7.956,3.742,3.742,0,0,0,2.7,9.648a3.65,3.65,0,0,0,1.553,1.059,6.748,6.748,0,0,0,2.464.4A7.666,7.666,0,0,0,8.93,10.82a4.907,4.907,0,0,0,1.579-.772,3.845,3.845,0,0,0,.972-1.067,3.586,3.586,0,0,0,.356-1.058,12.663,12.663,0,0,0,.13-2.638q-.121-3.271-.191-3.436,0-.1-.013-.269t-.013-.234a.481.481,0,0,1,.13-.356,2.572,2.572,0,0,1,.685-.148,3.159,3.159,0,0,0,.729-.113A2.143,2.143,0,0,0,13.329.46a3.512,3.512,0,0,0-.052-.442L13.121,0a12.023,12.023,0,0,1-1.7.087L9.642,0H8.913L8.9.746l.122.026L9.885.755a.879.879,0,0,1,.668.3,1.369,1.369,0,0,1,.208.763l.035.512q.052.746.117,1.384t.1,1.063q.03.425.03,1.111a7.835,7.835,0,0,1-.182,1.987,3.812,3.812,0,0,1-.46.989,2.222,2.222,0,0,1-.564.555,2.808,2.808,0,0,1-.859.442,5.384,5.384,0,0,1-1.657.243,3.229,3.229,0,0,1-1.536-.408,2.124,2.124,0,0,1-.833-.8,3.865,3.865,0,0,1-.443-1.753L4.384,4.711,4.375,2.725q0-.052,0-.221t0-.282a2.845,2.845,0,0,1,.113-1.145A.835.835,0,0,1,5.164.859,7.245,7.245,0,0,0,6.24.781V.7L6.223.148,6.232.026q-.26.017-.746.017L4.219.087Q3.507.113,2.761.113q-.3,0-1.44-.061Q.87.018.349.018.115.018,0,.026L.028.79A3.126,3.126,0,0,0,.418.825Z" transform="translate(-0.002)" fill="#434b5d"/><path d="M13.054,402H.283a.267.267,0,0,0-.278.278v.555a.267.267,0,0,0,.278.278H13.054a.267.267,0,0,0,.278-.278v-.555a.267.267,0,0,0-.278-.278Z" transform="translate(-0.005 -389.784)" fill="#434b5d"/></g><line y2="14" transform="translate(93.868 2.5)" fill="none" stroke="#434b5d" stroke-width="1.5"/><g transform="translate(114.368 3)"><circle cx="1.72" cy="1.72" r="1.72" fill="#434b5d"/><circle cx="1.72" cy="1.72" r="1.72" transform="translate(0 4.731)" fill="#434b5d"/><circle cx="1.72" cy="1.72" r="1.72" transform="translate(0 9.606)" fill="#434b5d"/><path d="M32.573,12.41h9.342a.316.316,0,0,0,.315-.315v-1.62a.316.316,0,0,0-.315-.315H32.573a.316.316,0,0,0-.315.315v1.62A.315.315,0,0,0,32.573,12.41Z" transform="translate(-27.171 -9.564)" fill="#434b5d"/><path d="M41.915,40.158H32.573a.316.316,0,0,0-.315.315v1.62a.316.316,0,0,0,.315.315h9.342a.316.316,0,0,0,.315-.315v-1.62A.315.315,0,0,0,41.915,40.158Z" transform="translate(-27.171 -34.832)" fill="#434b5d"/><path d="M41.915,71.064H32.573a.316.316,0,0,0-.315.315V73a.316.316,0,0,0,.315.315h9.342A.316.316,0,0,0,42.231,73v-1.62A.315.315,0,0,0,41.915,71.064Z" transform="translate(-27.171 -60.864)" fill="#434b5d"/></g><g transform="translate(185.368)"><path d="M32.573,12.41h9.342a.316.316,0,0,0,.315-.315v-1.62a.316.316,0,0,0-.315-.315H32.573a.316.316,0,0,0-.315.315v1.62A.315.315,0,0,0,32.573,12.41Z" transform="translate(-27.171 -6.564)" fill="#434b5d"/><path d="M41.915,40.158H32.573a.316.316,0,0,0-.315.315v1.62a.316.316,0,0,0,.315.315h9.342a.316.316,0,0,0,.315-.315v-1.62A.315.315,0,0,0,41.915,40.158Z" transform="translate(-27.171 -31.832)" fill="#434b5d"/><path d="M41.915,71.064H32.573a.316.316,0,0,0-.315.315V73a.316.316,0,0,0,.315.315h9.342A.316.316,0,0,0,42.231,73v-1.62A.315.315,0,0,0,41.915,71.064Z" transform="translate(-27.171 -57.864)" fill="#434b5d"/><text transform="translate(0 6)" fill="#434b5d" font-size="6" font-family="OpenSans-Bold, Open Sans" font-weight="700" letter-spacing="-0.05em"><tspan x="0" y="0">1</tspan></text><text transform="translate(0 11.5)" fill="#434b5d" font-size="6" font-family="OpenSans-Bold, Open Sans" font-weight="700" letter-spacing="-0.05em"><tspan x="0" y="0">2</tspan></text><text transform="translate(0 17)" fill="#434b5d" font-size="6" font-family="OpenSans-Bold, Open Sans" font-weight="700" letter-spacing="-0.05em"><tspan x="0" y="0">3</tspan></text></g></g></g></g></svg>
