<svg xmlns="http://www.w3.org/2000/svg" xmlns:xlink="http://www.w3.org/1999/xlink" width="380" height="206" viewBox="0 0 380 206"><defs><clipPath id="a"><rect width="380" height="206" transform="translate(289 164)" fill="none"/></clipPath><filter id="b" x="-15" y="-63" width="410" height="287" filterUnits="userSpaceOnUse"><feOffset dy="3" input="SourceAlpha"/><feGaussianBlur stdDeviation="5" result="c"/><feFlood flood-opacity="0.102"/><feComposite operator="in" in2="c"/><feComposite in="SourceGraphic"/></filter><filter id="d" x="15" y="3.699" width="349.957" height="197.301" filterUnits="userSpaceOnUse"><feOffset dy="3" input="SourceAlpha"/><feGaussianBlur stdDeviation="5" result="e"/><feFlood flood-opacity="0.071"/><feComposite operator="in" in2="e"/><feComposite in="SourceGraphic"/></filter><linearGradient id="f" x1="1" x2="-0.007" y2="1" gradientUnits="objectBoundingBox"><stop offset="0" stop-color="#e5e5e5"/><stop offset="1" stop-color="#dbdbdb"/></linearGradient></defs><g transform="translate(-289 -164)" clip-path="url(#a)"><g transform="matrix(1, 0, 0, 1, 289, 164)" filter="url(#b)"><rect width="380" height="257" transform="translate(0 -51)" fill="transparent"/></g><g transform="translate(-238 -513.301)"><g transform="matrix(1, 0, 0, 1, 527, 677.3)" filter="url(#d)"><rect width="319.957" height="167.301" transform="translate(30 15.7)" fill="#fff"/></g><g transform="translate(557 833.675)"><rect width="293.331" height="26.626" transform="translate(26.626 0)" fill="url(#f)"/><rect width="65.678" height="26.626" transform="translate(65.678 0)" fill="#b4b4b4" opacity="0.21"/><rect width="65.678" height="26.626" transform="translate(0 0)" fill="#f8f8f8"/><circle cx="3.55" cy="3.55" r="3.55" transform="translate(9.763 9.763)" fill="#ee1658"/><text transform="translate(26.626 15.319)" fill="#434b5d" font-size="6" font-family="OpenSans-SemiBold, Open Sans" font-weight="600"><tspan x="0" y="0">Record</tspan></text><text transform="translate(90.529 15.319)" fill="#434b5d" font-size="6" font-family="OpenSans-SemiBold, Open Sans" font-weight="600"><tspan x="0" y="0">Pause</tspan></text><g transform="translate(75.591 9.763)"><path d="M150.174,0h1.542a.174.174,0,0,1,.174.174V6.927a.174.174,0,0,1-.174.174h-1.542A.174.174,0,0,1,150,6.927V.174A.174.174,0,0,1,150.174,0Zm0,0" transform="translate(-146.743)" fill="#434b5d"/><path d="M.174,0H1.715a.174.174,0,0,1,.174.174V6.927a.174.174,0,0,1-.174.174H.174A.174.174,0,0,1,0,6.927V.174A.174.174,0,0,1,.174,0Zm0,0" fill="#434b5d"/></g></g><g transform="translate(614.246 738.708)"><text transform="translate(98.277 36.964)" fill="#434b5d" font-size="12" font-family="OpenSans-Bold, Open Sans" font-weight="700"><tspan x="-61.128" y="0">Press record to start</tspan></text><text transform="translate(89 46.271)" fill="#434b5d" font-size="5" font-family="OpenSans-SemiBold, Open Sans" font-weight="600" letter-spacing="0.019em"><tspan x="-89.153" y="0">Before recording, we will ask for access to the camera and microphone.</tspan></text><g transform="translate(92.304 0)"><g transform="translate(5.043 4.438)"><path d="M19.237,26.8H6.984a.586.586,0,0,0-.584.583v9.564a.586.586,0,0,0,.584.584H19.237a.586.586,0,0,0,.583-.584V34.186l2.121,2.121a.57.57,0,0,0,.413.171.645.645,0,0,0,.228-.043.578.578,0,0,0,.356-.541V28.422a.608.608,0,0,0-.356-.541.568.568,0,0,0-.626.128L19.835,30.13V27.383a.6.6,0,0,0-.6-.584Zm-.584,4.739v4.839H7.553V27.953h11.1Zm3.117-1.708v4.682l-1.95-1.95V31.8Z" transform="translate(-6.4 -26.8)" fill="#434b5d" stroke="#fff" stroke-width="1"/></g><rect width="8.432" height="10.207" transform="translate(0 3.55)" fill="#fff"/><g transform="translate(-214.412)" fill="#434b5d"><path d="M 222.1139831542969 20.02629852294922 L 221.6139831542969 20.02629852294922 L 216.164794921875 20.02629852294922 L 215.664794921875 20.02629852294922 L 215.664794921875 19.52629852294922 L 215.664794921875 18.61807823181152 L 215.664794921875 18.11807823181152 L 216.164794921875 18.11807823181152 L 217.9352874755859 18.11807823181152 L 217.9352874755859 15.39444637298584 C 216.3480834960938 15.12257671356201 214.9305114746094 14.19050979614258 213.9959259033203 12.78817844390869 L 213.71875 12.37229824066162 L 214.134521484375 12.09494876861572 L 214.8901214599609 11.59088802337646 L 215.2636108398438 11.3417272567749 C 214.6636505126953 10.54105186462402 214.302490234375 9.545761108398438 214.302490234375 8.482128143310547 L 214.302490234375 4.232198238372803 C 214.302490234375 1.667078256607056 216.4030303955078 -0.5000016689300537 218.889404296875 -0.5000016689300537 C 221.375732421875 -0.5000016689300537 223.4762878417969 1.667078256607056 223.476318359375 4.23218822479248 L 223.476318359375 8.482598304748535 C 223.476318359375 9.547066688537598 223.1146392822266 10.54292964935303 222.5137176513672 11.34388828277588 L 222.8875732421875 11.59305858612061 L 223.6432037353516 12.09664821624756 L 224.0593872070313 12.37401866912842 L 223.7818908691406 12.79011821746826 C 222.8474273681641 14.19137191772461 221.4302825927734 15.12274169921875 219.8434753417969 15.39447975158691 L 219.8434753417969 18.11809921264648 L 221.6139831542969 18.11809921264648 L 222.1139831542969 18.11809921264648 L 222.1139831542969 18.61809921264648 L 222.1139831542969 19.52629852294922 L 222.1139831542969 20.02629852294922 Z M 215.5752258300781 11.71687793731689 L 215.5837097167969 11.72961807250977 C 216.3543701171875 12.88643836975098 217.5901336669922 13.57707786560059 218.889404296875 13.57707786560059 C 220.1875305175781 13.57707786560059 221.4230499267578 12.88715839385986 222.1944122314453 11.73152828216553 L 222.2054443359375 11.71499824523926 C 221.3628234863281 12.63284015655518 220.1779632568359 13.21479797363281 218.889404296875 13.21479797363281 C 217.6019134521484 13.21479797363281 216.417724609375 12.63350200653076 215.5752258300781 11.71687793731689 Z M 216.2106781005859 5.495108127593994 L 216.2106781005859 8.482128143310547 C 216.2106781005859 10.01289844512939 217.4373626708984 11.30613803863525 218.8893737792969 11.30613803863525 C 220.3413696289063 11.30613803863525 221.5680694580078 10.01289844512939 221.5680694580078 8.482128143310547 L 221.5680694580078 5.495108127593994 L 221.1598815917969 5.495108127593994 L 220.2516784667969 5.495108127593994 L 219.843505859375 5.495108127593994 L 219.843505859375 5.903298377990723 L 219.843505859375 6.811498165130615 L 219.843505859375 7.311498165130615 L 219.343505859375 7.311498165130615 L 218.4352874755859 7.311498165130615 L 217.9352874755859 7.311498165130615 L 217.9352874755859 6.811498165130615 L 217.9352874755859 5.903298377990723 L 217.9352874755859 5.495108127593994 L 217.527099609375 5.495108127593994 L 216.618896484375 5.495108127593994 L 216.2106781005859 5.495108127593994 Z M 219.843505859375 3.586918354034424 L 220.2516784667969 3.586918354034424 L 221.1598815917969 3.586918354034424 L 221.4943084716797 3.586918354034424 C 221.2089538574219 2.35486888885498 220.1316070556641 1.408198356628418 218.8893737792969 1.408198356628418 C 217.6471405029297 1.408198356628418 216.5697937011719 2.35486888885498 216.2844390869141 3.586918354034424 L 216.618896484375 3.586918354034424 L 217.527099609375 3.586918354034424 L 217.9352874755859 3.586918354034424 L 217.9352874755859 3.178698301315308 L 217.9352874755859 2.270498275756836 L 217.9352874755859 1.770498275756836 L 218.4352874755859 1.770498275756836 L 219.343505859375 1.770498275756836 L 219.843505859375 1.770498275756836 L 219.843505859375 2.270498275756836 L 219.843505859375 3.178698301315308 L 219.843505859375 3.586918354034424 Z" stroke="none"/><path d="M 221.6139831542969 19.52629852294922 L 221.6139831542969 18.61809921264648 L 219.3434753417969 18.61809921264648 L 219.3434753417969 14.95578861236572 C 220.9423675537109 14.81229877471924 222.4222717285156 13.92769813537598 223.3659057617188 12.51270866394043 L 222.6102905273438 12.00911808013916 C 221.7461242675781 13.30374813079834 220.355224609375 14.07707786560059 218.889404296875 14.07707786560059 C 217.423095703125 14.07707786560059 216.0312805175781 13.303297996521 215.1675872802734 12.00682830810547 L 214.4119873046875 12.51088809967041 C 215.3556060791016 13.92675876617432 216.83642578125 14.81227874755859 218.4352874755859 14.9557580947876 L 218.4352874755859 18.61807823181152 L 216.164794921875 18.61807823181152 L 216.164794921875 19.52629852294922 L 221.6139831542969 19.52629852294922 M 218.889404296875 12.71479797363281 C 221.1044921875 12.71479797363281 222.976318359375 10.77624797821045 222.976318359375 8.482598304748535 L 222.976318359375 4.232198238372803 C 222.9762878417969 1.938088297843933 221.1044769287109 -1.692199703029473e-06 218.889404296875 -1.692199703029473e-06 C 216.6743011474609 -1.692199703029473e-06 214.802490234375 1.93854832649231 214.802490234375 4.232198238372803 L 214.802490234375 8.482128143310547 C 214.802490234375 10.77624797821045 216.6742706298828 12.71479797363281 218.889404296875 12.71479797363281 M 218.8893737792969 0.9081982970237732 C 220.6122131347656 0.9081982970237732 222.0680694580078 2.430338382720947 222.0680694580078 4.232198238372803 L 222.0680694580078 8.482128143310547 C 222.0680694580078 10.28399848937988 220.6122131347656 11.80613803863525 218.8893737792969 11.80613803863525 C 217.1665344238281 11.80613803863525 215.7106781005859 10.28399848937988 215.7106781005859 8.482128143310547 L 215.7106781005859 4.232198238372803 C 215.7106781005859 2.430338382720947 217.1665344238281 0.9081982970237732 218.8893737792969 0.9081982970237732 M 219.343505859375 6.811498165130615 L 219.343505859375 5.903298377990723 L 218.4352874755859 5.903298377990723 L 218.4352874755859 6.811498165130615 L 219.343505859375 6.811498165130615 M 221.1598815917969 4.995108127593994 L 221.1598815917969 4.086918354034424 L 220.2516784667969 4.086918354034424 L 220.2516784667969 4.995108127593994 L 221.1598815917969 4.995108127593994 M 219.343505859375 4.995108127593994 L 219.343505859375 4.086918354034424 L 218.4352874755859 4.086918354034424 L 218.4352874755859 4.995108127593994 L 219.343505859375 4.995108127593994 M 217.527099609375 4.995108127593994 L 217.527099609375 4.086918354034424 L 216.618896484375 4.086918354034424 L 216.618896484375 4.995108127593994 L 217.527099609375 4.995108127593994 M 219.343505859375 3.178698301315308 L 219.343505859375 2.270498275756836 L 218.4352874755859 2.270498275756836 L 218.4352874755859 3.178698301315308 L 219.343505859375 3.178698301315308 M 222.6139831542969 20.52629852294922 L 221.6139831542969 20.52629852294922 L 216.164794921875 20.52629852294922 L 215.164794921875 20.52629852294922 L 215.164794921875 19.52629852294922 L 215.164794921875 18.61807823181152 L 215.164794921875 17.61807823181152 L 216.164794921875 17.61807823181152 L 217.4352874755859 17.61807823181152 L 217.4352874755859 15.8014965057373 C 215.8822021484375 15.42529678344727 214.5093536376953 14.46015644073486 213.5798492431641 13.06546783447266 L 213.0255126953125 12.23370838165283 L 213.8570404052734 11.67900848388672 L 214.5650329589844 11.20670223236084 C 214.0682373046875 10.388503074646 213.802490234375 9.45189094543457 213.802490234375 8.482128143310547 L 213.802490234375 4.232198238372803 C 213.802490234375 2.862328290939331 214.3328704833984 1.558658361434937 215.2959289550781 0.5613383054733276 C 216.2681732177734 -0.4455116987228394 217.5443725585938 -1.000001668930054 218.889404296875 -1.000001668930054 C 220.2344665527344 -1.000001668930054 221.5106353759766 -0.4455817043781281 222.4828338623047 0.5611383318901062 C 223.4459075927734 1.558408260345459 223.9763031005859 2.862138271331787 223.976318359375 4.23218822479248 L 223.976318359375 8.482598304748535 C 223.976318359375 9.452971458435059 223.7101287841797 10.39020252227783 223.2125701904297 11.20878505706787 L 223.9204864501953 11.68057823181152 L 224.7528533935547 12.23531818389893 L 224.1978759765625 13.06752872467041 C 223.2685546875 14.46106624603271 221.8960266113281 15.42550182342529 220.3434753417969 15.80154132843018 L 220.3434753417969 17.61809921264648 L 221.6139831542969 17.61809921264648 L 222.6139831542969 17.61809921264648 L 222.6139831542969 18.61809921264648 L 222.6139831542969 19.52629852294922 L 222.6139831542969 20.52629852294922 Z M 216.7106781005859 5.995108127593994 L 216.7106781005859 8.482128143310547 C 216.7106781005859 9.720148086547852 217.728759765625 10.80613803863525 218.8893737792969 10.80613803863525 C 220.0499877929688 10.80613803863525 221.0680694580078 9.720148086547852 221.0680694580078 8.482128143310547 L 221.0680694580078 5.995108127593994 L 220.343505859375 5.995108127593994 L 220.343505859375 6.811498165130615 L 220.343505859375 7.811498165130615 L 219.343505859375 7.811498165130615 L 218.4352874755859 7.811498165130615 L 217.4352874755859 7.811498165130615 L 217.4352874755859 6.811498165130615 L 217.4352874755859 5.995108127593994 L 216.7106781005859 5.995108127593994 Z M 220.343505859375 3.086918354034424 L 220.7653198242188 3.086918354034424 C 220.6509552001953 2.882095336914063 220.5081176757813 2.695355415344238 220.343505859375 2.533877849578857 L 220.343505859375 3.086918354034424 Z M 217.013427734375 3.086918354034424 L 217.4352874755859 3.086918354034424 L 217.4352874755859 2.533830165863037 C 217.2706756591797 2.695307731628418 217.1277770996094 2.882095336914063 217.013427734375 3.086918354034424 Z" stroke="none" fill="#fff"/></g></g></g></g></g></svg>