<svg xmlns="http://www.w3.org/2000/svg" width="20.475" height="20.475" viewBox="0 0 20.475 20.475"><g transform="translate(0.002)"><path d="M133.852,14.567l1.034-.429a.8.8,0,1,0-.612-1.478l-1.034.429a.8.8,0,0,0,.612,1.478Z" transform="translate(-127.438 -12.096)" fill="#12a6e8"/><path d="M10.237,0a.8.8,0,0,0,0,1.6A8.637,8.637,0,1,1,1.6,10.237a.8.8,0,0,0-1.6,0A10.237,10.237,0,1,0,10.237,0Z" transform="translate(-0.002)" fill="#12a6e8"/><path d="M60.588,61.38l.792-.792a.8.8,0,1,0-1.131-1.131l-.792.792a.8.8,0,1,0,1.131,1.131Z" transform="translate(-56.855 -56.855)" fill="#12a6e8"/><path d="M13.095,135.32a.8.8,0,0,0,1.045-.433l.429-1.034a.8.8,0,1,0-1.478-.612l-.429,1.034A.8.8,0,0,0,13.095,135.32Z" transform="translate(-12.097 -127.438)" fill="#12a6e8"/><text transform="translate(6.997 14)" fill="#12a6e8" font-size="10" font-family="OpenSans-Bold, Open Sans" font-weight="700" letter-spacing="0.019em"><tspan x="0" y="0">A</tspan></text></g></svg>