<svg xmlns="http://www.w3.org/2000/svg" width="16" height="14.666" viewBox="0 0 16 14.666"><path d="M6,5A2.01,2.01,0,0,0,4,7V17.667a2.01,2.01,0,0,0,2,2H18a2.01,2.01,0,0,0,2-2V7a2.01,2.01,0,0,0-2-2ZM6,6.333H18A.656.656,0,0,1,18.667,7V17.667a.656.656,0,0,1-.667.667H16.667V17H13.333v1.333H6a.656.656,0,0,1-.667-.667V7A.656.656,0,0,1,6,6.333ZM12,9a1.333,1.333,0,1,0,1.333,1.333A1.333,1.333,0,0,0,12,9ZM9,10.333a1,1,0,1,0,1,1A1,1,0,0,0,9,10.333Zm6,0a1,1,0,1,0,1,1A1,1,0,0,0,15,10.333Zm-3,2a3.237,3.237,0,0,0-2.167.813A2.165,2.165,0,0,0,9.063,13a2.416,2.416,0,0,0-1.729.667V15h9.333V13.667a2.328,2.328,0,0,0-1.6-.667,2.609,2.609,0,0,0-.875.146A3.264,3.264,0,0,0,12,12.333Z" transform="translate(-4 -4.999)" fill="#434b5d"/></svg>