<svg xmlns="http://www.w3.org/2000/svg" width="14.1" height="14.1" viewBox="0 0 14.1 14.1"><g transform="translate(0.251 0.251)"><path d="M192.062,106.756a1.35,1.35,0,0,0,.075.137c.025.037.062.075.087.112a1.124,1.124,0,0,0,.124.112.419.419,0,0,0,.149.075.615.615,0,0,0,.162.05.765.765,0,0,0,.162.012.709.709,0,0,0,.162-.012.445.445,0,0,0,.137-.05h.012a.927.927,0,0,0,.149-.087.8.8,0,0,0,.112-.1l.012-.012a.682.682,0,0,0,.087-.112.388.388,0,0,0,.062-.124c0-.012,0-.012.012-.025a.8.8,0,0,0,.05-.162,1.058,1.058,0,0,0,0-.323,1.156,1.156,0,0,0-.05-.162.706.706,0,0,0-.149-.224l-.025-.025a1.086,1.086,0,0,0-.124-.1c-.05-.025-.087-.05-.137-.075a.7.7,0,0,0-.149-.05.764.764,0,0,0-.162-.012.709.709,0,0,0-.162.012.7.7,0,0,0-.149.05H192.5a1.356,1.356,0,0,0-.137.075,1.087,1.087,0,0,0-.124.1.8.8,0,0,0-.1.112,1.349,1.349,0,0,0-.075.137.7.7,0,0,0-.05.149.764.764,0,0,0-.012.162.709.709,0,0,0,.012.162A1.127,1.127,0,0,0,192.062,106.756Z" transform="translate(-186.033 -102.318)" fill="#434b5d"/><path d="M179.838,184.169h-.286v-3.046a.321.321,0,0,0-.323-.323h-1.305a.321.321,0,0,0-.323.323v.671a.321.321,0,0,0,.323.323h.261v2.064h-.261a.321.321,0,0,0-.323.323v.671a.321.321,0,0,0,.323.323h1.914a.321.321,0,0,0,.323-.323V184.5A.332.332,0,0,0,179.838,184.169Z" transform="translate(-172.08 -175.181)" fill="#434b5d"/><path d="M6.8,0a6.8,6.8,0,1,0,6.8,6.8A6.8,6.8,0,0,0,6.8,0Zm0,12.7a5.9,5.9,0,1,1,5.9-5.9A5.91,5.91,0,0,1,6.8,12.7Z" fill="#434b5d" stroke="#434b5d" stroke-width="0.5"/></g></svg>