<svg xmlns="http://www.w3.org/2000/svg" width="20.445" height="20.449" viewBox="0 0 20.445 20.449"><g transform="translate(-0.051)"><g transform="translate(0.05)"><path d="M17.726,59.648H9.758V51.68a.577.577,0,0,0-.58-.58,9.128,9.128,0,1,0,9.128,9.128A.583.583,0,0,0,17.726,59.648ZM9.178,68.2A7.969,7.969,0,0,1,8.6,52.281v7.947a.577.577,0,0,0,.58.58h7.947A7.976,7.976,0,0,1,9.178,68.2Z" transform="translate(-0.05 -48.906)" fill="#12a6e8"/><path d="M259.858,9.1A9.127,9.127,0,0,0,250.73,0a.577.577,0,0,0-.58.58V9.128a.577.577,0,0,0,.58.58h8.548a.577.577,0,0,0,.58-.58Zm-8.548-.545V1.185a7.974,7.974,0,0,1,7.368,7.368Z" transform="translate(-239.412 0)" fill="#12a6e8"/></g></g></svg>