<svg xmlns="http://www.w3.org/2000/svg" xmlns:xlink="http://www.w3.org/1999/xlink" width="380" height="206" viewBox="0 0 380 206"><defs><clipPath id="a"><rect width="380" height="206" transform="translate(289 164)" fill="none"/></clipPath><filter id="b" x="-15" y="-63" width="410" height="287" filterUnits="userSpaceOnUse"><feOffset dy="3" input="SourceAlpha"/><feGaussianBlur stdDeviation="5" result="c"/><feFlood flood-opacity="0.102"/><feComposite operator="in" in2="c"/><feComposite in="SourceGraphic"/></filter><filter id="d" x="40" y="-4" width="300" height="60" filterUnits="userSpaceOnUse"><feOffset dy="2" input="SourceAlpha"/><feGaussianBlur stdDeviation="3" result="e"/><feFlood flood-color="#474747" flood-opacity="0.271"/><feComposite operator="in" in2="e"/><feComposite in="SourceGraphic"/></filter></defs><g transform="translate(-289 -164)" clip-path="url(#a)"><g transform="matrix(1, 0, 0, 1, 289, 164)" filter="url(#b)"><rect width="380" height="257" transform="translate(0 -51)" fill="transparent"/></g><g transform="translate(-48 -90)"><g transform="translate(386 306)"><rect width="141.275" height="176.456" transform="translate(0 0)" fill="#e5e5e5"/><g transform="translate(0 0)" opacity="0.4"><g transform="translate(105.544)" fill="#b4b4b4" stroke="#fff" stroke-width="0.5"><rect width="35.731" height="35.731" stroke="none"/><rect x="0.25" y="0.25" width="35.231" height="35.231" fill="none"/></g><g transform="translate(105.544 70.363)" fill="#b4b4b4" stroke="#fff" stroke-width="0.5"><rect width="35.731" height="35.731" stroke="none"/><rect x="0.25" y="0.25" width="35.231" height="35.231" fill="none"/></g><g transform="translate(105.544 140.725)" fill="#b4b4b4" stroke="#fff" stroke-width="0.5"><rect width="35.731" height="35.731" stroke="none"/><rect x="0.25" y="0.25" width="35.231" height="35.231" fill="none"/></g><g transform="translate(105.544 35.181)" fill="#b4b4b4" stroke="#fff" stroke-width="0.5"><rect width="35.731" height="35.731" stroke="none"/><rect x="0.25" y="0.25" width="35.231" height="35.231" fill="none"/></g><g transform="translate(105.544 105.544)" fill="#b4b4b4" stroke="#fff" stroke-width="0.5"><rect width="35.731" height="35.731" stroke="none"/><rect x="0.25" y="0.25" width="35.231" height="35.231" fill="none"/></g><g transform="translate(35.181)" fill="none" stroke="#fff" stroke-width="0.5"><rect width="35.731" height="35.731" stroke="none"/><rect x="0.25" y="0.25" width="35.231" height="35.231" fill="none"/></g><g transform="translate(35.181 70.363)" fill="none" stroke="#fff" stroke-width="0.5"><rect width="35.731" height="35.731" stroke="none"/><rect x="0.25" y="0.25" width="35.231" height="35.231" fill="none"/></g><g transform="translate(35.181 140.725)" fill="none" stroke="#fff" stroke-width="0.5"><rect width="35.731" height="35.731" stroke="none"/><rect x="0.25" y="0.25" width="35.231" height="35.231" fill="none"/></g><g transform="translate(35.181 35.181)" fill="none" stroke="#fff" stroke-width="0.5"><rect width="35.731" height="35.731" stroke="none"/><rect x="0.25" y="0.25" width="35.231" height="35.231" fill="none"/></g><g transform="translate(35.181 105.544)" fill="none" stroke="#fff" stroke-width="0.5"><rect width="35.731" height="35.731" stroke="none"/><rect x="0.25" y="0.25" width="35.231" height="35.231" fill="none"/></g><g transform="translate(70.363)" fill="none" stroke="#fff" stroke-width="0.5"><rect width="35.731" height="35.731" stroke="none"/><rect x="0.25" y="0.25" width="35.231" height="35.231" fill="none"/></g><g transform="translate(70.363 70.363)" fill="none" stroke="#fff" stroke-width="0.5"><rect width="35.731" height="35.731" stroke="none"/><rect x="0.25" y="0.25" width="35.231" height="35.231" fill="none"/></g><g transform="translate(70.363 35.181)" fill="none" stroke="#fff" stroke-width="0.5"><rect width="35.731" height="35.731" stroke="none"/><rect x="0.25" y="0.25" width="35.231" height="35.231" fill="none"/></g><g transform="translate(70.363 105.544)" fill="none" stroke="#fff" stroke-width="0.5"><rect width="35.731" height="35.731" stroke="none"/><rect x="0.25" y="0.25" width="35.231" height="35.231" fill="none"/></g><g fill="none" stroke="#fff" stroke-width="0.5"><rect width="35.731" height="35.731" stroke="none"/><rect x="0.25" y="0.25" width="35.231" height="35.231" fill="none"/></g><g transform="translate(0 70.363)" fill="none" stroke="#fff" stroke-width="0.5"><rect width="35.731" height="35.731" stroke="none"/><rect x="0.25" y="0.25" width="35.231" height="35.231" fill="none"/></g><g transform="translate(0 140.725)" fill="none" stroke="#fff" stroke-width="0.5"><rect width="35.731" height="35.731" stroke="none"/><rect x="0.25" y="0.25" width="35.231" height="35.231" fill="none"/></g><g transform="translate(0 35.181)" fill="none" stroke="#fff" stroke-width="0.5"><rect width="35.731" height="35.731" stroke="none"/><rect x="0.25" y="0.25" width="35.231" height="35.231" fill="none"/></g><g transform="translate(0 105.544)" fill="none" stroke="#fff" stroke-width="0.5"><rect width="35.731" height="35.731" stroke="none"/><rect x="0.25" y="0.25" width="35.231" height="35.231" fill="none"/></g></g><g transform="translate(15.392 12.643)" opacity="0.86"><text transform="translate(107.544 9)" fill="#707070" font-size="8" font-family="OpenSans-SemiBold, Open Sans" font-weight="600"><tspan x="-2.283" y="0">÷</tspan></text><text transform="translate(107.643 79.363)" fill="#707070" font-size="8" font-family="OpenSans-SemiBold, Open Sans" font-weight="600"><tspan x="-1.287" y="0">-</tspan></text><text transform="translate(107.544 149.725)" fill="#707070" font-size="8" font-family="OpenSans-SemiBold, Open Sans" font-weight="600"><tspan x="-2.283" y="0">=</tspan></text><text transform="translate(108.094 44.181)" fill="#707070" font-size="8" font-family="OpenSans-SemiBold, Open Sans" font-weight="600"><tspan x="-2.203" y="0">x</tspan></text><text transform="translate(107.544 114.544)" fill="#707070" font-size="8" font-family="OpenSans-SemiBold, Open Sans" font-weight="600"><tspan x="-2.283" y="0">+</tspan></text><text transform="translate(37.181 9)" fill="#707070" font-size="8" font-family="OpenSans-SemiBold, Open Sans" font-weight="600"><tspan x="-2.283" y="0">8</tspan></text><text transform="translate(37.181 79.363)" fill="#707070" font-size="8" font-family="OpenSans-SemiBold, Open Sans" font-weight="600"><tspan x="-2.283" y="0">2</tspan></text><text transform="translate(37.181 44.181)" fill="#707070" font-size="8" font-family="OpenSans-SemiBold, Open Sans" font-weight="600"><tspan x="-2.283" y="0">5</tspan></text><text transform="translate(37.83 114.544)" fill="#707070" font-size="8" font-family="OpenSans-SemiBold, Open Sans" font-weight="600"><tspan x="-1.1" y="0">.</tspan></text><text transform="translate(72.363 9)" fill="#707070" font-size="8" font-family="OpenSans-SemiBold, Open Sans" font-weight="600"><tspan x="-2.283" y="0">9</tspan></text><text transform="translate(72.363 79.363)" fill="#707070" font-size="8" font-family="OpenSans-SemiBold, Open Sans" font-weight="600"><tspan x="-2.283" y="0">1</tspan></text><text transform="translate(72.363 44.181)" fill="#707070" font-size="8" font-family="OpenSans-SemiBold, Open Sans" font-weight="600"><tspan x="-2.283" y="0">6</tspan></text><text transform="translate(73.012 114.544)" fill="#707070" font-size="8" font-family="OpenSans-SemiBold, Open Sans" font-weight="600"><tspan x="-1.068" y="0">,</tspan></text><text transform="translate(2 9)" fill="#707070" font-size="8" font-family="OpenSans-SemiBold, Open Sans" font-weight="600"><tspan x="-2.283" y="0">7</tspan></text><text transform="translate(2 79.363)" fill="#707070" font-size="8" font-family="OpenSans-SemiBold, Open Sans" font-weight="600"><tspan x="-2.283" y="0">3</tspan></text><text transform="translate(2 44.181)" fill="#707070" font-size="8" font-family="OpenSans-SemiBold, Open Sans" font-weight="600"><tspan x="-2.283" y="0">4</tspan></text><text transform="translate(2 114.544)" fill="#707070" font-size="8" font-family="OpenSans-SemiBold, Open Sans" font-weight="600"><tspan x="-2.283" y="0">0</tspan></text><g transform="translate(67.829 142.744)"><g transform="translate(0 0)"><path d="M2.572,71.083a1.983,1.983,0,0,0,1.455.641H8.569a1.682,1.682,0,0,0,1.679-1.679v-4.2a1.682,1.682,0,0,0-1.679-1.679H4.027a1.972,1.972,0,0,0-1.455.641L.231,67.352a.871.871,0,0,0,0,1.181ZM.61,67.7l2.341-2.55a1.466,1.466,0,0,1,1.078-.473H8.571a1.168,1.168,0,0,1,1.166,1.166v4.2a1.168,1.168,0,0,1-1.166,1.166H4.027a1.466,1.466,0,0,1-1.078-.473L.61,68.185A.356.356,0,0,1,.61,67.7Z" transform="translate(0 -64.163)" fill="gray" stroke="gray" stroke-width="0.5"/><path d="M221.986,178.765a.258.258,0,0,0,.364,0l1-1,1,1a.257.257,0,0,0,.364-.362l-1-1,1-1a.256.256,0,1,0-.362-.362l-1,1-1-1a.256.256,0,0,0-.362.362l1,1-1,1A.257.257,0,0,0,221.986,178.765Z" transform="translate(-217.266 -173.622)" fill="gray" stroke="gray" stroke-width="0.5"/></g></g><g transform="translate(4.506 143.47) rotate(90)"><path d="M6.218.133A.361.361,0,0,0,5.94,0H.4A.361.361,0,0,0,.118.133.458.458,0,0,0,0,.446.457.457,0,0,0,.118.76L2.889,3.885a.359.359,0,0,0,.557,0L6.218.76A.458.458,0,0,0,6.336.446.458.458,0,0,0,6.218.133Z" fill="gray"/></g><g transform="translate(35.668 149.805) rotate(-90)"><path d="M6.218.133A.361.361,0,0,0,5.94,0H.4A.361.361,0,0,0,.118.133.458.458,0,0,0,0,.446.457.457,0,0,0,.118.76L2.889,3.885a.359.359,0,0,0,.557,0L6.218.76A.458.458,0,0,0,6.336.446.458.458,0,0,0,6.218.133Z" fill="gray"/></g></g></g><g transform="translate(526.725 306)"><rect width="141.275" height="176.456" transform="translate(0 0)" fill="#c8eeff"/><g transform="translate(0 0)" opacity="0.4"><g transform="translate(105.544)" fill="none" stroke="#fff" stroke-width="0.5"><rect width="35.731" height="35.731" stroke="none"/><rect x="0.25" y="0.25" width="35.231" height="35.231" fill="none"/></g><g transform="translate(105.544 70.363)" fill="none" stroke="#fff" stroke-width="0.5"><rect width="35.731" height="35.731" stroke="none"/><rect x="0.25" y="0.25" width="35.231" height="35.231" fill="none"/></g><g transform="translate(105.544 140.725)" fill="none" stroke="#fff" stroke-width="0.5"><rect width="35.731" height="35.731" stroke="none"/><rect x="0.25" y="0.25" width="35.231" height="35.231" fill="none"/></g><g transform="translate(105.544 35.181)" fill="none" stroke="#fff" stroke-width="0.5"><rect width="35.731" height="35.731" stroke="none"/><rect x="0.25" y="0.25" width="35.231" height="35.231" fill="none"/></g><g transform="translate(105.544 105.544)" fill="none" stroke="#fff" stroke-width="0.5"><rect width="35.731" height="35.731" stroke="none"/><rect x="0.25" y="0.25" width="35.231" height="35.231" fill="none"/></g><g transform="translate(35.181)" fill="none" stroke="#fff" stroke-width="0.5"><rect width="35.731" height="35.731" stroke="none"/><rect x="0.25" y="0.25" width="35.231" height="35.231" fill="none"/></g><g transform="translate(35.181 70.363)" fill="none" stroke="#fff" stroke-width="0.5"><rect width="35.731" height="35.731" stroke="none"/><rect x="0.25" y="0.25" width="35.231" height="35.231" fill="none"/></g><g transform="translate(35.181 140.725)" fill="none" stroke="#fff" stroke-width="0.5"><rect width="35.731" height="35.731" stroke="none"/><rect x="0.25" y="0.25" width="35.231" height="35.231" fill="none"/></g><g transform="translate(35.181 35.181)" fill="none" stroke="#fff" stroke-width="0.5"><rect width="35.731" height="35.731" stroke="none"/><rect x="0.25" y="0.25" width="35.231" height="35.231" fill="none"/></g><g transform="translate(35.181 105.544)" fill="none" stroke="#fff" stroke-width="0.5"><rect width="35.731" height="35.731" stroke="none"/><rect x="0.25" y="0.25" width="35.231" height="35.231" fill="none"/></g><g transform="translate(70.363)" fill="none" stroke="#fff" stroke-width="0.5"><rect width="35.731" height="35.731" stroke="none"/><rect x="0.25" y="0.25" width="35.231" height="35.231" fill="none"/></g><g transform="translate(70.363 70.363)" fill="none" stroke="#fff" stroke-width="0.5"><rect width="35.731" height="35.731" stroke="none"/><rect x="0.25" y="0.25" width="35.231" height="35.231" fill="none"/></g><g transform="translate(70.363 35.181)" fill="none" stroke="#fff" stroke-width="0.5"><rect width="35.731" height="35.731" stroke="none"/><rect x="0.25" y="0.25" width="35.231" height="35.231" fill="none"/></g><g transform="translate(70.363 105.544)" fill="none" stroke="#fff" stroke-width="0.5"><rect width="35.731" height="35.731" stroke="none"/><rect x="0.25" y="0.25" width="35.231" height="35.231" fill="none"/></g><g fill="none" stroke="#fff" stroke-width="0.5"><rect width="35.731" height="35.731" stroke="none"/><rect x="0.25" y="0.25" width="35.231" height="35.231" fill="none"/></g><g transform="translate(0 70.363)" fill="none" stroke="#fff" stroke-width="0.5"><rect width="35.731" height="35.731" stroke="none"/><rect x="0.25" y="0.25" width="35.231" height="35.231" fill="none"/></g><g transform="translate(0 140.725)" fill="none" stroke="#fff" stroke-width="0.5"><rect width="35.731" height="35.731" stroke="none"/><rect x="0.25" y="0.25" width="35.231" height="35.231" fill="none"/></g><g transform="translate(0 35.181)" fill="none" stroke="#fff" stroke-width="0.5"><rect width="35.731" height="35.731" stroke="none"/><rect x="0.25" y="0.25" width="35.231" height="35.231" fill="none"/></g><g transform="translate(0 105.544)" fill="none" stroke="#fff" stroke-width="0.5"><rect width="35.731" height="35.731" stroke="none"/><rect x="0.25" y="0.25" width="35.231" height="35.231" fill="none"/></g></g><g transform="translate(7.696 12.643)" opacity="0.86"><text transform="translate(111.392 7)" fill="#707070" font-size="7" font-family="OpenSans, Open Sans"><tspan x="-1.921" y="0">√</tspan></text><text transform="translate(115.24 79.363)" fill="#707070" font-size="8" font-family="OpenSans-SemiBold, Open Sans" font-weight="600"><tspan x="-2.283" y="0">$</tspan></text><text transform="translate(115.69 149.725)" fill="#707070" font-size="8" font-family="OpenSans-SemiBold, Open Sans" font-weight="600"><tspan x="-2.824" y="0">∞</tspan></text><text transform="translate(45.877 9)" fill="#707070" font-size="8" font-family="OpenSans-SemiBoldItalic, Open Sans" font-weight="600" font-style="italic"><tspan x="-1.961" y="0">y</tspan></text><text transform="translate(44.877 79.363)" fill="#707070" font-size="8" font-family="OpenSans-SemiBold, Open Sans" font-weight="600"><tspan x="-2.283" y="0">&gt;</tspan></text><text transform="translate(32.784 41.982)" fill="#707070" font-size="8" font-family="OpenSans-SemiBoldItalic, Open Sans" font-weight="600" font-style="italic"><tspan x="-2.016" y="0">x</tspan></text><text transform="translate(44.977 112.544)" fill="#707070" font-size="7" font-family="OpenSans-SemiBold, Open Sans" font-weight="600"><tspan x="-1.333" y="0">º</tspan></text><text transform="translate(45.327 149.725)" fill="#707070" font-size="8" font-family="OpenSans-SemiBold, Open Sans" font-weight="600"><tspan x="-2.775" y="0">π</tspan></text><text transform="translate(80.409 9)" fill="#707070" font-size="8" font-family="OpenSans-SemiBoldItalic, Open Sans" font-weight="600" font-style="italic"><tspan x="-3.471" y="0">x²</tspan></text><text transform="translate(80.058 79.363)" fill="#707070" font-size="8" font-family="OpenSans-SemiBold, Open Sans" font-weight="600"><tspan x="-2.283" y="0">±</tspan></text><text transform="translate(80.708 114.544)" fill="#707070" font-size="8" font-family="OpenSans-SemiBold, Open Sans" font-weight="600"><tspan x="-1.1" y="0">:</tspan></text><text transform="translate(9.696 9)" fill="#707070" font-size="8" font-family="OpenSans-SemiBoldItalic, Open Sans" font-weight="600" font-style="italic"><tspan x="-2.016" y="0">x</tspan></text><text transform="translate(9.696 79.363)" fill="#707070" font-size="8" font-family="OpenSans-SemiBold, Open Sans" font-weight="600"><tspan x="-2.283" y="0">&lt;</tspan></text><text transform="translate(9.596 114.544)" fill="#707070" font-size="8" font-family="OpenSans-SemiBold, Open Sans" font-weight="600"><tspan x="-3.447" y="0">%</tspan></text><g transform="translate(75.525 142.744)"><g transform="translate(0 0)"><path d="M2.572,71.083a1.983,1.983,0,0,0,1.455.641H8.569a1.682,1.682,0,0,0,1.679-1.679v-4.2a1.682,1.682,0,0,0-1.679-1.679H4.027a1.972,1.972,0,0,0-1.455.641L.231,67.352a.871.871,0,0,0,0,1.181ZM.61,67.7l2.341-2.55a1.466,1.466,0,0,1,1.078-.473H8.571a1.168,1.168,0,0,1,1.166,1.166v4.2a1.168,1.168,0,0,1-1.166,1.166H4.027a1.466,1.466,0,0,1-1.078-.473L.61,68.185A.356.356,0,0,1,.61,67.7Z" transform="translate(0 -64.163)" fill="gray" stroke="gray" stroke-width="0.5"/><path d="M221.986,178.765a.258.258,0,0,0,.364,0l1-1,1,1a.257.257,0,0,0,.364-.362l-1-1,1-1a.256.256,0,1,0-.362-.362l-1,1-1-1a.256.256,0,0,0-.362.362l1,1-1,1A.257.257,0,0,0,221.986,178.765Z" transform="translate(-217.266 -173.622)" fill="gray" stroke="gray" stroke-width="0.5"/></g></g><g transform="translate(115.439 2.199)" fill="none" stroke="#707070" stroke-width="0.75" stroke-dasharray="2 1"><rect width="7.696" height="7.146" stroke="none"/><rect x="0.375" y="0.375" width="6.946" height="6.396" fill="none"/></g><g transform="translate(0.275 29.684)"><text transform="translate(8.673 9)" fill="#707070" font-size="8" font-family="OpenSans-SemiBoldItalic, Open Sans" font-weight="600" font-style="italic"><tspan x="-3.471" y="0">x²</tspan></text><g transform="translate(5.222 12.643)" fill="none" stroke="#707070" stroke-width="0.75" stroke-dasharray="2 1"><rect width="7.696" height="12.094" stroke="none"/><rect x="0.375" y="0.375" width="6.946" height="11.344" fill="none"/></g><line x2="18.14" transform="translate(0 10.719)" fill="none" stroke="#707070" stroke-width="0.75"/></g><g transform="translate(38.205 26.386)"><g transform="translate(5.222 15.942)" fill="none" stroke="#707070" stroke-width="0.75" stroke-dasharray="2 1"><rect width="7.696" height="12.094" stroke="none"/><rect x="0.375" y="0.375" width="6.946" height="11.344" fill="none"/></g><g transform="translate(5.222)" fill="none" stroke="#707070" stroke-width="0.75" stroke-dasharray="2 1"><rect width="7.696" height="12.094" stroke="none"/><rect x="0.375" y="0.375" width="6.946" height="11.344" fill="none"/></g><line x2="18.14" transform="translate(0 14.018)" fill="none" stroke="#707070" stroke-width="0.75"/></g><g transform="translate(75.31 29.684)"><text transform="translate(2 14.497)" fill="#707070" font-size="8" font-family="OpenSans-SemiBoldItalic, Open Sans" font-weight="600" font-style="italic"><tspan x="-2.016" y="0">x</tspan></text><g transform="translate(5.497)" fill="none" stroke="#707070" stroke-width="0.75" stroke-dasharray="2 1"><rect width="7.696" height="12.094" stroke="none"/><rect x="0.375" y="0.375" width="6.946" height="11.344" fill="none"/></g></g><g transform="translate(108.842 35.181)"><text transform="translate(2 9)" fill="#707070" font-size="8" font-family="OpenSans-SemiBoldItalic, Open Sans" font-weight="600" font-style="italic"><tspan x="-2.016" y="0">x</tspan></text><g transform="translate(5.497 7.696)" fill="none" stroke="#707070" stroke-width="0.75" stroke-dasharray="2 1"><rect width="7.696" height="12.094" stroke="none"/><rect x="0.375" y="0.375" width="6.946" height="11.344" fill="none"/></g></g><g transform="translate(107.743 105.544)"><text transform="translate(8 9)" fill="#707070" font-size="8" font-family="OpenSans-SemiBold, Open Sans" font-weight="600"><tspan x="-7.73" y="0" xml:space="preserve">(     )</tspan></text><g transform="translate(4.398)" fill="none" stroke="#707070" stroke-width="0.75" stroke-dasharray="2 1"><rect width="7.696" height="12.094" stroke="none"/><rect x="0.375" y="0.375" width="6.946" height="11.344" fill="none"/></g></g><text transform="translate(10 149.725)" fill="#707070" font-size="8" font-family="OpenSans-SemiBold, Open Sans" font-weight="600"><tspan x="-9.602" y="0" xml:space="preserve">|     |</tspan></text><g transform="translate(6.596 140.725)" fill="none" stroke="#707070" stroke-width="0.75" stroke-dasharray="2 1"><rect width="7.696" height="12.094" stroke="none"/><rect x="0.375" y="0.375" width="6.946" height="11.344" fill="none"/></g></g></g></g><g transform="translate(1)"><g transform="matrix(1, 0, 0, 1, 288, 164)" filter="url(#d)"><rect width="282" height="42" rx="5" transform="translate(49 3)" fill="#fff"/></g><text transform="translate(372 185)" fill="#434b5d" font-size="13" font-family="OpenSans-SemiBold, Open Sans" font-weight="600" letter-spacing="0.019em"><tspan x="0" y="0">x</tspan></text><text transform="translate(372 200)" fill="#434b5d" font-size="13" font-family="OpenSans-SemiBold, Open Sans" font-weight="600" letter-spacing="0.019em"><tspan x="0" y="0">x</tspan></text><line x2="48" transform="translate(351.5 188.5)" fill="none" stroke="#434b5d" stroke-width="1"/></g></g></svg>
